<svg width="273" height="311" viewBox="0 0 273 311" fill="none" xmlns="http://www.w3.org/2000/svg">
<path d="M195.317 22.6219C196.037 22.5482 196.948 22.4834 197.642 22.7243C198.616 23.0626 199.555 23.7591 199.987 24.7168C200.428 25.6967 200.487 26.9064 200.082 27.9068C199.597 29.1072 198.558 29.7467 197.424 30.2461C196.668 30.4222 195.943 30.4104 195.202 30.1586C194.165 29.8067 193.259 28.9435 192.816 27.9489C192.394 27.0018 192.253 25.9548 192.663 24.9759C193.171 23.7655 194.173 23.1264 195.317 22.6219Z" fill="#FEDC04"/>
<path d="M39.6718 62.8126C40.4705 62.7692 41.1412 62.8637 41.8764 63.1962C42.7849 63.6072 43.4767 64.419 43.8015 65.3549C44.1966 66.4934 44.1101 67.7117 43.5769 68.789C42.9926 69.9693 42.0267 70.4888 40.8209 70.888C40.1262 70.9419 39.4366 70.9017 38.7885 70.6152C37.7358 70.1502 36.888 69.2121 36.5344 68.1173C36.2169 67.1335 36.3069 65.9024 36.7837 64.9822C37.4193 63.7552 38.4002 63.2124 39.6718 62.8126Z" fill="#FEFEFE"/>
<path d="M227.418 189.56C227.626 190.177 227.604 190.938 227.673 191.588C227.873 193.457 228.219 195.839 229.418 197.353C231.347 199.789 235.341 199.985 238.201 200.29C235.939 200.927 233.614 200.896 231.432 201.956C228.612 203.328 227.996 206.635 227.756 209.467C227.677 210.395 227.734 211.324 227.436 212.215C227.007 209.463 226.977 205.764 225.283 203.44C223.563 201.082 219.171 200.831 216.465 200.325C218.913 199.979 222.185 199.893 224.252 198.376C226.972 196.38 226.848 192.531 227.418 189.56Z" fill="#FEFEFE"/>
<path d="M14.1794 149.86L15.9811 154.06C17.7447 157.29 20.5601 158.128 23.8704 159.099L20.7583 160.206C19.076 160.962 17.3889 162.01 16.3381 163.56C15.4865 164.817 14.9836 166.403 14.4478 167.818C14.2717 168.029 14.3789 167.952 14.1287 168.051C13.7266 166.752 13.3048 165.364 12.6912 164.148C11.2511 161.293 7.84857 160.021 5 159.108C6.47486 158.634 7.88687 158.116 9.25611 157.384C12.3057 155.754 13.2311 152.95 14.1794 149.86Z" fill="#FEDC04"/>
<path d="M76.3472 8.91854C77.8339 8.90418 79.1071 9.16105 80.423 9.90135C82.2454 10.9263 83.4187 12.5671 83.9529 14.5854C84.4286 16.3812 83.9018 18.7323 82.9353 20.2742C81.7725 22.1285 79.9635 22.9364 77.9143 23.4014C76.0993 23.5076 74.4065 23.3398 72.8451 22.3136C71.2544 21.2685 70.1165 19.4675 69.778 17.6062C69.4321 15.7044 69.882 13.5684 71.0174 12.0103C72.3732 10.1493 74.1234 9.29762 76.3472 8.91854Z" fill="#000055"/>
<path d="M75.9905 12.3933C76.7468 12.3652 77.5394 12.3081 78.266 12.5586C79.3445 12.9307 80.1442 13.7342 80.5887 14.7751C81.0341 15.8182 80.9828 16.8801 80.5194 17.9057C80.0111 19.0315 79.1164 19.5988 77.9998 20.0165C77.2145 20.1633 76.4934 20.2192 75.7132 19.9955C74.8204 19.7396 73.9898 18.9772 73.5395 18.1785C73.0462 17.3036 72.9001 16.3192 73.1665 15.3456L73.2163 15.1736L73.387 14.6292C73.9078 13.394 74.8264 12.8764 75.9905 12.3933Z" fill="#FEFEFE"/>
<path d="M208.712 167.396C209.29 165.32 210.276 163.497 212.223 162.436C214.272 161.32 216.421 161.256 218.607 161.926C220.609 162.947 222.169 164.572 222.885 166.744C223.32 168.064 223.362 169.567 222.947 170.892L222.88 171.111C222.261 173.05 220.698 174.659 218.884 175.526C217.338 176.266 215.271 176.427 213.642 175.847C211.65 175.137 209.954 173.613 209.14 171.647C208.579 170.295 208.512 168.829 208.712 167.396Z" fill="#000055"/>
<path d="M215.68 164.162C216.49 164.221 217.27 164.274 217.995 164.675C219.17 165.324 219.993 166.338 220.305 167.651C220.62 168.98 220.282 170.49 219.528 171.61C218.672 172.883 217.488 173.215 216.063 173.46C215.078 173.395 214.133 173.235 213.291 172.684C212.232 171.991 211.58 170.707 211.389 169.478C211.208 168.311 211.452 166.976 212.175 166.02C213.14 164.743 214.152 164.394 215.68 164.162Z" fill="#FEFEFE"/>
<path d="M10.2126 197.486C12.0864 197.334 13.7482 197.4 15.4066 198.387C17.0662 199.376 18.3873 201.16 18.8477 203.032C19.3212 204.956 18.9323 207.201 17.8719 208.864C16.6951 210.711 14.9273 211.838 12.813 212.263C11.0854 212.489 9.4567 212.368 7.90462 211.499C6.08641 210.48 4.73663 208.85 4.20916 206.814C3.68968 204.81 4.17534 202.548 5.25133 200.807C6.4639 198.846 8.04247 197.977 10.2126 197.486Z" fill="#000055"/>
<path d="M11.0013 200.362C11.8912 200.355 12.8705 200.487 13.6593 200.917C14.7344 201.503 15.5749 202.509 15.8841 203.702C16.2201 204.997 15.9511 206.231 15.2446 207.35C14.4807 208.56 13.406 209.095 12.045 209.378C11.1152 209.325 10.2766 209.26 9.43673 208.803C8.31255 208.192 7.52215 207.059 7.19731 205.834C6.85556 204.547 7.167 203.352 7.89294 202.256C8.66962 201.084 9.68243 200.635 11.0013 200.362Z" fill="#FEDC04"/>
<path d="M230.671 108.043L230.987 108.083C231.782 108.162 232.66 107.965 233.449 107.86L239.291 106.914L263.174 102.664L246.965 112.241L242.012 115.085C240.777 115.774 239.368 116.44 238.294 117.364C238.389 117.575 238.322 117.474 238.508 117.658C233.738 117.344 228.826 116.507 224.084 115.825C222.952 115.662 221.389 115.667 220.348 115.245L230.671 108.043Z" fill="#1058BF"/>
<path d="M20.8937 87.4795L25.0225 98.4401L36.8539 96.7355L29.1599 105.836L36.6034 115.491C35.3813 115.491 33.7705 114.926 32.5653 114.627L24.9475 112.86C24.4838 113.6 24.2142 114.603 23.8925 115.427L20.9444 123.187L20.6429 123.393L16.6385 112.972L4.68741 115.028C7.58672 112.347 9.61107 108.66 12.4146 105.83L7.48493 100.013C6.48935 98.885 5.41814 97.7844 4.58594 96.5281L16.6018 98.4111C16.9707 96.9844 17.5709 95.6413 18.108 94.2727L20.8937 87.4795Z" fill="#000055"/>
<path d="M20.695 95.6904L23.0822 101.645L29.3033 100.782C27.9481 102.44 26.6558 104.031 24.9693 105.373C25.2795 106.008 25.925 106.57 26.389 107.111L29.3145 110.609L23.0675 109.192L20.9107 114.732L20.6711 115L19.2546 111.344C19.0102 110.687 18.8101 109.846 18.3912 109.281L12.2578 110.535C12.4604 110.011 12.9506 109.506 13.3086 109.073C14.2908 107.885 15.3977 106.776 16.4517 105.65C16.1288 105.065 15.5222 104.53 15.0742 104.034C14.1497 103.01 13.218 102.002 12.3759 100.909C12.8236 100.8 13.4819 100.966 13.9423 101.02L18.394 101.613L20.695 95.6904Z" fill="#FEDC04"/>
<path d="M249.619 154.541C251.478 158.026 252.633 162.218 253.884 165.955L265.495 163.528L258.373 172.977L266.53 182.332L253.945 180.32L249.832 192.91L249.623 192.952L249.48 192.466L245.452 180.383L232.699 183.059L240.956 173.051L233.091 163.846L245.128 165.925L249.619 154.541Z" fill="#000055"/>
<path d="M249.455 162.963C250.451 164.942 251.167 167.316 251.836 169.43L258.216 168.126L253.948 173.144L258.318 177.842L251.763 176.981L249.601 183.009L247.286 176.736C245.186 177.349 243.073 177.779 240.895 177.994C242.031 176.226 243.38 174.551 244.935 173.138L240.909 168.212L247.288 169.396C247.78 167.174 248.776 165.129 249.455 162.963Z" fill="#FEDC04"/>
<path d="M216.138 59.5727C216.304 59.5159 216.484 59.4913 216.634 59.4023C217.379 58.959 218.402 57.2599 218.97 56.5419L230.032 42.2607L221.541 93.0401L221.747 93.2051L221.738 93.2198L207.07 95.5789C207.444 94.4308 207.664 93.2201 207.962 92.049L209.867 84.4114L213.98 67.9604C214.667 65.2331 215.139 62.1768 216.138 59.5727Z" fill="#1058BF"/>
<path d="M241.792 56.3154C245.065 55.8447 248.809 56.9019 251.475 58.8346C254.4 60.955 256.81 64.6096 257.32 68.2231C257.887 72.2411 256.754 76.3658 254.316 79.6087C251.907 82.8131 248.334 84.5381 244.432 85.0793C240.776 85.2395 237.357 84.5499 234.403 82.2904C231.265 79.8905 229.26 76.472 228.749 72.5468C228.27 68.8629 229.468 64.9648 231.732 62.0473C234.276 58.7679 237.699 56.8473 241.792 56.3154Z" fill="#000055"/>
<path d="M249.614 63.6729C251.487 65.5322 252.732 67.9286 252.698 70.6164C252.666 73.2518 251.429 76.1524 249.487 77.9464C247.571 79.7173 245.025 80.5135 242.44 80.3565L241.483 80.2218L241.215 80.1746C239.053 79.777 236.755 78.5842 235.453 76.7721C234.942 76.0611 234.577 75.1852 234.227 74.3846C234.958 74.6632 235.606 75.0786 236.319 75.3952C237.914 76.1036 239.688 76.4935 241.433 76.2679L241.722 76.2267C243.216 76.0241 244.442 75.4111 245.631 74.4992C247.8 72.836 249.412 70.2271 249.749 67.5046L249.78 67.2352C249.928 66.0262 249.758 64.8752 249.614 63.6729Z" fill="#3594DD"/>
<path d="M234.228 74.3845C233.857 73.5574 233.543 72.7019 233.454 71.7928C233.202 69.2187 234.151 66.4199 235.793 64.445C237.454 62.4455 239.993 61.3115 242.561 61.1152C245.356 60.9018 247.549 61.8654 249.616 63.6728C249.759 64.8751 249.93 66.0261 249.781 67.2352L249.751 67.5045C249.414 70.227 247.802 72.8359 245.633 74.4991C244.444 75.4111 243.217 76.024 241.724 76.2267L241.435 76.2678C239.69 76.4934 237.916 76.1035 236.32 75.3951C235.608 75.0786 234.96 74.6631 234.228 74.3845Z" fill="#2CF4FB"/>
<path d="M242.262 62.0276C242.997 61.9954 243.571 62.0662 244.241 62.3853C244.921 62.7092 245.562 63.3279 245.795 64.058C246.107 65.0379 246.065 66.1232 245.547 67.0265C245.021 67.9433 244.264 68.2417 243.283 68.4985C242.754 68.481 242.153 68.4804 241.653 68.2937C240.758 67.9602 240.037 67.2365 239.71 66.3443C239.419 65.5501 239.414 64.6493 239.796 63.8818C240.319 62.832 241.222 62.4121 242.262 62.0276Z" fill="#FEFEFE"/>
<path d="M192.475 189.773L168.926 189.79L168.955 166.814L240.607 135.458L240.877 135.557C242.388 136.07 244.542 136.011 246.149 136.232L268.149 138.984L218.607 161.926C216.422 161.256 214.272 161.32 212.223 162.436C210.277 163.497 209.29 165.32 208.712 167.396L184.157 178.895L184.269 189.651C186.903 189.648 189.884 189.38 192.475 189.773Z" fill="#1058BF"/>
<g filter="url(#filter0_f_2778_20533)">
<path d="M207.301 209.008C210.387 209.281 213.322 209.743 216.053 211.09C219.491 212.786 221.855 216.192 222.792 219.423L222.992 220.297L223.038 220.507C223.322 221.876 223.189 223.416 223.189 224.804L223.185 232.007L223.161 242.52C223.153 244.615 223.323 246.826 222.927 248.895C222.481 251.222 221.377 253.534 219.759 255.445C217.227 258.436 213.107 260.469 208.852 261.024C206.012 261.394 203.036 261.279 200.167 261.283L187.327 261.291L143.762 261.29L90.947 261.286L74.0523 261.287C71.1691 261.287 68.1391 261.445 65.2703 261.213C61.6806 260.921 58.4499 260.079 55.5447 258.189C52.6663 256.317 50.6873 253.614 49.7612 250.643L49.6731 250.374C49.2561 249.026 49.2684 247.248 49.3765 245.855C51.3659 246.151 53.4553 246.092 55.47 246.09L63.6351 246.071L90.763 246.044L154.81 245.987L187.048 245.977C188.794 245.951 190.611 245.938 192.33 245.667C196.209 245.057 199.659 243.303 202.363 240.882C204.692 238.797 206.227 235.893 206.911 233.086C207.725 229.749 207.332 226.069 207.329 222.672L207.301 209.008Z" fill="#FDE5D7"/>
</g>
<path d="M68.2942 94.1235C65.512 92.6579 63.1367 90.712 61.5306 87.9716C60.7016 86.5571 60.1222 84.8611 59.9116 83.235C59.671 81.3782 59.7306 79.4642 59.7268 77.595L59.7265 69.5416C59.7306 64.5567 59.4655 59.4349 59.7479 54.4649C59.8047 53.4665 59.9585 52.4824 60.2141 51.5155C60.9847 48.5968 62.8514 45.6742 65.2012 43.7743C67.1187 42.2241 69.2933 41.3734 71.5429 40.4305L77.3687 37.7701C86.3024 33.1949 94.4892 27.5843 101.979 20.897C104.538 18.6113 107.047 16.1632 109.31 13.5846L113.652 8.375C115.556 5.92944 116.932 3.3754 119.711 1.77194C121.149 0.942289 122.856 0.399824 124.501 0.218259C126.152 0.0360547 127.851 0.102427 129.51 0.0985975L137.612 0.083282L149.345 0.0730717C152.144 0.0714762 155.481 -0.254003 158.176 0.481833L158.439 0.557459C160.516 1.14141 162.239 2.09518 163.876 3.48549C166.747 5.92306 168.411 9.50013 168.691 13.2214C169.802 13.2505 170.918 13.3717 172.001 13.6257L172.25 13.6825C175.138 14.3648 178.107 16.7165 179.63 19.2313C180.376 20.462 181.005 22.054 181.213 23.4893C181.454 25.1646 181.383 26.9135 181.383 28.6032L181.371 36.2637L181.29 66.8251L181.26 75.1855C181.251 76.8543 181.145 78.5877 181.324 80.2473L223.562 30.3847L216.135 59.5737C215.136 62.1778 214.664 65.2341 213.977 67.9614L209.864 84.4124L207.959 92.05C207.661 93.2211 207.44 94.4317 207.067 95.5799L221.734 93.2208L221.744 93.2061L257.512 88.4426C256.969 89.025 256.167 89.4848 255.528 89.966L250.855 93.4588L230.67 108.043L220.346 115.245C221.387 115.667 222.951 115.662 224.083 115.825C228.825 116.507 233.737 117.344 238.507 117.658L269.44 122.232L240.606 135.459L168.954 166.815L168.924 189.79L192.474 189.774C193.963 189.792 195.515 189.718 196.97 190.061L197.272 190.131C201.346 191.103 204.824 193.742 207.005 197.3C208.251 199.333 209.067 201.668 209.308 204.044C209.47 205.652 209.365 207.317 209.447 208.937L209.471 222.659C209.473 226.07 209.811 229.766 209.112 233.117C208.524 235.935 207.207 238.851 205.207 240.945C202.885 243.377 199.923 245.137 196.592 245.75C195.117 246.022 193.556 246.035 192.058 246.062L164.378 246.072L109.387 246.129L86.0947 246.156L79.0841 246.175C77.3543 246.177 75.5604 246.236 73.8522 245.939C70.7599 245.487 67.9046 243.978 65.5599 241.956C62.0635 238.942 60.156 234.398 59.8193 229.861C59.4741 227.988 59.671 225.833 59.6694 223.914L59.7166 212.123L39.1578 220.405L54.6251 199.69L58.0898 195.049C58.5564 194.428 59.2638 193.72 59.5503 193.011L59.6422 192.763L24.4156 206.276L59.7593 163.928L33.6439 177.188L42.0103 155.793L44.4571 149.865C44.7851 149.075 45.3123 148.154 45.4747 147.321L19.9648 133.534L52.2051 124.411L51.6814 92.3512C52.7067 92.4709 72.8005 113.659 75.4688 116.314C76.2847 116.232 77.2503 115.774 78.0356 115.508L83.2295 113.778L99.8905 108.206L99.7654 103.425C96.6708 104.701 93.6474 106.82 90.4092 107.619L90.1523 107.68C89.173 107.927 88.2106 107.996 87.2007 107.943C86.1607 107.889 85.28 107.531 84.3837 107.02C80.8896 105.029 77.7829 101.967 74.6701 99.4294C72.5822 97.7277 70.1217 96.0946 68.2942 94.1235Z" fill="#000055"/>
<path d="M51.3447 145.088L52.4622 145.495C52.6467 146.247 51.8831 147.727 51.5994 148.461L48.327 155.979C47.0995 158.47 45.6106 161.019 44.7637 163.668L43.6469 165.123L43.5039 165.027L51.3447 145.088Z" fill="#FEFEFE"/>
<path d="M233.07 96.3922L241.243 94.7891L230.504 102.419L208.416 117.597C208.129 117.792 207.52 118.094 207.447 118.426C206.508 118.096 205.607 117.586 204.754 117.078C204.941 116.727 205.75 116.323 206.093 116.086L209.281 113.8L218.478 107.326L225.624 101.963L230.538 98.4574C231.414 97.817 232.355 97.2187 233.07 96.3922Z" fill="#9D2700"/>
<path d="M35.0366 136.346C34.0452 135.994 32.9906 135.405 32.0859 134.863L56.9091 127.95C57.1296 127.397 56.873 126.219 56.8402 125.58L56.553 119.073L56.1895 102.723L58.189 105.242L59.4188 129.726L42.9652 134.203C40.3802 134.896 37.5134 135.36 35.0366 136.346Z" fill="#FEFEFE"/>
<path d="M212.628 54.2217L201.731 97.5518L201.676 97.0399C201.418 95.4646 201.743 93.5452 201.818 91.9216L202.802 77.3542C203.141 73.0426 203.388 68.4476 204.464 64.2576C205.82 62.2872 207.423 60.4348 208.92 58.569C210.095 57.1047 211.207 55.4566 212.628 54.2217Z" fill="#9D2700"/>
<path d="M168.875 105.695C168.828 104.886 168.664 103.479 168.831 102.715C168.931 102.258 169.991 101.134 170.301 100.738L179.619 89.6808L197.25 68.9195L214.05 48.8652L212.627 54.2222C211.206 55.4571 210.094 57.1053 208.919 58.5696C207.422 60.4353 205.819 62.2877 204.463 64.2581C202.435 66.51 179.094 93.5046 178.92 94.1922L172.169 102.062C171.109 103.278 170.059 104.602 168.875 105.695Z" fill="#FEFEFE"/>
<path d="M41.7305 192.921L100.012 123.68L99.9691 127.731L96.5991 131.574L76.1284 155.576L62.0043 171.988C57.8085 176.813 53.8593 182.179 49.2018 186.553C48.5891 187.058 41.8543 192.896 41.7305 192.921Z" fill="#FEFEFE"/>
<path d="M192.742 194.707C196.138 194.771 199.141 195.877 201.544 198.335C202.977 199.802 203.811 201.484 204.223 203.485C204.462 204.645 204.396 205.888 204.402 207.067L204.424 212.386L204.417 230.005C204.342 233.105 203.119 235.927 200.878 238.079C198.876 240.001 196.125 241.074 193.356 241.011C193.538 240.951 193.588 240.942 193.777 240.835C196.184 239.469 198.639 236.515 199.284 233.839L199.34 233.595C199.836 231.534 199.65 229.219 199.661 227.104L199.726 217.854L199.772 209.632C199.774 208.157 199.887 206.561 199.71 205.1C199.34 202.061 197.362 198.803 195.215 196.658C194.466 195.91 193.564 195.365 192.742 194.707Z" fill="#F10D87"/>
<path d="M70.0246 89.5113C68.7543 89.122 67.679 88.3782 66.8289 87.3587C65.7781 86.0986 65.0349 84.5452 64.7564 82.9255C64.3993 80.8504 64.548 78.5245 64.5381 76.4172L64.5202 65.8315L64.5655 58.1573C64.5757 56.6983 64.4851 55.1606 64.6472 53.7151C64.8585 51.8344 65.9929 49.7941 67.2574 48.4073C67.9282 47.6714 68.6254 47.0565 69.5115 46.5827C70.9092 45.835 72.498 45.4122 73.9559 44.7798L83.419 40.1347C87.2712 38.007 91.0007 35.5477 94.588 32.9997C101.685 27.9583 108.288 22.0703 114.017 15.512L117.753 10.9342C118.872 9.45359 119.964 7.61623 121.418 6.4694C122.354 5.73165 123.51 5.22365 124.695 5.07017C126.377 4.85222 128.222 4.96359 129.922 4.95082L140.349 4.90647L150.427 4.887C152.173 4.88573 154.046 4.74851 155.776 4.97539L156.046 5.01496C158.204 5.31683 159.919 6.48951 161.427 8.0017C160.32 7.71547 159.58 7.28884 158.4 7.20205C156.631 7.10855 154.793 7.28054 153.012 7.28693L139.867 7.31948L129.778 7.33798C128.134 7.34277 126.322 7.21673 124.695 7.44105C123.933 7.54571 123.184 8.13094 122.63 8.62841C120.919 10.1613 119.581 12.2572 118.166 14.0642L113.404 19.6452C104.866 28.9989 94.1426 36.8793 83.039 42.8984L76.3632 46.2805C74.3979 47.1941 71.8502 47.8437 70.1807 49.2174C68.9033 50.2682 68.066 51.8577 67.5558 53.4059C67.0114 55.0572 67.2785 57.4182 67.2645 59.1784L67.2198 70.1617L67.207 78.6187C67.2054 80.2467 67.1154 81.9331 67.2625 83.5538C67.3816 84.8678 67.7367 86.0616 68.357 87.2215C68.8108 88.07 69.3944 88.7516 70.1328 89.3617L70.0246 89.5113Z" fill="#FEFEFE"/>
<path d="M68.2969 94.1231C69.2315 94.3813 70.1247 94.6091 71.089 94.7294L71.394 94.7693C73.0374 94.963 74.7835 94.7377 76.3662 94.2731C78.6764 93.595 80.8938 92.3764 83.1023 91.414L92.9589 87.2827C95.2576 86.289 97.5366 85.1425 99.8868 84.2812L99.7681 103.425C96.6735 104.701 93.65 106.819 90.4118 107.618L90.155 107.68C89.1757 107.927 88.2133 107.995 87.2033 107.943C86.1634 107.889 85.2827 107.531 84.3863 107.02C80.8922 105.029 77.7855 101.967 74.6727 99.4291C72.5849 97.7273 70.1243 96.0942 68.2969 94.1231Z" fill="#1058BF"/>
<path d="M59.6445 192.763C61.1705 191.967 62.8722 191.42 64.4702 190.769L73.7786 187.026L99.8756 177.01L99.8871 189.176L83.6514 188.98C80.7384 188.979 77.6291 188.768 74.7442 189.092C73.8437 189.193 73.0048 189.44 72.1423 189.704C67.8153 191.029 64.0624 194.545 61.981 198.494C61.0001 200.355 60.3105 202.474 60.0131 204.557C59.6707 206.952 59.8373 209.545 59.8328 211.968L59.8283 223.87L59.8216 229.86C59.4764 227.987 59.6733 225.832 59.6717 223.913L59.7189 212.122L39.1602 220.404L54.6274 199.689L58.0921 195.049C58.5587 194.427 59.2661 193.719 59.5526 193.011L59.6445 192.763Z" fill="#1058BF"/>
<path d="M95.8682 114.758L99.8834 113.366C99.8761 113.935 100.023 115.108 99.8544 115.603C99.7631 115.872 99.4089 116.29 99.2421 116.533C98.5873 117.485 97.8476 118.39 97.1233 119.292L85.4057 133.128L75.0456 145.37L69.8421 151.662C68.9991 152.675 68.1774 153.789 67.2523 154.726C66.7408 155.243 65.8534 155.554 65.1935 155.872L61.6062 157.674L51.3294 162.918C48.449 164.407 45.6141 165.956 42.6408 167.256C42.5782 166.78 43.2588 165.485 43.503 165.026L43.6459 165.123L44.7627 163.668C45.7628 163.092 46.6365 161.942 47.4454 161.11L51.8492 156.696L72.9016 136.042L79.4042 129.932L86.1199 123.432C88.7789 120.966 91.7235 118.584 94.171 115.924C94.6803 115.648 95.6267 115.292 95.8682 114.758Z" fill="#01B5EB"/>
<path d="M99.971 127.731L99.8979 171.548L39.8086 195.247C40.232 194.725 41.2069 193.188 41.7324 192.921C41.8562 192.896 48.5911 187.058 49.2037 186.553C50.9412 186.218 52.7358 184.752 54.2988 183.895L61.2014 180.234L78.9397 171.401C81.5741 170.083 84.2817 168.905 86.7984 167.364C89.355 165.799 91.6729 163.772 93.6902 161.56C94.8256 160.316 96.213 158.747 96.6735 157.092C96.9354 156.15 96.8454 155.067 96.8461 154.095L96.8273 148.916L96.601 131.575L99.971 127.731Z" fill="#85007D"/>
<path d="M96.6004 131.574L96.8266 148.915L96.8455 154.094C96.8448 155.066 96.9348 156.15 96.6728 157.091C96.2124 158.747 94.825 160.316 93.6896 161.56C91.6723 163.771 89.3544 165.799 86.7978 167.364C84.2811 168.905 81.5735 170.082 78.9391 171.401L61.2008 180.233L54.2981 183.895C52.7352 184.752 50.9406 186.217 49.2031 186.552C53.8607 182.178 57.8098 176.812 62.0056 171.988L76.1297 155.576L96.6004 131.574Z" fill="#F10D87"/>
<path d="M168.875 105.695C170.059 104.602 171.109 103.278 172.169 102.063L178.92 94.1924L178.797 97.6099C177.516 99.2335 176.066 101.143 174.463 102.447C173.857 102.707 173.355 103.103 172.825 103.489C172.566 104.237 172.73 105.54 172.73 106.364L172.718 113.491L172.649 153.588L185.284 147.973L217.829 133.85L234.824 126.363C237.197 125.318 239.864 124.433 242.109 123.147C242.617 123.019 243.842 123.356 244.413 123.431L253.124 124.599C252.842 125.016 175.949 158.68 168.92 161.583L168.875 105.695Z" fill="#9D2700"/>
<path d="M58.1875 105.242L72.6509 120.587L73.7256 121.763L95.867 114.758C95.6255 115.291 94.679 115.648 94.1698 115.924C91.7223 118.584 88.7777 120.966 86.1186 123.432L79.4029 129.932L72.9004 136.042L51.848 156.696L47.4442 161.11C46.6353 161.942 45.7616 163.092 44.7615 163.667C45.6084 161.018 47.0973 158.47 48.3249 155.979L51.5972 148.46C51.8809 147.727 52.6445 146.247 52.46 145.495L51.3426 145.087C49.1596 143.537 46.3407 142.356 43.952 141.128L35.0352 136.346C37.512 135.36 40.3787 134.896 42.9637 134.203L59.4173 129.726L58.1875 105.242Z" fill="#2CF4FB"/>
<path d="M95.868 114.758C95.6265 115.292 94.68 115.648 94.1708 115.924L93.9879 115.965C91.1831 116.615 88.4956 117.853 85.7769 118.796L75.0582 122.199C74.3297 122.433 72.656 123.245 71.9648 123.174C72.1394 122.383 72.2807 121.578 72.5686 120.82L72.6519 120.587L73.7266 121.763L95.868 114.758Z" fill="#FEFEFE"/>
<path d="M168.691 13.2207C169.803 13.2497 170.919 13.371 172.001 13.625L172.251 13.6818C175.139 14.364 178.108 16.7158 179.631 19.2306C180.377 20.4613 181.006 22.0533 181.213 23.4886C181.455 25.1638 181.384 26.9128 181.383 28.6024L181.372 36.263L181.291 66.8244L181.261 75.1847C181.252 76.8536 181.146 78.5869 181.325 80.2466C180.95 80.887 180.34 81.4722 179.857 82.0386L176.969 85.4245L168.924 95.3507L168.691 13.2207Z" fill="#1058BF"/>
<path d="M204.462 64.2578C203.386 68.4479 203.139 73.0429 202.8 77.3545L201.817 91.9219C201.741 93.5454 201.417 95.4648 201.674 97.0402L201.73 97.552C201.342 98.7693 201.198 100.173 200.962 101.434L233.07 96.3924C232.355 97.2189 231.414 97.8172 230.538 98.4576L225.624 101.963L218.478 107.326L209.281 113.8L206.093 116.086C205.75 116.323 204.941 116.727 204.754 117.078C205.607 117.586 206.508 118.096 207.447 118.426L242.108 123.146C239.864 124.432 237.197 125.317 234.823 126.363L217.828 133.849L185.283 147.973L172.648 153.588L172.717 113.491L172.729 106.363C172.729 105.54 172.565 104.237 172.825 103.488C173.354 103.103 173.857 102.706 174.462 102.447C176.065 101.142 177.515 99.233 178.797 97.6094L178.919 94.1919C179.094 93.5043 202.435 66.5097 204.462 64.2578Z" fill="#FE6500"/>
<path d="M178.799 97.6096L184.621 90.7982L192.022 82.2586C193.062 81.0792 193.996 79.6771 195.119 78.5899C195.51 78.2118 195.732 78.0832 196.254 77.9785C196.797 78.1502 197.052 78.2919 197.474 78.6738C197.659 79.14 197.761 79.2456 197.579 79.7348C197.347 80.3571 196.736 80.8832 196.28 81.3475L194.125 83.6355L181.622 98.1387L177.954 102.437C177.499 102.965 176.927 103.816 176.311 104.127C175.953 104.308 175.704 104.171 175.389 103.993C174.81 103.664 174.64 103.046 174.465 102.447C176.068 101.143 177.518 99.2332 178.799 97.6096Z" fill="#FEFEFE"/>
<path d="M190.775 113.587C194.405 113.263 197.543 113.862 200.64 115.833C203.475 117.637 205.544 120.779 206.217 124.059C207.048 128.109 206.387 132.096 204.054 135.534C201.73 138.961 198.206 140.821 194.214 141.584C190.605 141.915 187.415 141.308 184.401 139.191C181.165 136.919 179.169 133.635 178.531 129.747C177.923 126.04 178.877 122.141 181.097 119.115C183.453 115.903 186.897 114.186 190.775 113.587Z" fill="#000055"/>
<path d="M190.85 118.194C192.963 118 194.922 118.074 196.832 119.108C198.985 120.274 200.867 122.404 201.543 124.786C202.254 127.293 201.903 130.29 200.575 132.526C199.172 134.889 196.898 136.202 194.296 136.862C192.217 137.257 189.889 136.988 188.038 135.941C185.559 134.541 183.984 132.394 183.248 129.653C182.612 127.281 183.026 124.63 184.284 122.531C185.685 120.194 188.277 118.816 190.85 118.194Z" fill="#2CF4FB"/>
<path d="M190.843 119.937C191.381 119.912 191.909 119.888 192.423 120.077C193.13 120.337 193.728 120.905 194.014 121.605C194.318 122.349 194.353 123.289 194.006 124.023C193.628 124.826 192.972 125.074 192.182 125.36C191.666 125.368 191.011 125.429 190.516 125.276C189.896 125.084 189.196 124.402 188.919 123.826C188.625 123.21 188.625 122.094 188.895 121.481C189.275 120.617 190.013 120.267 190.843 119.937Z" fill="#FEFEFE"/>
<path d="M195.142 120.316L195.4 120.312C196.03 120.871 196.563 121.411 197.078 122.082C198.159 123.49 198.652 125.322 198.387 127.079L198.346 127.336C198.214 128.206 197.962 128.991 197.537 129.762C196.762 131.171 195.235 132.45 193.669 132.843L193.459 132.893L192.789 133.051C190.809 133.408 189.312 132.915 187.739 131.779C187.031 131.079 186.605 130.355 186.145 129.484C187.327 130.471 188.318 131.104 189.873 131.319C191.45 131.537 193.203 131.061 194.47 130.085L194.65 129.941L194.844 129.791C195.938 128.919 196.907 127.274 197.042 125.879C197.269 123.53 196.558 122.082 195.142 120.316Z" fill="#01B5EB"/>
<path d="M70.0255 89.5109L70.1337 89.3612C69.3953 88.7511 68.8117 88.0695 68.3579 87.2211C67.7376 86.0611 67.3825 84.8674 67.2634 83.5534C67.1163 81.9327 67.2063 80.2463 67.2079 78.6182L67.2207 70.1612L67.2653 59.1779C67.2794 57.4178 67.0123 55.0568 67.5567 53.4055C68.0669 51.8572 68.9042 50.2678 70.1816 49.217C71.8511 47.8433 74.3987 47.1936 76.3641 46.2801L83.0399 42.8979C94.1435 36.8788 104.867 28.9984 113.404 19.6448L118.167 14.0638C119.582 12.2567 120.919 10.1609 122.63 8.62796C123.185 8.13049 123.934 7.54527 124.696 7.4406C126.323 7.21628 128.135 7.34232 129.779 7.33754L139.868 7.31903L153.013 7.28648C154.794 7.2801 156.631 7.10811 158.401 7.2016C159.581 7.2884 160.321 7.71503 161.428 8.00126C162.706 9.32997 163.645 11.0263 163.885 12.8761C164.11 14.6171 163.985 16.5253 163.987 18.2819L163.993 27.7907L164.013 60.1097L164.062 149.38L164.04 179.074L164.054 194.606L183.755 194.613L189.623 194.627C190.628 194.631 191.755 194.547 192.743 194.707C193.566 195.365 194.467 195.91 195.216 196.658C197.363 198.802 199.341 202.061 199.711 205.099C199.888 206.561 199.776 208.157 199.773 209.632L199.727 217.854L199.662 227.104C199.651 229.218 199.837 231.533 199.342 233.595L199.285 233.839C198.64 236.515 196.185 239.469 193.778 240.835C193.589 240.942 193.539 240.951 193.357 241.011L110.959 241.03L86.9625 241.056L79.9051 241.121C78.4963 241.137 77.0348 241.238 75.6346 241.069C72.5876 240.701 69.9387 239.243 68.036 236.853C66.4577 235.25 65.5001 232.942 65.0502 230.771C64.3443 227.364 64.6472 223.586 64.6437 220.113L64.6535 206.551C64.7088 203.189 66.1188 199.765 68.5727 197.451C70.3545 195.77 72.4957 194.489 74.9122 193.99C76.052 193.754 77.2818 193.799 78.4411 193.798L83.5364 193.798L101.713 193.934C102.585 193.959 103.369 193.752 104.002 193.11C104.442 192.664 104.645 192.224 104.683 191.599C104.897 188.008 104.698 184.285 104.696 180.678L104.686 159.014L104.657 108.428L104.626 76.3332L104.345 76.4723L99.2733 79.2022L81.8825 86.8005C79.5308 87.8037 76.9758 89.2547 74.4875 89.8262C73.2085 90.1197 71.4902 90.0428 70.2511 89.6203C70.0692 89.5581 70.1238 89.5932 70.0255 89.5109Z" fill="url(#paint0_linear_2778_20533)"/>
<path d="M104.626 76.3337L104.747 76.2396L107.379 73.748L107.678 196.294L84.5192 196.325L78.3673 196.33C77.2741 196.331 76.0443 196.217 74.9779 196.485C73.1271 196.951 71.4193 198.148 70.0973 199.489C68.6557 200.951 67.6202 202.785 67.1744 204.797C66.5241 207.734 66.8722 211.301 66.8694 214.324L66.8977 229.367C66.9201 230.888 67.0002 232.454 67.3317 233.942C67.5481 234.912 68.014 235.857 68.036 236.853C66.4577 235.251 65.5001 232.943 65.0502 230.771C64.3443 227.364 64.6472 223.587 64.6437 220.114L64.6535 206.552C64.7088 203.189 66.1188 199.766 68.5727 197.451C70.3545 195.77 72.4957 194.49 74.9122 193.991C76.052 193.755 77.2818 193.8 78.4411 193.798L83.5364 193.798L101.713 193.934C102.585 193.96 103.369 193.752 104.002 193.111C104.442 192.664 104.645 192.225 104.683 191.599C104.897 188.008 104.698 184.286 104.696 180.679L104.686 159.014L104.657 108.428L104.626 76.3337Z" fill="#FEFEFE"/>
<path d="M158.4 7.20215C159.58 7.28894 160.32 7.71557 161.427 8.0018C162.705 9.33052 163.644 11.0268 163.884 12.8766C164.109 14.6176 163.984 16.5258 163.986 18.2824L163.992 27.7912L164.012 60.1102L164.061 149.381L164.039 179.074L164.053 194.606C163.043 194.451 162.141 193.852 161.186 193.487L161.177 177.349L161.286 143.418L161.182 113.955L161.287 50.5743L161.235 24.0606L161.171 16.7332C161.153 15.2051 161.266 13.4134 160.782 11.9516C160.381 10.7432 159.916 9.45784 159.07 8.47279C158.723 8.06945 158.29 7.75323 157.934 7.35595L158.4 7.20215Z" fill="#F10D87"/>
<path d="M126.12 13.3403L156.695 13.332L156.628 197.616C156.672 198.942 157.229 200.309 158.548 200.84C159.346 201.162 160.428 201.087 161.273 201.088L166.053 201.088L184.845 201.083C187.629 201.086 190.681 200.834 193.439 201.126C193.836 201.169 194.138 201.346 194.418 201.617C194.863 202.049 194.835 202.567 194.845 203.147L194.912 222.296L194.926 228.537C194.928 229.762 195.011 231.041 194.875 232.256C194.81 232.834 194.639 233.299 194.209 233.707C193.853 234.045 193.464 234.16 192.982 234.183L181.027 234.194L159.58 234.17L85.9649 234.262L80.0591 234.277C78.8973 234.276 77.5928 234.382 76.4623 234.082C75.7906 233.904 75.1626 233.524 74.6648 233.041C73.9328 232.332 73.6 231.404 73.5866 230.401L73.5821 213.591L73.5834 208.235C73.5853 207.257 73.5023 206.186 73.6545 205.224C73.7755 204.458 74.153 203.625 74.72 203.085C75.3237 202.509 76.1515 202.043 76.9926 201.962C78.2919 201.836 79.7164 201.952 81.0292 201.962L88.7095 202.023L111.949 201.971L112.15 63.8287C111.866 63.8127 111.443 64.189 111.198 64.3469L107.516 66.833L103.935 69.0022L93.7499 74.2609C87.2704 77.2125 80.5926 79.5802 73.8804 81.9326L73.8862 58.7975L73.8875 54.5095C73.8875 54.1952 73.7921 53.4932 73.8878 53.2456C73.9009 53.2111 77.3816 51.7889 77.7083 51.6453L85.5792 48.0159C97.3318 41.8902 107.87 33.8228 116.9 24.1382L126.12 13.3403Z" fill="#000055"/>
<path d="M84.7602 53.8105C85.0114 57.1914 84.8684 60.6552 84.8684 64.0459C84.8681 66.9595 85.0634 70.0286 84.7175 72.9209L78.7411 75.0515L78.6875 56.5615L84.7602 53.8105Z" fill="#FEFEFE"/>
<path d="M179.725 206.062L189.958 206.072L189.98 229.076L131.047 229.06L115.557 229.065L111.422 229.068C110.76 229.069 109.986 229.151 109.336 229.034C108.851 228.865 108.361 228.842 107.851 228.846L107.068 228.85C106.579 228.847 106.012 228.962 105.551 228.809C106.081 228.817 106.655 228.873 107.171 228.741C107.87 228.563 108.597 228.738 109.3 228.564C109.655 228.476 109.97 228.465 110.326 228.41L122.905 226.869C138.598 224.492 154.024 220.557 168.261 213.391C172.223 211.396 176.627 209.273 179.725 206.062Z" fill="#F58C00"/>
<path d="M139.851 17.996L152.032 17.9766L151.975 86.0835L151.884 142.111L151.923 181.156L151.908 192.544C151.904 194.581 151.776 196.715 151.966 198.74C152.139 200.601 152.71 202.237 154.041 203.596L155.021 204.54C153.702 205.245 152.469 206.252 151.233 207.098C147.955 209.341 144.721 211.746 141.312 213.779L141.249 173.619C140.977 173.413 140.717 173.199 140.496 172.937C139.598 171.878 139.268 170.501 139.48 169.137C139.661 167.975 140.418 167.192 141.331 166.532C141.042 164.608 141.217 162.416 141.216 160.467C141.215 157.989 141.038 155.386 141.324 152.935C140.414 151.912 139.824 150.776 139.788 149.383C139.753 148.03 140.357 147.114 141.239 146.156L141.079 138.629L145.757 134.004C146.984 132.822 148.98 131.32 149.324 129.569C149.558 128.378 149.058 127.08 148.308 126.161C147.63 125.331 146.447 124.859 145.395 124.788C143.677 124.672 142.576 125.508 141.333 126.553C140.933 124.815 141.217 122.476 141.189 120.668L141.205 98.4191L141.256 18.2047C140.814 18.026 140.322 18.0311 139.851 17.996Z" fill="#F58C00"/>
<path d="M141.331 166.533C142.53 166.101 143.684 165.777 144.908 166.363C146.137 166.952 146.826 167.958 147.191 169.241C147.464 170.206 147.188 171.327 146.681 172.168C146.161 173.029 145.296 173.738 144.302 173.958C143.291 174.183 142.198 174.002 141.249 173.62C140.977 173.413 140.717 173.199 140.496 172.938C139.598 171.878 139.268 170.502 139.48 169.138C139.661 167.976 140.418 167.192 141.331 166.533Z" fill="#85007D"/>
<path d="M141.238 146.156C142.424 145.546 143.695 145.122 145.037 145.544C146.122 145.885 147.003 146.618 147.475 147.66C148.009 148.842 147.921 150.201 147.406 151.376C146.983 152.34 146.199 153.076 145.198 153.423C144.013 153.834 142.652 153.634 141.555 153.062L141.323 152.935C140.413 151.912 139.823 150.777 139.787 149.384C139.752 148.03 140.356 147.114 141.238 146.156Z" fill="#AD0081"/>
<path d="M116.974 161.745L141.077 138.629L141.237 146.156C140.355 147.114 139.75 148.03 139.785 149.383C139.821 150.777 140.411 151.912 141.322 152.935C141.036 155.386 141.213 157.989 141.214 160.467C141.215 162.416 141.04 164.608 141.329 166.532C140.415 167.192 139.658 167.975 139.477 169.137C139.266 170.502 139.596 171.878 140.493 172.938C140.715 173.199 140.975 173.413 141.246 173.619L141.309 213.779C144.719 211.746 147.953 209.341 151.23 207.098C152.467 206.252 153.699 205.245 155.019 204.54C156.037 205.167 157.063 205.76 158.254 205.989C160.176 206.359 162.617 206.064 164.602 206.064L179.723 206.061C176.624 209.273 172.22 211.395 168.258 213.39C154.022 220.557 138.595 224.492 122.902 226.868L110.324 228.41C109.967 228.464 109.652 228.475 109.297 228.563C108.594 228.738 107.867 228.562 107.168 228.741C106.653 228.873 106.079 228.816 105.548 228.808C106.009 228.961 106.576 228.846 107.065 228.849L107.848 228.845C108.358 228.842 108.848 228.865 109.333 229.034L78.4755 229.176L78.4727 206.827C78.9472 206.553 80.6802 206.776 81.3496 206.785L104.997 206.872L111.109 206.865C112.056 206.863 113.185 206.973 114.112 206.802C114.86 206.663 115.549 206.231 116.06 205.674C116.271 205.444 116.607 205.054 116.733 204.768C116.993 204.182 116.835 202.868 116.835 202.218L116.867 195.031L116.849 187.202L116.974 161.745Z" fill="#FEDC04"/>
<path d="M120.556 166.535C121.266 166.495 121.918 166.607 122.571 166.893C123.448 167.278 124.17 168.074 124.503 168.967C124.834 169.854 124.813 170.917 124.389 171.773C123.789 172.984 122.828 173.492 121.62 173.929C120.886 174.01 120.054 174.037 119.364 173.729C118.388 173.294 117.823 172.358 117.517 171.373C117.234 170.465 117.276 169.269 117.745 168.425C118.387 167.273 119.376 166.911 120.556 166.535Z" fill="#AF5200"/>
<path d="M116.848 187.202C118.373 186.607 119.712 186.162 121.307 186.862C122.412 187.348 123.237 188.275 123.656 189.4C124.159 190.752 124.05 192.197 123.383 193.474C122.797 194.596 121.717 195.441 120.493 195.759C119.173 196.103 118.002 195.677 116.866 195.031L116.848 187.202Z" fill="#AD0081"/>
<path d="M130.238 175.318C131.25 175.233 132.323 175.331 133.245 175.79C134.416 176.373 135.189 177.313 135.597 178.55C135.962 179.657 135.88 180.957 135.349 181.993C134.696 183.268 133.619 183.971 132.284 184.396C131.467 184.492 130.493 184.468 129.718 184.169C128.498 183.698 127.516 182.806 127.026 181.583C126.519 180.322 126.583 178.922 127.165 177.697C127.8 176.363 128.917 175.77 130.238 175.318Z" fill="#AD0081"/>
<path d="M131.266 155.364C132.32 155.292 133.453 155.465 134.375 156.007C135.457 156.643 136.263 157.77 136.539 158.994C136.81 160.191 136.482 161.768 135.821 162.795C135.061 163.976 134.034 164.422 132.719 164.721C131.664 164.756 130.64 164.587 129.712 164.066C128.564 163.422 127.816 162.425 127.474 161.161C127.154 159.979 127.356 158.605 127.982 157.554C128.759 156.251 129.856 155.721 131.266 155.364Z" fill="#AD0081"/>
<path d="M82.3577 209.503C82.8418 209.407 83.3986 209.405 83.8689 209.562C84.4573 209.759 85.1064 210.188 85.3585 210.779C85.7806 211.771 85.6951 223.51 85.323 224.409C84.9197 225.383 84.4031 225.741 83.4586 226.172C83.0067 226.179 82.5673 226.177 82.1267 226.059C81.4843 225.887 81.0717 225.338 80.7775 224.774C80.5439 224.325 80.3844 223.845 80.3069 223.346C80.1342 222.232 80.258 220.943 80.2552 219.809L80.2583 214.71C80.2631 213.509 80.1885 212.24 80.6371 211.098C80.9651 210.264 81.5606 209.838 82.3577 209.503Z" fill="#FEFEFE"/>
<path d="M84.7576 53.811L95.1113 48.0274C104.051 42.5245 112.346 35.9298 119.582 28.3152L128.485 17.9717L139.847 17.9966C140.319 18.0317 140.81 18.0266 141.253 18.2053L141.202 98.4197L141.185 120.669C141.213 122.476 140.929 124.816 141.33 126.553C142.572 125.509 143.673 124.673 145.391 124.789C146.443 124.859 147.626 125.332 148.304 126.162C149.055 127.081 149.554 128.378 149.32 129.57C148.976 131.321 146.98 132.822 145.753 134.005L141.076 138.629L116.973 161.746L116.99 150.891L116.996 143.042C116.846 140.954 116.951 138.802 116.949 136.704C116.948 135.267 116.792 133.647 117.068 132.238L116.95 53.3164C115.142 54.9112 113.471 56.5858 111.574 58.0923C103.399 64.5849 94.2131 68.7929 84.7148 72.9213C85.0607 70.029 84.8655 66.96 84.8658 64.0463C84.8658 60.6556 85.0087 57.1918 84.7576 53.811Z" fill="#FEDC04"/>
<path d="M117.07 132.238C118.22 130.94 119.531 129.437 121.395 129.306C122.45 129.232 123.5 129.654 124.276 130.368C125.056 131.085 125.425 132.064 125.438 133.111C125.461 135.107 123.628 136.608 122.332 137.926L119.357 140.898L116.998 143.042C116.848 140.954 116.953 138.802 116.951 136.704C116.95 135.267 116.794 133.647 117.07 132.238Z" fill="#1058BF"/>
<path d="M127.81 38.7368L128.288 38.7014C128.989 38.6628 129.553 38.7502 130.072 39.2658C130.41 39.6012 130.604 40.0176 130.709 40.4771C131.084 42.1304 131.063 44 131.164 45.6905C131.308 48.0988 131.568 50.5561 131.477 52.9637C131.09 53.6191 130.619 54.3562 129.857 54.6096C129.321 54.788 128.534 54.6769 128.037 54.421C127.285 54.0339 127.038 53.3096 126.807 52.5501L126.377 44.7766C126.02 45.2304 125.652 45.7065 125.197 46.0667C124.889 46.3109 124.452 46.4998 124.058 46.4458C123.488 46.3673 123.005 46.0281 122.704 45.5415C122.429 45.0957 122.326 44.4907 122.485 43.9869C122.776 43.066 123.715 42.506 124.377 41.8607C125.512 40.7557 126.353 39.4599 127.81 38.7368Z" fill="#FEFEFE"/>
<path d="M123.11 28.416C123.516 28.3436 123.985 28.3905 124.377 28.5169C125.057 28.7361 125.736 29.3385 126.041 29.9818C126.329 30.5865 126.285 31.3249 126.043 31.9369C124.999 34.5774 113.852 45.2337 110.878 46.6256C110.343 46.6588 109.746 46.6026 109.261 46.3547C108.655 46.0451 108.225 45.4915 108.015 44.8492C107.789 44.1583 107.81 43.3887 108.163 42.7457C109.071 41.0947 111.426 39.7404 112.847 38.4829C114.964 36.6091 117.092 34.5787 118.98 32.4759C119.953 31.3919 120.79 30.113 121.848 29.1168C122.24 28.7479 122.603 28.5797 123.11 28.416Z" fill="#FEFEFE"/>
<path d="M130.083 107.025C132.087 106.819 134.199 106.962 135.993 107.951C138.039 109.078 139.737 111.178 140.332 113.452C140.901 115.629 140.56 118.359 139.452 120.316C138.072 122.751 135.992 123.91 133.358 124.623C131.239 124.941 129.026 124.619 127.169 123.527C125.096 122.308 123.456 120.409 122.897 118.032C122.328 115.616 122.719 112.928 124.081 110.837C125.484 108.684 127.628 107.565 130.083 107.025Z" fill="#AD0081"/>
<path d="M141.33 126.553C142.572 125.509 143.673 124.673 145.391 124.788C146.443 124.859 147.626 125.331 148.304 126.161C149.055 127.08 149.554 128.378 149.32 129.569C148.976 131.32 146.98 132.822 145.753 134.004L141.076 138.629L116.973 161.745L116.99 150.89C119.991 148.444 122.661 145.345 125.417 142.615L141.33 126.553Z" fill="#1058BF"/>
<defs>
<filter id="filter0_f_2778_20533" x="0.171677" y="159.867" width="272.188" height="150.614" filterUnits="userSpaceOnUse" color-interpolation-filters="sRGB">
<feFlood flood-opacity="0" result="BackgroundImageFix"/>
<feBlend mode="normal" in="SourceGraphic" in2="BackgroundImageFix" result="shape"/>
<feGaussianBlur stdDeviation="24.5704" result="effect1_foregroundBlur_2778_20533"/>
</filter>
<linearGradient id="paint0_linear_2778_20533" x1="200.639" y1="125.228" x2="66.6243" y2="123.524" gradientUnits="userSpaceOnUse">
<stop stop-color="#FE2D9F"/>
<stop offset="1" stop-color="#FF78C4"/>
</linearGradient>
</defs>
</svg>
