<svg width="210" height="134" viewBox="0 0 210 134" fill="none" xmlns="http://www.w3.org/2000/svg">
<g clip-path="url(#clip0_441_6462)">
<g clip-path="url(#clip1_441_6462)">
<rect width="210" height="134" fill="#F4F4F5"/>
<circle cx="225" cy="130" r="62" fill="#D4D4D8"/>
<path d="M1.5 -82.5L18.3385 -30.6763H72.8292L28.7453 1.35255L45.5839 53.1763L1.5 21.1475L-42.5839 53.1763L-25.7453 1.35255L-69.8292 -30.6763H-15.3386L1.5 -82.5Z" fill="#D4D4D8"/>
<g clip-path="url(#clip2_441_6462)">
<g clip-path="url(#clip3_441_6462)">
<path d="M148.803 98.6354C146.903 101.973 143.224 104.097 139.527 104C135.733 103.897 132.338 101.682 128.852 100.094C124.635 98.1835 120.058 97.2022 115.468 97.1441C110.878 97.2022 106.302 98.1835 102.084 100.094C99.1891 101.411 96.3583 103.154 93.3092 103.774C93.2964 103.774 93.2899 103.774 93.2771 103.781C93.2065 103.793 93.1359 103.806 93.0653 103.819C92.9626 103.839 92.8599 103.858 92.7507 103.877C92.5582 103.91 92.372 103.929 92.1794 103.948C92.1409 103.948 92.1088 103.955 92.0703 103.961C91.897 103.974 91.7301 103.987 91.5568 103.994C91.5054 103.994 91.4541 104 91.4027 104C91.3578 104 91.3193 104 91.2743 104C91.1716 104 91.0625 104 90.9598 104C90.7929 104 90.626 103.987 90.4591 103.974C90.4398 103.974 90.4206 103.974 90.4013 103.974C90.3821 103.974 90.3692 103.974 90.35 103.968C87.0248 103.684 83.8474 101.663 82.127 98.6418C81.2219 97.0473 80.7469 95.2074 80.6891 93.3546C80.3874 90.6755 80.58 87.8609 80.4966 85.143C80.3554 80.4433 79.2898 75.7823 77.4346 71.5087C75.5089 67.2673 72.8064 63.4197 69.4749 60.2758C66.5028 57.4741 62.9402 55.0725 61.2327 51.2831C59.6536 47.7647 60.0131 43.362 62.1378 40.1793C62.6963 39.353 63.3703 38.6106 64.1213 37.9844C66.2589 36.2026 69.0512 35.2859 71.773 35.5764C75.4511 35.9767 78.834 38.5848 80.3104 42.1548C81.8253 45.8151 81.3503 49.9919 81.4594 53.988C81.6007 58.8168 82.6855 63.594 84.5727 68.0032C89.9263 80.495 102.482 88.9906 115.468 88.8679C119.936 88.8228 124.391 87.8738 128.505 86.0275C132.177 84.3748 135.746 81.9991 139.732 81.9668C143.43 81.9281 147.07 84.1359 148.912 87.5123C149.387 88.3902 149.74 89.3521 149.965 90.3334C150.594 93.1222 150.202 96.1758 148.809 98.6483L148.803 98.6354ZM115.468 32C105.031 32 96.5701 40.9024 96.5701 51.8899C96.5701 62.8774 105.031 71.7798 115.468 71.7798C125.906 71.7798 134.366 62.8774 134.366 51.8899C134.366 40.9024 125.906 32 115.468 32Z" fill="#71717A"/>
</g>
</g>
</g>
</g>
<defs>
<clipPath id="clip0_441_6462">
<rect width="210" height="134" rx="8" fill="white"/>
</clipPath>
<clipPath id="clip1_441_6462">
<rect width="210" height="134" rx="12" fill="white"/>
</clipPath>
<clipPath id="clip2_441_6462">
<rect width="90.5119" height="72.0032" fill="white" transform="translate(60 32)"/>
</clipPath>
<clipPath id="clip3_441_6462">
<rect width="90" height="72.0032" fill="white" transform="translate(60.256 32)"/>
</clipPath>
</defs>
</svg>
