<svg width="220" height="194" viewBox="0 0 220 194" fill="none" xmlns="http://www.w3.org/2000/svg">
<path d="M213.63 139.218C210.032 131.034 203.122 124.205 194.822 120.844C186.176 117.342 176.249 118.617 167.143 117.444C159.234 116.426 153.527 112.895 148.805 106.617C144.28 100.602 140.222 93.9411 132.824 91.1588C126.978 88.9605 120.332 89.5697 114.522 91.8606C103.816 96.0819 95.7296 105.058 88.9194 113.999C82.7016 122.163 77.6301 131.103 66.1292 131.394C54.621 131.686 43.665 125.122 32.0777 126.861C16.7632 129.16 4.00955 141.909 1.33687 157.086C-1.16786 171.311 5.1174 185.107 15.9152 193.213H201.511C215.117 178.779 222.257 158.84 213.63 139.218Z" fill="#FDE5D7"/>
<path d="M45.8544 193.212H46.3649C49.9106 189.315 52.6881 184.586 54.4537 179.337C57.3115 170.841 57.191 161.924 54.1145 154.23C52.5597 150.341 50.3146 146.718 48.1434 143.213C45.9413 139.658 43.6645 135.983 42.1191 132.045C41.4801 130.416 41.0081 128.667 40.7241 126.884C40.5962 126.867 40.4681 126.853 40.34 126.838C40.6253 128.685 41.1106 130.496 41.7717 132.181C43.3292 136.151 45.6152 139.841 47.826 143.409C49.9887 146.9 52.2252 150.51 53.7678 154.368C56.8114 161.981 56.9293 170.806 54.0998 179.218C52.3125 184.532 49.4768 189.305 45.8544 193.212Z" fill="white"/>
<path d="M200.615 177.025C204.439 177.84 208.124 178.571 211.688 179.031C211.749 178.913 211.808 178.795 211.868 178.676C208.275 178.22 204.555 177.483 200.693 176.66C194.811 175.407 188.445 174.051 182.131 174.051C178.221 174.051 174.332 174.571 170.59 175.957C169.173 176.482 167.807 177.149 166.507 177.942C163.129 176.503 159.733 174.931 156.368 173.205C158.809 171.366 161.276 169.565 163.769 167.824C182.278 154.9 199.359 147.573 215.861 145.494C215.828 145.373 215.793 145.252 215.759 145.131C199.213 147.228 182.094 154.573 163.556 167.518C161.01 169.296 158.491 171.137 156 173.016C152.216 171.061 148.478 168.913 144.86 166.542C138.298 162.243 130.493 156.105 123.676 147.951C150.092 144.987 176.987 141.253 198.949 126.575C199.783 126.017 200.707 125.36 201.664 124.614C201.558 124.539 201.451 124.465 201.345 124.391C200.427 125.101 199.543 125.729 198.742 126.264C176.785 140.939 149.841 144.644 123.39 147.607C118.574 141.781 114.27 134.937 111.279 127.014C106.62 114.673 106.866 102.562 111.954 93.7869C112.175 93.4058 112.408 93.0306 112.648 92.6592C112.436 92.7567 112.225 92.8579 112.015 92.9591C111.884 93.1712 111.755 93.3844 111.631 93.5995C106.486 102.473 106.231 114.7 110.929 127.146C113.904 135.026 118.17 141.843 122.947 147.656C121.416 147.828 119.885 147.997 118.358 148.165C112.85 148.773 107.154 149.402 101.624 150.114C99.6052 150.374 97.5523 150.677 95.5096 151.057C91.1306 141.815 86.3206 132.798 80.1027 125.066C80.0139 125.155 79.9232 125.241 79.8335 125.328C85.9982 133.002 90.7783 141.951 95.1305 151.128C86.221 152.827 77.5696 156.021 72.9504 163.456C68.6363 170.399 68.6402 179.997 72.962 191.983C73.1114 192.397 73.2654 192.806 73.4215 193.211H73.8213C73.6502 192.768 73.48 192.319 73.3131 191.856C69.032 179.983 69.0168 170.494 73.2676 163.653C77.832 156.307 86.4359 153.155 95.2957 151.476C96.8416 154.746 98.3349 158.043 99.8191 161.32L99.9806 161.677C105.135 173.055 110.466 184.036 117.446 193.212H117.912C110.868 184.019 105.507 172.972 100.321 161.523L100.159 161.166C98.6878 157.917 97.2069 154.648 95.6751 151.406C97.6783 151.036 99.6916 150.739 101.672 150.484C107.199 149.773 112.893 149.144 118.399 148.536C120.007 148.359 121.619 148.181 123.232 148.001C130.114 156.283 138.019 162.505 144.656 166.854C148.234 169.199 151.93 171.327 155.67 173.265C149.321 178.067 143.145 183.119 137.116 188.053C135.028 189.761 132.916 191.486 130.788 193.212H131.38C133.387 191.583 135.381 189.954 137.352 188.341C143.424 183.374 149.644 178.286 156.038 173.455C159.383 175.176 162.76 176.746 166.12 178.183C161.523 181.107 157.777 185.634 155.512 191.131C155.228 191.819 154.981 192.514 154.751 193.212H155.144C155.361 192.562 155.593 191.915 155.857 191.273C158.128 185.761 161.906 181.238 166.538 178.361C175.931 182.352 185.162 185.314 193.094 187.661L193.393 187.749C196.735 188.737 200.154 189.75 203.178 191.377C203.263 191.281 203.348 191.185 203.432 191.088C200.359 189.42 196.889 188.394 193.499 187.391L193.2 187.303C185.349 184.98 176.223 182.054 166.931 178.123C168.142 177.402 169.409 176.793 170.721 176.307C180.403 172.719 191.141 175.007 200.615 177.025Z" fill="#FEF3E7"/>
<path d="M16.8507 152.852C18.4991 159.599 17.7638 166.886 14.8328 172.844C12.9131 176.747 10.1409 180.28 6.72626 183.314C6.79418 183.42 6.8636 183.525 6.93257 183.63C10.4026 180.556 13.219 176.971 15.1678 173.009C18.1368 166.973 18.8824 159.594 17.2132 152.763C15.9092 147.426 13.2877 142.905 9.66586 139.634C9.5851 139.729 9.50493 139.825 9.42521 139.92C12.9867 143.141 15.566 147.593 16.8507 152.852Z" fill="white"/>
<path d="M101.32 67.3751C104.572 70.6975 106.029 76.2946 104.236 81.455C102.5 86.4516 98.6953 90.5904 94.1237 93.2511C90.4454 95.3919 85.6474 96.5729 82.0299 94.3311C79.3266 92.6558 77.9248 89.3691 77.8468 86.1897C77.7689 83.0104 78.8381 79.9119 80.1596 77.0192C82.0224 72.9416 84.5294 68.9874 88.2641 66.5078C93.4121 63.0899 98.1952 64.1816 101.32 67.3751Z" fill="#F7F0E3"/>
<path d="M211.405 33.4415C209.662 27.6449 206.596 22.3229 202.207 17.4574C197.808 12.5918 191.81 8.57529 184.212 5.39862C176.613 2.22181 166.959 0.633545 155.248 0.633545C145.906 0.633545 136.386 1.89322 126.687 4.41273C116.978 6.94135 108.558 10.538 101.415 15.2118L110.712 40.7367L105.729 44.7732L112.956 46.897C120.089 43.1633 126.588 40.4523 132.452 38.7634C138.308 37.0838 144.53 36.2439 151.127 36.2439C157.715 36.2439 162.703 37.8323 166.091 41.009C169.479 44.1949 171.169 48.0196 171.169 52.5109C171.169 57.9333 169.426 62.744 165.957 66.9523C162.471 71.1605 158.627 75.4145 154.416 79.7141C151.493 82.699 148.651 85.7845 145.906 88.9613C143.162 92.1471 140.73 95.5522 138.63 99.2036C136.52 102.846 134.83 106.771 133.552 110.979C132.265 115.188 131.63 119.907 131.63 125.138C131.63 126.826 131.666 128.835 131.764 131.172C131.781 131.603 131.803 132.023 131.829 132.438H124.997L132.452 137.48H168.702C168.514 136.357 168.425 135.051 168.425 133.554C168.425 132.057 168.425 130.934 168.425 130.186C168.425 127.009 169.068 123.878 170.347 120.793C171.625 117.707 173.234 114.768 175.156 111.956C177.078 109.154 179.224 106.488 181.61 103.969C183.988 101.44 186.277 99.0575 188.476 96.812C191.399 93.827 194.421 90.6502 197.532 87.2818C200.643 83.9135 203.396 80.3715 205.774 76.6289C208.152 72.8863 210.118 68.824 211.674 64.424C213.229 60.0332 214.016 55.2224 214.016 49.9826C214.015 44.7517 213.139 39.2381 211.405 33.4415Z" fill="#E49B31"/>
<path d="M143.453 34.4634C136.933 34.4634 130.784 35.2761 124.997 36.9017C119.202 38.5361 112.779 41.1599 105.729 44.7733L94.3239 14.1088C101.383 9.58554 109.705 6.10477 119.299 3.65752C128.884 1.21922 138.293 0 147.525 0C159.098 0 168.64 1.53721 176.149 4.61161C183.658 7.68602 189.586 11.5731 193.933 16.2819C198.271 20.9907 201.301 26.1413 203.024 31.7512C204.737 37.361 205.603 42.6971 205.603 47.7593C205.603 52.8303 204.826 57.4861 203.289 61.7355C201.751 65.9938 199.808 69.9251 197.458 73.5472C195.108 77.1693 192.387 80.5971 189.313 83.8571C186.238 87.1171 183.252 90.1915 180.363 93.0803C178.19 95.2536 175.928 97.5594 173.578 100.007C171.219 102.445 169.099 105.025 167.2 107.737C165.3 110.458 163.71 113.303 162.447 116.289C161.183 119.275 160.547 122.305 160.547 125.379C160.547 126.104 160.547 127.19 160.547 128.639C160.547 130.088 160.636 131.351 160.821 132.438H124.997C124.626 130.627 124.405 128.595 124.317 126.333C124.22 124.072 124.184 122.128 124.184 120.494C124.184 115.432 124.812 110.864 126.084 106.792C127.347 102.719 129.017 98.92 131.102 95.395C133.178 91.8612 135.581 88.5659 138.293 85.4827C141.005 82.4083 143.815 79.4222 146.704 76.5334C150.865 72.3723 154.664 68.2554 158.109 64.1828C161.537 60.1101 163.259 55.4543 163.259 50.2066C163.259 45.8599 161.59 42.1584 158.241 39.0752C154.893 36.0006 149.964 34.4634 143.453 34.4634Z" fill="#FBC343"/>
<path d="M171.182 172.665C171.182 179.201 169.067 184.244 164.835 187.801C160.604 191.366 155.822 193.141 150.482 193.141C145.135 193.141 140.353 191.366 136.121 187.801C131.897 184.244 129.782 179.201 129.782 172.665C129.782 166.137 131.897 161.094 136.122 157.53C142.635 152.033 152.271 150.808 159.897 154.666C166.664 158.089 171.182 165.041 171.182 172.665Z" fill="#E49B31"/>
<path d="M164.091 172.666C164.091 179.201 161.976 184.244 157.744 187.802C153.513 191.366 148.731 193.142 143.391 193.142C138.044 193.142 133.262 191.366 129.03 187.802C124.806 184.244 122.691 179.201 122.691 172.666C122.691 166.138 124.806 161.095 129.03 157.53C133.262 153.972 138.044 152.19 143.391 152.19C148.731 152.19 153.513 153.972 157.744 157.53C161.976 161.095 164.091 166.138 164.091 172.666Z" fill="#FBC343"/>
<path d="M56.7771 80.0093C57.1743 77.8901 55.7783 75.8503 53.6591 75.4531C51.54 75.056 49.5001 76.4519 49.1029 78.5711C48.7058 80.6903 50.1018 82.7302 52.2209 83.1273C54.3401 83.5244 56.38 82.1285 56.7771 80.0093Z" fill="#D3DFFF"/>
<path d="M58.6445 87.3476C58.8679 86.1557 58.0759 85.0071 56.8756 84.7822C55.6752 84.5572 54.5211 85.3411 54.2977 86.533C54.0743 87.7249 54.8663 88.8735 56.0667 89.0985C57.267 89.3234 58.4212 88.5395 58.6445 87.3476Z" fill="#D3DFFF"/>
<path d="M54.1743 70.5075C60.1769 64.505 60.1769 54.7729 54.1743 48.7703C48.1718 42.7677 38.4397 42.7677 32.4371 48.7703C26.4345 54.7729 26.4345 64.505 32.4371 70.5075C38.4397 76.5101 48.1718 76.5101 54.1743 70.5075Z" fill="#D3DFFF"/>
<path d="M37.4048 61.5767C38.4743 61.5767 39.3414 60.7097 39.3414 59.6402C39.3414 58.5706 38.4743 57.7036 37.4048 57.7036C36.3353 57.7036 35.4683 58.5706 35.4683 59.6402C35.4683 60.7097 36.3353 61.5767 37.4048 61.5767Z" fill="white"/>
<path d="M43.307 61.577C44.3766 61.577 45.2436 60.7099 45.2436 59.6404C45.2436 58.5709 44.3766 57.7039 43.307 57.7039C42.2375 57.7039 41.3705 58.5709 41.3705 59.6404C41.3705 60.7099 42.2375 61.577 43.307 61.577Z" fill="white"/>
<path d="M49.2088 61.577C50.2783 61.577 51.1454 60.7099 51.1454 59.6404C51.1454 58.5709 50.2783 57.7039 49.2088 57.7039C48.1393 57.7039 47.2723 58.5709 47.2723 59.6404C47.2723 60.7099 48.1393 61.577 49.2088 61.577Z" fill="white"/>
<path d="M32.2959 185.447L33.732 190.984C34.1066 192.428 35.5026 193.403 37.0471 193.298C41.756 192.978 51.54 191.825 57.1554 187.686L55.5591 179.707C47.8383 179.27 40.6177 179.7 34.3656 181.804C32.8002 182.332 31.8948 183.901 32.2959 185.447Z" fill="#102048"/>
<path d="M41.2948 189.854C41.2131 189.854 41.1382 189.8 41.115 189.718L39.1867 182.813C39.1589 182.714 39.217 182.611 39.3163 182.583C39.4161 182.556 39.5186 182.614 39.5463 182.713L41.4747 189.618C41.5023 189.717 41.4443 189.82 41.3451 189.847C41.3282 189.852 41.3112 189.854 41.2948 189.854Z" fill="white"/>
<path d="M45.4621 188.92C45.3804 188.92 45.3055 188.866 45.2823 188.783L43.354 181.879C43.3264 181.78 43.3843 181.677 43.4836 181.649C43.5836 181.621 43.6859 181.679 43.7136 181.779L45.642 188.683C45.6697 188.782 45.6117 188.885 45.5124 188.913C45.4955 188.918 45.4786 188.92 45.4621 188.92Z" fill="white"/>
<path d="M50.3026 155.518L32.3577 160.844L45.6844 179.104L64.8166 180.626L91.2059 169.467L81.178 154.377L50.3026 155.518Z" fill="#FBC343"/>
<path d="M72.4254 158.055C111.834 146.389 118.167 181.218 56.6799 187.558C54.5081 185.114 51.9701 180.873 50.9622 177.329L83.4326 162.324L72.4254 158.055Z" fill="#FBC343"/>
<path d="M74.0994 183.016C72.2565 182.426 70.4903 181.26 70.4903 181.26L64.1568 183.246L65.6082 190.136L72.1875 191.473C74.1918 187.807 74.3089 184.797 74.0994 183.016Z" fill="#F9B384"/>
<path d="M51.1029 177.57L50.8216 177.086C57.5955 173.15 74.9467 163.692 89.7298 160.903L89.8336 161.453C75.1357 164.226 57.8518 173.648 51.1029 177.57Z" fill="#E49B31"/>
<path d="M50.3026 155.518C13.6214 148.544 4.12127 183.796 65.6084 190.136C67.7802 187.692 69.4825 184.804 70.4903 181.259C61.0454 174.94 50.485 168.933 38.9112 163.211L50.3026 155.518Z" fill="#FBC343"/>
<path d="M70.3399 181.495C68.595 180.385 66.7768 179.211 64.8519 177.968C55.1891 171.729 44.237 164.658 34.9319 160.625L35.1545 160.112C44.502 164.162 55.4745 171.247 65.1554 177.498C67.0796 178.74 68.897 179.913 70.6404 181.023L70.3399 181.495Z" fill="#E49B31"/>
<path d="M23.3898 172.997L22.8998 172.726C24.2767 170.234 26.4821 168.552 29.4547 167.729L29.6042 168.268C26.7422 169.061 24.7095 170.608 23.3898 172.997Z" fill="#E49B31"/>
<path d="M99.9488 170.874C98.6291 168.486 96.5964 166.939 93.7344 166.146L93.8839 165.607C96.8566 166.43 99.0619 168.111 100.439 170.604L99.9488 170.874Z" fill="#E49B31"/>
<path d="M62.1734 189.826L61.7642 189.443C64.6984 186.301 66.5006 182.983 67.2736 179.301L67.8215 179.416C67.027 183.201 65.1794 186.606 62.1734 189.826Z" fill="#E49B31"/>
<path d="M92.3934 180.964C87.6939 178.06 78.5831 183.077 76.296 183.331C75.6293 183.405 74.8579 183.259 74.0994 183.016C74.3088 184.797 74.1918 187.807 72.1876 191.473L73.3052 191.7C73.3052 191.7 81.0311 194.532 89.2267 192.884C96.7915 191.362 96.0879 183.246 92.3934 180.964Z" fill="#102048"/>
<path d="M85.9872 190.461C85.9685 190.461 85.9497 190.458 85.9309 190.452C85.8327 190.421 85.7782 190.316 85.8093 190.218C86.3676 188.45 86.6112 184.972 84.994 182.636C84.9353 182.551 84.9565 182.435 85.0412 182.376C85.1257 182.317 85.2421 182.339 85.3008 182.423C86.9943 184.87 86.7454 188.492 86.165 190.33C86.1399 190.41 86.0665 190.461 85.9872 190.461Z" fill="white"/>
<path d="M82.3018 191.161C82.2832 191.161 82.2644 191.158 82.2456 191.152C82.1473 191.121 82.0928 191.016 82.1239 190.918C82.6822 189.15 82.9259 185.672 81.3086 183.336C81.25 183.252 81.2712 183.135 81.3558 183.077C81.4403 183.018 81.5566 183.039 81.6154 183.124C83.3089 185.57 83.0601 189.192 82.4796 191.03C82.4546 191.11 82.3811 191.161 82.3018 191.161Z" fill="white"/>
<path d="M43.8129 110.065C43.8129 110.065 53.0509 102.21 52.7089 100.717C52.4644 99.6503 49.8475 101.215 49.8475 101.215C49.8475 101.215 53.5174 96.8604 53.3308 96.3318C52.9973 95.387 50.4591 97.1481 50.4591 97.1481C50.4591 97.1481 52.1748 94.6787 51.3546 94.2764C50.5344 93.8741 48.7462 95.3958 48.7462 95.3958C48.7462 95.3958 49.7909 94.0247 49.3001 93.6651C48.8092 93.3053 46.6918 94.7844 46.6918 94.7844C46.6918 94.7844 47.4516 93.0557 45.8374 93.7111C44.2231 94.3664 32.9042 104.754 32.9042 104.754L43.8129 110.065Z" fill="#F9B384"/>
<path d="M47.5925 100.749C47.5476 100.749 47.5025 100.733 47.4667 100.7C45.881 99.2511 45.1819 98.8993 43.4324 98.3612C43.3338 98.331 43.2786 98.2265 43.3089 98.128C43.3392 98.0294 43.4436 97.9739 43.5422 98.0045C45.3549 98.5619 46.0788 98.9261 47.7187 100.424C47.7948 100.494 47.8 100.612 47.7306 100.688C47.6936 100.728 47.6431 100.749 47.5925 100.749Z" fill="#E28B6D"/>
<path d="M44.8094 105.01C44.8007 105.01 44.792 105.009 44.7834 105.008C44.6813 104.994 44.6101 104.899 44.6244 104.797C44.8059 103.498 45.2148 102.687 45.8745 102.316C46.4384 101.998 47.1721 102.031 48.0554 102.412C48.1501 102.453 48.1937 102.563 48.1528 102.658C48.112 102.752 48.0022 102.796 47.9075 102.755C47.137 102.422 46.5147 102.384 46.0574 102.641C45.5138 102.947 45.156 103.689 44.994 104.849C44.9809 104.942 44.901 105.01 44.8094 105.01Z" fill="#E28B6D"/>
<path d="M44.3736 97.1564C44.324 97.1564 44.2745 97.1367 44.2377 97.0977C44.167 97.0226 44.1706 96.9045 44.2455 96.8339L46.5636 94.6491C46.6385 94.578 46.7566 94.5819 46.8274 94.6569C46.8982 94.732 46.8946 94.85 46.8196 94.9206L44.5015 97.1055C44.4655 97.1396 44.4196 97.1564 44.3736 97.1564Z" fill="#E28B6D"/>
<path d="M46.5197 97.9031C46.4731 97.9031 46.4267 97.8859 46.3904 97.851C46.3161 97.7797 46.3137 97.6616 46.3851 97.5872L48.6117 95.2673C48.683 95.1927 48.8011 95.1903 48.8756 95.2619C48.95 95.3333 48.9523 95.4514 48.881 95.5257L46.6544 97.8456C46.6176 97.8839 46.5687 97.9031 46.5197 97.9031Z" fill="#E28B6D"/>
<path d="M48.7123 99.2086C48.6668 99.2086 48.6211 99.192 48.5851 99.1584C48.5098 99.0881 48.5056 98.97 48.5759 98.8946L50.3228 97.0206C50.3933 96.9455 50.5111 96.9412 50.5866 97.0114C50.662 97.0817 50.6662 97.1998 50.5959 97.2752L48.8489 99.1492C48.8121 99.1886 48.7623 99.2086 48.7123 99.2086Z" fill="#E28B6D"/>
<path d="M78.7095 162.608L44.9334 163.914L41.2012 133.124C41.2012 133.124 52.5086 122.399 56.859 118.449L64.2031 118.073C86.9889 128.43 83.2578 141.366 78.7095 162.608Z" fill="#3A6BEA"/>
<path d="M64.2032 118.073C64.2032 118.073 90.2718 120.302 98.49 138.162C106.532 155.639 73.4845 161.862 73.4845 161.862L64.2032 118.073Z" fill="#3A6BEA"/>
<path d="M34.4052 121.901L45.1775 108.791L35.104 102.687C30.9018 105.608 22.7759 112.226 15.8894 119.72C14.3694 121.375 13.1821 123.307 12.5841 125.434C12.0738 127.25 11.9811 129.043 12.2679 130.799C13.0154 135.375 16.6153 138.907 21.4207 139.469C25.5247 139.95 41.2011 138.723 53.8905 134.991L57.6226 120.586C55.7049 119.498 41.4515 119.309 34.4052 121.901Z" fill="#3A6BEA"/>
<g opacity="0.8">
<path d="M85.9582 125.161C86.0144 125.148 86.0707 125.135 86.1268 125.122C86.009 125.053 85.8908 124.985 85.7727 124.916C83.8623 125.356 81.8911 125.806 79.9481 126.04C78.7804 126.181 74.879 126.438 73.7387 123.839C73.1714 122.546 73.6008 121.107 74.2424 120.098C74.1486 120.071 74.0559 120.044 73.9628 120.018C73.3058 121.087 72.884 122.587 73.4825 123.951C74.6998 126.728 78.7653 126.464 79.9817 126.318C81.9808 126.077 84.0027 125.611 85.9582 125.161Z" fill="white"/>
<path d="M98.1242 145.304C96.8788 144.823 95.5923 144.325 94.2396 144.453C91.8671 144.677 89.8368 147.023 89.7138 149.683C89.6298 151.496 90.3225 153.396 91.6432 155.068C91.7228 155.018 91.802 154.968 91.881 154.918C90.5898 153.294 89.9122 151.45 89.9934 149.696C90.1105 147.17 92.027 144.943 94.2659 144.731C95.552 144.612 96.7522 145.074 98.0231 145.565C98.4768 145.74 98.9379 145.917 99.4065 146.067C99.4307 145.977 99.4542 145.886 99.476 145.795C99.0193 145.648 98.5681 145.475 98.1242 145.304Z" fill="white"/>
<path d="M32.3262 136.403C30.6987 135.057 28.1698 134.697 25.3893 135.416C22.9113 136.057 20.7852 137.326 19.3246 139.007C19.4206 139.037 19.5143 139.073 19.6117 139.101C21.0327 137.507 23.0796 136.302 25.4592 135.687C28.1516 134.99 30.59 135.33 32.148 136.618C32.8885 137.231 33.412 138.026 33.7925 138.884C33.8887 138.873 33.9851 138.861 34.0819 138.85C33.6836 137.927 33.1284 137.066 32.3262 136.403Z" fill="white"/>
<path d="M17.6131 117.889C20.6627 117.131 23.6386 116.067 26.3834 114.486C27.4205 113.889 28.5916 113.127 29.4152 112.009C30.2914 110.819 30.5825 109.402 30.1941 108.219C30.0417 107.755 29.7719 107.348 29.4347 107.021C29.3633 107.08 29.2912 107.139 29.2194 107.198C29.5342 107.498 29.7865 107.875 29.928 108.307C30.2883 109.403 30.0124 110.725 29.19 111.842C28.3971 112.919 27.2558 113.66 26.2438 114.243C23.6549 115.735 20.8546 116.766 17.9781 117.511C17.8561 117.637 17.7346 117.763 17.6131 117.889Z" fill="white"/>
</g>
<path d="M66.5889 111.228L66.5841 111.706L66.5084 119.13L66.499 119.934C66.4848 121.193 65.969 122.333 65.1363 123.161C64.3082 123.984 63.168 124.5 61.9046 124.51C59.3589 124.524 57.277 122.48 57.2534 119.929L57.1635 110.754L66.5889 111.228Z" fill="#F9B384"/>
<path d="M66.5842 111.705L66.5085 119.129C62.3824 117.449 60.6838 112.983 60.6838 112.983L66.5842 111.705Z" fill="#102048"/>
<path d="M68.2168 98.7507C69.6954 100.525 74.0131 110.58 69.6363 114.01C64.7111 117.871 57.2155 111.526 57.2155 111.526L56.2101 99.8154L62.7161 98.1001L68.2168 98.7507Z" fill="#F9B384"/>
<path d="M52.8954 98.1055C52.8954 98.1055 38.4643 105.632 50.2311 127.328C51.7423 130.114 55.0897 131.331 57.9534 129.971C61.0252 128.513 62.1883 124.76 60.5203 121.797C58.5956 118.377 56.7379 113.974 57.5309 110.698L52.8954 98.1055Z" fill="#102048"/>
<path d="M57.0167 104.427C58.5412 102.902 58.5412 100.431 57.0168 98.9062C55.4923 97.3817 53.0206 97.3817 51.4961 98.9062C49.9717 100.431 49.9717 102.902 51.4961 104.427C53.0206 105.951 55.4923 105.951 57.0167 104.427Z" fill="#FBC343"/>
<path d="M59.0605 106.358C58.6387 103.923 58.3817 102.253 60.8431 100.998C60.8431 100.998 69.5179 102.575 71.174 99.3019C72.8301 96.0291 70.3065 90.8638 65.0228 94.4519C51.4981 91.81 49.6842 104.467 53.785 108.687L57.8324 108.065C58.647 107.94 59.201 107.17 59.0605 106.358Z" fill="#102048"/>
<path d="M65.7769 106.941C66.0954 106.941 66.3536 106.683 66.3536 106.365C66.3536 106.046 66.0954 105.788 65.7769 105.788C65.4584 105.788 65.2002 106.046 65.2002 106.365C65.2002 106.683 65.4584 106.941 65.7769 106.941Z" fill="#102048"/>
<path d="M69.6806 105.019C69.9991 105.019 70.2573 104.761 70.2573 104.443C70.2573 104.124 69.9991 103.866 69.6806 103.866C69.3621 103.866 69.1039 104.124 69.1039 104.443C69.1039 104.761 69.3621 105.019 69.6806 105.019Z" fill="#102048"/>
<path d="M69.2813 108.14C69.2409 108.14 69.2004 108.125 69.1689 108.095C69.1035 108.033 69.1009 107.929 69.1631 107.864C69.3944 107.621 69.6477 107.278 69.5413 107.03C69.4306 106.772 68.9632 106.661 68.7491 106.661C68.289 106.661 68.0681 105.843 68.0285 105.679C68.0073 105.591 68.0612 105.503 68.1489 105.482C68.2363 105.46 68.3247 105.514 68.3459 105.602C68.43 105.948 68.6202 106.335 68.7491 106.335C68.9693 106.335 69.6428 106.439 69.8413 106.901C69.9831 107.232 69.8346 107.631 69.3999 108.089C69.3676 108.123 69.3245 108.14 69.2813 108.14Z" fill="#102048"/>
<path d="M69.3108 110.328C69.2793 110.328 69.2477 110.319 69.2196 110.3C68.1338 109.567 67.0375 110.182 67.0264 110.188C66.9485 110.233 66.8486 110.206 66.8034 110.128C66.7584 110.05 66.7853 109.95 66.8635 109.905C66.9155 109.875 68.1493 109.184 69.4022 110.029C69.4768 110.08 69.4967 110.181 69.4462 110.256C69.4147 110.303 69.3632 110.328 69.3108 110.328Z" fill="#102048"/>
<path d="M65.5241 103.867C65.8523 104.485 65.2805 104.609 64.6107 104.965C63.9408 105.32 63.255 105.451 63.0985 105.156C62.9421 104.862 63.3582 104.334 64.028 103.978C64.6979 103.623 65.2702 103.389 65.5241 103.867Z" fill="#102048"/>
<path d="M67.9671 102.752C68.1113 103.304 68.5223 103.062 69.1202 102.906C69.7181 102.749 70.201 102.449 70.1322 102.186C70.0634 101.923 69.5229 101.837 68.925 101.993C68.3272 102.15 67.8554 102.326 67.9671 102.752Z" fill="#102048"/>
<path opacity="0.4" d="M64.2742 110.306C64.9645 109.669 65.008 108.593 64.3713 107.903C63.7345 107.212 62.6586 107.169 61.9683 107.806C61.2779 108.442 61.2344 109.518 61.8712 110.209C62.5079 110.899 63.5838 110.942 64.2742 110.306Z" fill="#EB5D60"/>
<path d="M58.7295 110.651C59.5065 109.644 59.2088 108.112 58.0645 107.229C56.9202 106.346 55.3627 106.447 54.5857 107.454C53.8087 108.461 54.1064 109.993 55.2506 110.876C56.3949 111.759 57.9524 111.658 58.7295 110.651Z" fill="#F9B384"/>
<path d="M57.6696 109.915C57.5794 109.915 57.5062 109.842 57.5062 109.751C57.5062 109.269 57.2713 108.824 56.8777 108.559C56.5412 108.333 56.14 108.28 55.8047 108.416C55.7211 108.45 55.6258 108.41 55.5918 108.327C55.5577 108.243 55.5978 108.148 55.6814 108.114C56.1174 107.936 56.6329 108.001 57.06 108.288C57.544 108.613 57.8329 109.16 57.8329 109.751C57.8327 109.842 57.7597 109.915 57.6696 109.915Z" fill="#102048"/>
<path d="M34.2659 121.768L28.3737 128.142L28.6478 128.395L34.5399 122.021L34.2659 121.768Z" fill="#102048"/>
<path d="M75.7783 149.165L75.6695 148.808C79.9589 147.501 84.1218 145.937 87.8943 141.219L88.1857 141.452C84.3468 146.253 80.1261 147.84 75.7783 149.165Z" fill="#102048"/>
<path d="M78.3863 134.712H41.898C40.5857 134.712 39.5219 135.863 39.5219 137.283V163.334C39.5219 164.754 40.5857 165.905 41.898 165.905H78.3864C79.6987 165.905 80.7625 164.754 80.7625 163.334V137.283C80.7623 135.863 79.6985 134.712 78.3863 134.712Z" fill="#D3DFFF"/>
<path d="M62.0682 148.662C62.2068 148.662 62.319 148.784 62.319 148.934V151.684C62.319 151.834 62.2068 151.955 62.0682 151.955H58.2157C58.0772 151.955 57.9649 151.834 57.9649 151.684V148.934C57.9649 148.784 58.0772 148.662 58.2157 148.662H62.0682ZM62.0682 147.916H58.2157C57.6659 147.916 57.2185 148.372 57.2185 148.934V151.684C57.2185 152.245 57.6659 152.702 58.2157 152.702H62.0682C62.6181 152.702 63.0655 152.245 63.0655 151.684V148.934C63.0655 148.372 62.6181 147.916 62.0682 147.916Z" fill="#1F3C88"/>
<path d="M220 192.839H0V193.586H220V192.839Z" fill="#102048"/>
</svg>
