<svg width="220" height="194" viewBox="0 0 220 194" fill="none" xmlns="http://www.w3.org/2000/svg">
<path d="M195.194 88.413C186.16 80.7062 175.268 34.2289 137.955 58.4357C118.678 70.9422 86.1714 47.6989 59.2658 55.7272C34.5563 63.1001 32.1745 87.3918 34.5653 95.3072C39.3948 111.296 24.3658 113.676 10.4238 120.545C-11.4455 131.321 4.76176 169.594 25.422 169.775C46.0821 169.956 171.084 169.775 171.084 169.775C171.084 169.775 201.133 169.088 213.614 152.523C227.045 134.698 218.531 108.319 195.194 88.413Z" fill="#FEF3E7"/>
<path d="M72.3459 165.485C72.3459 165.485 72.6075 169.706 73.4241 169.766C73.5328 169.774 77.5655 169.774 77.5655 169.774L82.7137 169.745C82.7137 169.745 82.68 168.504 81.1752 168.242C79.6703 167.98 77.1516 166.922 76.2401 164.933C75.281 162.841 72.3459 165.485 72.3459 165.485Z" fill="#163560"/>
<path d="M70.4903 116.232C70.4903 116.232 72.733 116.808 74.1587 116.378C75.5844 115.949 78.0381 116.654 78.4333 117.174C78.8284 117.694 78.6833 117.9 77.9781 118.08C77.273 118.259 74.7749 119.325 73.1331 118.708C71.4913 118.091 69.3499 118.069 69.3499 118.069L70.4903 116.232Z" fill="#E49963"/>
<path d="M51.1075 96.7497C51.1075 96.7497 53.627 114.656 57.7988 116.26C59.8573 117.051 68.9547 118.845 71.6457 119.026C71.6457 119.026 72.305 118.491 72.1444 116.314C72.1444 116.314 62.6129 112.815 61.2589 110.912C59.2437 108.079 62.51 99.3414 59.9813 96.6814C57.4525 94.0216 53.1936 92.8783 51.1075 96.7497Z" fill="#4A75CB"/>
<path d="M51.4293 165.745V161.841H45.2827C45.1167 161.841 44.9811 161.705 44.9811 161.539V160.914C44.9811 160.748 45.1167 160.612 45.2827 160.612H51.4293V138.388C51.4293 137.764 51.9395 137.254 52.5631 137.254H53.7795C54.4031 137.254 54.9133 137.764 54.9133 138.388V160.612H61.0599C61.2258 160.612 61.3616 160.748 61.3616 160.914V161.539C61.3616 161.705 61.2258 161.841 61.0599 161.841H54.9133V165.745C59.3606 166.081 62.9237 167.682 63.9233 169.751H42.4193C43.4189 167.682 46.982 166.081 51.4293 165.745Z" fill="#A6C7F9"/>
<path d="M51.9565 134.475C52.6914 135.722 53.5414 136.89 54.4176 137.997C57.1254 141.415 60.073 144.234 60.5865 146.898C60.6885 147.429 60.8506 148.001 61.0625 148.603C61.2769 149.213 61.542 149.855 61.848 150.518C62.9971 153.015 64.7155 155.811 66.4312 158.353C69.3971 162.748 72.186 166.415 72.186 166.415L77.3006 166.197C77.0957 165.685 74.865 159.617 71.8808 152.201C70.669 149.191 69.3805 145.989 68.1372 142.901C67.9716 142.488 67.806 142.078 67.6421 141.671C67.262 140.725 66.8879 139.795 66.5227 138.889C63.7206 131.926 61.4889 126.382 61.4889 126.382C61.4889 126.382 50.2896 122.139 49.1266 124.888C48.1676 127.155 48.9487 129.375 51.9565 134.475Z" fill="#E58638"/>
<path d="M60.5026 153.428C60.5026 153.428 56.9451 155.714 57.2903 156.457C57.3362 156.555 59.3022 160.077 59.3022 160.077L61.838 164.557C61.838 164.557 62.9047 163.923 62.4 162.481C61.8954 161.039 61.5908 158.325 62.8831 156.559C64.2423 154.702 60.5026 153.428 60.5026 153.428Z" fill="#163560"/>
<path d="M65.316 124.368C65.316 124.368 79.3732 133.124 80.9424 139.009C82.5115 144.893 62.2429 157.446 62.2429 157.446C62.2429 157.446 60.0199 155.485 59.6276 154.047C59.6276 154.047 68.7893 143.07 70.7767 140.61C71.9972 139.099 52.73 135.379 50.3763 131.717C48.0225 128.056 48.8651 124.975 48.8651 124.975L65.316 124.368Z" fill="#EE9849"/>
<path d="M38.7864 135.612H67.5563C68.1316 135.612 68.6024 136.083 68.6024 136.658V142.412C68.6024 142.987 68.1316 143.458 67.5563 143.458H38.7864C38.2111 143.458 37.7402 142.987 37.7402 142.412V136.658C37.7402 136.083 38.211 135.612 38.7864 135.612Z" fill="#1C468A"/>
<path d="M58.8157 93.6803C60.1963 94.5355 60.9571 95.621 60.9571 95.621C57.5894 96.4922 52.0067 93.3715 52.0067 93.3715C52.0067 93.3715 54.1743 91.915 54.9774 88.7146C55.018 88.5532 55.0552 88.3876 55.0877 88.2182C55.193 87.6792 55.2584 87.0956 55.2701 86.4658L56.8171 87.8517L59.3895 90.1562C59.3895 90.1562 59.3312 91.1125 59.0093 92.7574C58.9534 93.0445 58.8892 93.3525 58.8157 93.6803Z" fill="#E49963"/>
<path d="M48.4565 109.568C48.9389 116.056 48.1276 125.919 48.6748 127.628C49.1471 129.102 54.7049 128.23 56.8527 127.737C57.6477 127.555 58.6108 127.295 59.6053 126.987C62.3793 126.128 65.402 124.902 65.7264 123.991C65.7389 123.956 65.7496 123.921 65.7563 123.886C65.7862 123.754 65.7795 123.63 65.7505 123.505C65.6423 123.041 65.2257 122.538 65.1767 121.389C65.1217 120.106 65.13 118.595 65.0819 116.97C65.0794 116.787 65.0769 116.588 65.0569 116.406L65.056 116.339C65.0552 116.304 65.0543 116.27 65.0536 116.235C65.007 114.423 64.9123 112.518 64.8024 110.629C64.7325 109.442 64.6519 108.267 64.5588 107.141C64.3168 104.235 63.9908 101.65 63.5593 100.016C62.854 97.3529 61.2991 95.6158 59.8836 94.3426L58.8599 93.4646C57.7174 93.7139 56.3669 93.5485 55.1454 92.9698C53.8233 92.3419 53.3667 91.892 53.1364 92.0617C50.0831 94.4175 47.8869 101.636 48.4565 109.568Z" fill="#739AF0"/>
<path d="M59.5895 127C62.3635 126.141 65.3862 124.915 65.7106 124.004C65.7231 123.968 65.7338 123.933 65.7405 123.899C65.7388 123.772 65.7372 123.645 65.7346 123.518C65.6265 123.054 65.2099 122.551 65.1609 121.402C65.1059 120.119 65.1142 118.608 65.066 116.983C65.0636 116.8 65.0611 116.601 65.041 116.419L65.0402 116.352C65.0394 116.317 65.0385 116.283 65.0378 116.248L54.5592 111.496C54.5592 111.496 53.9555 119.941 59.5895 127Z" fill="#4A75CB"/>
<path d="M59.3896 90.1561C59.3896 90.1561 59.3312 91.1124 59.0094 92.7573C56.4976 91.9457 55.3579 89.6769 54.9775 88.7145C54.8693 88.4426 54.8223 88.2746 54.8223 88.2746C54.8223 88.2746 54.9198 88.2535 55.0878 88.2181C55.4408 88.1429 56.1057 88.002 56.8171 87.8516L59.3896 90.1561Z" fill="#D68D5D"/>
<path d="M60.4065 90.131C60.4065 90.131 54.8879 90.7534 54.5531 87.3108C54.2185 83.8681 53.2807 81.6298 56.7901 81.0867C60.2995 80.5438 61.1129 81.7908 61.5041 82.9127C61.8952 84.0347 61.8335 89.8803 60.4065 90.131Z" fill="#E49963"/>
<path d="M54.5769 87.5482C54.5769 87.5482 54.9268 82.9783 59.9503 82.5051C63.3911 82.1808 61.4728 79.2194 61.106 78.7471C61.106 78.7471 58.4697 79.1085 55.7676 79.555C50.0959 80.4921 54.0199 86.8368 54.5769 87.5482Z" fill="#2B478B"/>
<path d="M81.2813 120.718L81.7644 120.875L85.8741 108.225L85.391 108.069L81.2813 120.718Z" fill="#4A75CB"/>
<path d="M67.8212 120.571L81.7752 120.87L81.7931 120.035L67.839 119.736L67.8212 120.571Z" fill="#4A75CB"/>
<path d="M69.3361 118.985C69.3361 118.985 71.5017 119.805 72.966 119.535C74.4304 119.265 76.7914 120.237 77.1268 120.797C77.4622 121.357 77.2953 121.547 76.5747 121.647C75.854 121.748 73.2536 122.531 71.6899 121.738C70.126 120.944 68.0002 120.685 68.0002 120.685L69.3361 118.985Z" fill="#E49963"/>
<path d="M52.2193 97.4847C52.2193 97.4847 52.7492 115.56 56.7188 117.614C58.6775 118.627 67.5217 121.413 70.1765 121.889C70.1765 121.889 70.8907 121.43 70.971 119.249C70.971 119.249 61.8835 114.72 60.7475 112.679C59.0568 109.642 63.2666 101.318 61.0465 98.3951C58.8265 95.4726 54.7195 93.8667 52.2193 97.4847Z" fill="#739AF0"/>
<path d="M102.801 140.655H174.811C179.836 140.655 183.91 136.582 183.91 131.556V33.0991C183.91 28.0737 179.836 24 174.811 24H102.801C97.7758 24 93.702 28.0738 93.702 33.0991V131.556C93.702 136.582 97.7758 140.655 102.801 140.655Z" fill="#D2E4FF"/>
<path d="M102.566 128.847H175.194V36.2257L102.566 36.2257L102.566 128.847Z" fill="#F3F9FF"/>
<path d="M164.894 124.782C162.778 124.782 161.062 123.066 161.062 120.95V67.9689C161.062 65.8526 162.778 64.137 164.894 64.137C167.011 64.137 168.726 65.8526 168.726 67.9689V120.949C168.726 123.066 167.011 124.782 164.894 124.782Z" fill="#EE9849"/>
<path d="M152.339 124.782C150.222 124.782 148.507 123.066 148.507 120.95V51.0649C148.507 48.9485 150.222 47.2329 152.339 47.2329C154.455 47.2329 156.171 48.9485 156.171 51.0649V120.95C156.171 123.066 154.455 124.782 152.339 124.782Z" fill="#EE9849"/>
<path d="M138.639 124.781C136.522 124.781 134.807 123.066 134.807 120.949V82.6344C134.807 80.5181 136.522 78.8025 138.639 78.8025C140.755 78.8025 142.471 80.5181 142.471 82.6344V120.949C142.47 123.066 140.755 124.781 138.639 124.781Z" fill="#EE9849"/>
<path d="M125.307 124.782C123.191 124.782 121.475 123.066 121.475 120.95V61.4181C121.475 59.3018 123.191 57.5862 125.307 57.5862C127.424 57.5862 129.139 59.3018 129.139 61.4181V120.95C129.139 123.066 127.424 124.782 125.307 124.782Z" fill="#EE9849"/>
<path d="M115.739 91.634V120.95C115.739 123.066 114.023 124.782 111.907 124.782C109.791 124.782 108.075 123.066 108.075 120.95V91.634C108.075 89.5176 109.791 87.802 111.907 87.802C114.023 87.802 115.739 89.5176 115.739 91.634Z" fill="#EE9849"/>
<path d="M121.839 52.8406H128.329C128.698 52.8406 129 53.1428 129 53.512C129 53.8813 128.698 54.1834 128.329 54.1834H121.839C121.469 54.1834 121.167 53.8813 121.167 53.512C121.167 53.1428 121.469 52.8406 121.839 52.8406Z" fill="#A6C7F9"/>
<path d="M126.851 55.2837H128.329C128.698 55.2837 129 55.5858 129 55.9551C129 56.3244 128.698 56.6264 128.329 56.6264H126.851C126.482 56.6264 126.179 56.3244 126.179 55.9551C126.179 55.5858 126.482 55.2837 126.851 55.2837Z" fill="#A6C7F9"/>
<path d="M148.583 42.5352H155.074C155.443 42.5352 155.745 42.8372 155.745 43.2065C155.745 43.5758 155.443 43.8779 155.074 43.8779H148.583C148.214 43.8779 147.912 43.5758 147.912 43.2065C147.912 42.8372 148.214 42.5352 148.583 42.5352Z" fill="#A6C7F9"/>
<path d="M153.596 44.9783H155.074C155.443 44.9783 155.745 45.2804 155.745 45.6496C155.745 46.0189 155.443 46.321 155.074 46.321H153.596C153.226 46.321 152.924 46.0189 152.924 45.6496C152.924 45.2804 153.226 44.9783 153.596 44.9783Z" fill="#A6C7F9"/>
<path d="M161.564 59.428H168.055C168.424 59.428 168.726 59.7302 168.726 60.0994C168.726 60.4687 168.424 60.7708 168.055 60.7708H161.564C161.195 60.7708 160.893 60.4687 160.893 60.0994C160.893 59.7302 161.195 59.428 161.564 59.428Z" fill="#A6C7F9"/>
<path d="M166.577 61.8711H168.055C168.424 61.8711 168.726 62.1732 168.726 62.5425C168.726 62.9118 168.424 63.2138 168.055 63.2138H166.577C166.207 63.2138 165.905 62.9118 165.905 62.5425C165.905 62.1733 166.207 61.8711 166.577 61.8711Z" fill="#A6C7F9"/>
<path d="M135.393 74.1003H141.883C142.253 74.1003 142.555 74.4024 142.555 74.7717C142.555 75.141 142.253 75.4432 141.883 75.4432H135.393C135.024 75.4432 134.722 75.141 134.722 74.7717C134.722 74.4024 135.024 74.1003 135.393 74.1003Z" fill="#A6C7F9"/>
<path d="M140.405 76.5437H141.883C142.253 76.5437 142.555 76.8459 142.555 77.2152C142.555 77.5845 142.253 77.8865 141.883 77.8865H140.405C140.036 77.8865 139.734 77.5845 139.734 77.2152C139.734 76.8458 140.036 76.5437 140.405 76.5437Z" fill="#A6C7F9"/>
<path d="M108.661 83.0725H115.152C115.521 83.0725 115.823 83.3747 115.823 83.744C115.823 84.1133 115.521 84.4153 115.152 84.4153H108.661C108.292 84.4153 107.99 84.1132 107.99 83.744C107.99 83.3747 108.292 83.0725 108.661 83.0725Z" fill="#A6C7F9"/>
<path d="M113.673 85.5156H115.152C115.521 85.5156 115.823 85.8178 115.823 86.1871C115.823 86.5564 115.521 86.8586 115.152 86.8586H113.673C113.304 86.8586 113.002 86.5564 113.002 86.1871C113.002 85.8178 113.304 85.5156 113.673 85.5156Z" fill="#A6C7F9"/>
<path d="M111.907 81.1618C110.592 81.1618 109.522 80.0919 109.522 78.7768C109.522 77.4617 110.592 76.3918 111.907 76.3918C113.222 76.3918 114.292 77.4618 114.292 78.7768C114.292 80.0919 113.222 81.1618 111.907 81.1618ZM111.907 77.3151C111.101 77.3151 110.445 77.9708 110.445 78.7768C110.445 79.5828 111.101 80.2386 111.907 80.2386C112.713 80.2386 113.369 79.5828 113.369 78.7768C113.369 77.9708 112.713 77.3151 111.907 77.3151Z" fill="#2B478B"/>
<path d="M110.891 77.3153C110.773 77.3153 110.655 77.2702 110.565 77.1801L103.397 70.0128H45.1692C44.9142 70.0128 44.7076 69.8061 44.7076 69.5512C44.7076 69.2963 44.9142 69.0896 45.1692 69.0896H103.78L111.217 76.5273C111.398 76.7076 111.398 76.9999 111.217 77.1801C111.127 77.2701 111.009 77.3153 110.891 77.3153Z" fill="#2B478B"/>
<path d="M125.622 131.453C124.307 131.453 123.237 130.383 123.237 129.068C123.237 127.753 124.307 126.683 125.622 126.683C126.937 126.683 128.007 127.753 128.007 129.068C128.007 130.383 126.937 131.453 125.622 131.453ZM125.622 127.606C124.816 127.606 124.16 128.262 124.16 129.068C124.16 129.874 124.816 130.53 125.622 130.53C126.428 130.53 127.084 129.874 127.084 129.068C127.084 128.262 126.428 127.606 125.622 127.606Z" fill="#2B478B"/>
<path d="M191.436 138.755H133.749L126.311 131.318C126.131 131.137 126.131 130.845 126.311 130.665C126.491 130.485 126.784 130.485 126.964 130.665L134.131 137.832H191.436C191.691 137.832 191.898 138.039 191.898 138.294C191.898 138.549 191.691 138.755 191.436 138.755Z" fill="#2B478B"/>
<path d="M152.004 40.6887C150.689 40.6887 149.619 39.6187 149.619 38.3037C149.619 36.9885 150.689 35.9187 152.004 35.9187C153.319 35.9187 154.389 36.9886 154.389 38.3037C154.389 39.6187 153.319 40.6887 152.004 40.6887ZM152.004 36.8418C151.198 36.8418 150.542 37.4976 150.542 38.3036C150.542 39.1096 151.198 39.7653 152.004 39.7653C152.81 39.7653 153.466 39.1096 153.466 38.3036C153.466 37.4976 152.81 36.8418 152.004 36.8418Z" fill="#2B478B"/>
<path d="M150.989 36.8419C150.871 36.8419 150.752 36.7969 150.662 36.7067L143.495 29.5394H85.2667C85.0117 29.5394 84.8051 29.3327 84.8051 29.0778C84.8051 28.8229 85.0117 28.6162 85.2667 28.6162H143.877L151.315 36.0538C151.495 36.2341 151.495 36.5264 151.315 36.7067C151.225 36.7969 151.107 36.8419 150.989 36.8419Z" fill="#2B478B"/>
<path d="M84.0842 68.0215H45.8309C45.1851 68.0215 44.6614 67.498 44.6614 66.8521C44.6614 66.2062 45.185 65.6826 45.8309 65.6826H84.0843C84.7301 65.6826 85.2536 66.2062 85.2536 66.8521C85.2535 67.498 84.73 68.0215 84.0842 68.0215Z" fill="#739AF0"/>
<path d="M84.0842 64.3287H60.6026C59.9568 64.3287 59.4331 63.8051 59.4331 63.1592C59.4331 62.5133 59.9567 61.9897 60.6026 61.9897H84.0843C84.7301 61.9897 85.2536 62.5133 85.2536 63.1592C85.2535 63.8051 84.73 64.3287 84.0842 64.3287Z" fill="#739AF0"/>
<path d="M84.0842 60.6355H60.6026C59.9568 60.6355 59.4331 60.112 59.4331 59.4661C59.4331 58.8202 59.9567 58.2966 60.6026 58.2966H84.0843C84.7301 58.2966 85.2536 58.8202 85.2536 59.4661C85.2535 60.112 84.73 60.6355 84.0842 60.6355Z" fill="#739AF0"/>
<path d="M123.915 27.3091H85.6613C85.0154 27.3091 84.4918 26.7856 84.4918 26.1397C84.4918 25.4938 85.0154 24.9702 85.6613 24.9702H123.915C124.56 24.9702 125.084 25.4938 125.084 26.1397C125.084 26.7856 124.56 27.3091 123.915 27.3091Z" fill="#739AF0"/>
<path d="M158.114 156.197C161.365 152.946 161.365 147.676 158.114 144.425C154.863 141.174 149.593 141.174 146.342 144.425C143.091 147.676 143.091 152.946 146.342 156.197C149.593 159.448 154.863 159.448 158.114 156.197Z" fill="#82B378"/>
<path d="M152.23 143.274C156.117 143.274 159.267 146.425 159.267 150.311C159.267 152.234 158.496 153.976 157.245 155.247L152.23 150.311L145.655 152.821C145.357 152.041 145.194 151.195 145.194 150.311C145.194 146.425 148.344 143.274 152.23 143.274Z" fill="white"/>
<path d="M153.258 146.738H156.254C156.371 146.738 156.468 146.835 156.468 146.952C156.468 147.07 156.371 147.166 156.254 147.166H153.258C153.141 147.166 153.045 147.07 153.045 146.952C153.045 146.835 153.141 146.738 153.258 146.738Z" fill="#82B378"/>
<path d="M153.259 147.416H156.254C156.372 147.416 156.468 147.512 156.468 147.63C156.468 147.747 156.372 147.844 156.254 147.844H153.259C153.141 147.844 153.045 147.747 153.045 147.63C153.045 147.512 153.141 147.416 153.259 147.416Z" fill="#82B378"/>
<path d="M155.017 148.093H156.254C156.371 148.093 156.468 148.19 156.468 148.307C156.468 148.425 156.371 148.521 156.254 148.521H155.017C154.899 148.521 154.803 148.425 154.803 148.307C154.803 148.19 154.899 148.093 155.017 148.093Z" fill="#82B378"/>
<path d="M144.94 146.404L148.233 143.111H144.94V146.404Z" fill="#82B378"/>
<path d="M188.66 150.715C188.889 146.123 185.352 142.215 180.76 141.986C176.168 141.757 172.26 145.294 172.031 149.886C171.802 154.478 175.339 158.386 179.931 158.615C184.523 158.844 188.431 155.307 188.66 150.715Z" fill="#82B378"/>
<path d="M173.306 150.311C173.306 146.425 176.456 143.274 180.342 143.274C184.229 143.274 187.379 146.425 187.379 150.311C187.379 154.197 184.229 157.348 180.342 157.348C178.737 157.348 177.258 156.811 176.074 155.906L180.342 150.311L173.766 152.821C173.469 152.041 173.306 151.195 173.306 150.311Z" fill="white"/>
<path d="M181.428 146.738H184.423C184.541 146.738 184.637 146.835 184.637 146.952C184.637 147.07 184.541 147.166 184.423 147.166H181.428C181.311 147.166 181.214 147.07 181.214 146.952C181.214 146.835 181.311 146.738 181.428 146.738Z" fill="#82B378"/>
<path d="M181.428 147.416H184.423C184.541 147.416 184.637 147.512 184.637 147.63C184.637 147.747 184.541 147.844 184.423 147.844H181.428C181.31 147.844 181.214 147.747 181.214 147.63C181.214 147.512 181.31 147.416 181.428 147.416Z" fill="#82B378"/>
<path d="M183.186 148.093H184.423C184.541 148.093 184.637 148.19 184.637 148.307C184.637 148.425 184.541 148.521 184.423 148.521H183.186C183.069 148.521 182.972 148.425 182.972 148.307C182.972 148.19 183.069 148.093 183.186 148.093Z" fill="#82B378"/>
<path d="M173.099 146.404L176.392 143.111H173.099V146.404Z" fill="#82B378"/>
<path d="M210.817 170.051H18.3591C18.2073 170.051 18.083 169.926 18.083 169.775C18.083 169.623 18.2073 169.499 18.3591 169.499H210.817C210.969 169.499 211.093 169.623 211.093 169.775C211.093 169.927 210.969 170.051 210.817 170.051Z" fill="#202F4E"/>
</svg>
