<svg width="302" height="297" viewBox="0 0 302 297" fill="none" xmlns="http://www.w3.org/2000/svg">
<path d="M44.5547 141.096C45.678 141.281 47.2296 141.036 48.3949 141.005L48.013 142.075L44.5867 142.083L44.5547 141.096Z" fill="#FEEE27"/>
<path d="M52.655 131.532L45.3242 130.921L45.5489 130.793C45.9973 130.61 47.0739 130.732 47.5759 130.734L50.8041 130.736C51.5653 130.727 52.3771 130.636 53.1079 130.866L52.655 131.532Z" fill="#FEEE27"/>
<path d="M41.332 191.784C42.6219 190.831 44.1795 190.059 45.6605 189.445C45.3723 189.743 45.1195 189.989 44.9509 190.376L45.1761 190.526C45.3642 190.45 45.5281 190.363 45.7048 190.265L46.2554 190.381L42.3202 192.167L41.332 191.784Z" fill="#87EF4B"/>
<path d="M58.5867 199.997C56.5881 201.066 54.6216 202.413 52.7006 203.627C52.0704 204.025 51.1448 204.8 50.4492 204.957C50.8021 204.405 51.7978 203.87 52.3474 203.454L58.0388 199.17L58.5867 199.997Z" fill="#FEEE27"/>
<path d="M237.807 71.278L241.754 69.5074C242.159 69.3546 242.525 69.1596 242.95 69.0596L243.098 69.2078C242.185 69.8863 241.094 70.1511 240.129 70.7331C239.883 70.8808 239.697 71.0932 239.5 71.2966C239.848 71.4595 240.215 71.3137 240.57 71.1702L241.302 70.7688L241.526 70.8554C240.192 71.7354 238.844 72.4594 237.323 72.9672C236.828 73.1418 236.383 73.2391 235.863 73.3083L236.677 71.2738C237.072 71.3083 237.416 71.3634 237.807 71.278Z" fill="#07E2CA"/>
<path d="M257.584 174.633L266.204 177.281C267.451 177.666 268.782 177.952 269.962 178.516L260.851 176.468L257.812 175.831C257.238 175.715 256.567 175.652 256.051 175.374L257.584 174.633Z" fill="#FEEE27"/>
<path d="M42.9521 148.291C43.8642 148.017 45.7339 147.607 46.6353 147.87L46.1914 150.003L41.6445 150.447L42.9521 148.291Z" fill="#FEEE27"/>
<path d="M51.1148 186.654L51.7169 188.02L46.2537 190.381L45.7032 190.265C45.5264 190.363 45.3626 190.45 45.1745 190.526L44.9492 190.376C45.1179 189.989 45.3707 189.742 45.6588 189.445L51.1148 186.654Z" fill="#C3F51F"/>
<path d="M90.0226 230.509L91.0324 231.584L87.6861 236.28C87.0709 237.09 86.4445 238.012 85.6726 238.683L85.4219 237.774L90.0226 230.509Z" fill="#FEEE27"/>
<path d="M231.602 62.2618L244.299 54.2773L244.364 54.4038C241.547 56.3319 238.84 58.2871 236.255 60.5208C235.558 61.1226 234.743 61.6801 234.215 62.4412L231.602 62.2618Z" fill="#FEEE27"/>
<path d="M72.4727 214.979L73.2209 215.566C71.415 217.608 69.2121 219.296 67.1776 221.103L61.2013 226.69L61.1055 226.62L72.4727 214.979Z" fill="#FEEE27"/>
<path d="M251.001 107.376L251.176 107.336C253.27 106.831 255.284 105.868 257.299 105.108L267.636 101.418C268.192 101.235 269.883 100.492 270.359 100.668L263.051 103.506C259.399 104.953 255.92 106.61 252.162 107.806C251.352 108.064 250.101 108.603 249.266 108.45L251.001 107.376Z" fill="#FEEE27"/>
<path d="M138.102 257.043L136.764 268.107L136.611 268.204L136.277 254.533L138.102 257.043Z" fill="#FEEE27"/>
<path d="M255.334 148.758L255.507 148.793C256.956 149.068 258.46 149.129 259.928 149.276L266.956 150.013C268.303 150.154 270.129 150.081 271.36 150.658L259.463 150.438C257.882 150.379 256.122 150.477 254.586 150.164L255.334 148.758Z" fill="#FEEE27"/>
<path d="M47.5839 176.574L37.2702 179.778L37.0884 179.836L36.9219 179.741C37.3877 179.474 37.92 179.364 38.3615 179.077L38.3959 178.843C37.8274 178.735 37.5171 178.936 36.9722 179.102C36.738 179.173 36.5666 179.266 36.3438 179.142L47.1784 174.907L47.5839 176.574Z" fill="#FEEE27"/>
<path d="M156.821 253.014C156.954 254.233 156.856 255.476 156.817 256.7L156.493 263.126L156.403 267.947C156.009 266.551 155.925 265.051 155.762 263.614L154.855 256.054L156.821 253.014Z" fill="#FEEE27"/>
<path d="M44.5863 142.083L48.0125 142.075L46.6364 147.87C45.735 147.607 43.8652 148.017 42.9531 148.291C43.9689 146.323 44.3454 144.262 44.5863 142.083Z" fill="#20B9AB"/>
<path d="M257.445 116.029L268.307 114.707C270.515 114.469 272.756 114.151 274.978 114.143L257.909 117.812C257.696 117.233 257.579 116.63 257.445 116.029Z" fill="#FEEE27"/>
<path d="M82.2852 222.056C82.7259 222.468 83.1872 222.863 83.5457 223.351C80.6521 227.381 76.9854 231 73.658 234.682C72.7354 235.703 71.7619 237.22 70.6484 237.986L82.2852 222.056Z" fill="#FEEE27"/>
<path d="M60.665 81.6574L45.9258 70.626L58.1293 76.861L58.3117 76.9389C58.9465 77.9499 59.4881 79.0145 60.0344 80.0752C60.2825 80.5566 60.6272 81.108 60.665 81.6574Z" fill="#FEEE27"/>
<path d="M136.68 19.1054C136.411 16.7267 136.563 14.1922 136.558 11.7938L136.585 0C136.877 0.665893 136.974 1.55645 137.094 2.27326L137.737 6.37855L139.258 15.2616L136.68 19.1054Z" fill="#FEEE27"/>
<path d="M153.625 15.6639L155.551 4.39169C155.775 3.04073 155.796 1.29677 156.273 0.0341797C156.483 1.5433 156.443 3.06739 156.457 4.58789L156.506 11.2181L156.518 16.6647C156.507 17.5544 156.562 18.5405 156.403 19.4152L153.625 15.6639Z" fill="#FEEE27"/>
<path d="M49.2954 110.95C47.626 110.12 45.5912 109.607 43.82 108.972L28.6539 103.718L24.9883 102.458C24.3698 102.242 23.6458 102.061 23.082 101.727L23.1569 101.688C25.305 102.055 27.4845 102.857 29.5972 103.416L45.9225 108.061L50.9007 109.82C51.6684 110.109 52.4224 110.334 53.1407 110.742L49.2954 110.95Z" fill="#FEEE27"/>
<path d="M205.867 230.896C208.924 234.519 211.307 238.807 213.759 242.859C214.681 244.384 215.833 246.001 216.513 247.642L208.235 238.192C207.005 236.79 205.78 235.302 204.406 234.04L205.867 230.896Z" fill="#FEEE27"/>
<path d="M45.6115 164.637L22.8738 168.961C21.8745 169.205 20.8063 169.379 19.7773 169.406C20.073 169.216 19.9301 169.27 20.2659 169.201C21.7663 168.89 23.3327 168.294 24.822 168.058C25.1533 168.006 25.5535 168.085 25.8492 167.908C26.4177 167.568 26.9152 167.661 27.5191 167.364L27.6494 167.298L27.9795 167.513L28.1578 167.459L28.1044 167.16C28.3411 167.012 28.4735 166.966 28.7545 166.925C30.2109 166.708 31.6834 166.169 33.1129 165.799L45.4952 162.493L45.6115 164.637Z" fill="#FEEE27"/>
<path d="M99.9794 236.211L103.291 236.152L95.8253 248.503C94.3593 250.946 92.9718 253.612 91.2422 255.871L99.9794 236.211Z" fill="#FEEE27"/>
<path d="M49.6451 121.008C47.1882 120.998 19.6976 116.317 19.0703 115.787L46.3216 118.887L46.5472 118.894L49.6451 121.008Z" fill="#FEEE27"/>
<path d="M222.861 211.055C227.222 214.232 231.303 217.875 235.305 221.486C236.519 222.581 238.079 223.717 239.105 224.967C235.253 222.757 231.554 220.087 227.838 217.648L223.813 215.01C222.962 214.458 222.105 213.987 221.357 213.291C220.715 213.908 220.117 214.615 219.215 214.822C219.606 214.26 220.226 213.796 220.72 213.317L222.861 211.055Z" fill="#FEEE27"/>
<path d="M234.682 193.878L248.335 201.019L254.126 203.898C254.899 204.294 255.862 204.691 256.543 205.222C254.163 204.597 251.789 203.588 249.492 202.697L239.129 198.662C237.246 197.927 235.318 197.05 233.363 196.531L234.682 193.878Z" fill="#FEEE27"/>
<path d="M233.012 118.746L252.746 116.195L251.468 118.618C248.989 118.652 246.533 119.047 244.08 119.371L233.51 120.676L233.012 118.746Z" fill="#FEEE27"/>
<path d="M188.992 236.237L193.045 236.161L202.253 255.797C200.509 253.938 199.089 251.399 197.632 249.292L192.275 241.423C191.148 239.741 189.92 238.036 188.992 236.237Z" fill="#FEEE27"/>
<path d="M212.453 220.734C213.853 221.74 215.11 223.223 216.275 224.491L222.984 232.208C224.455 233.96 226.072 235.687 227.414 237.534C226.447 236.921 225.678 236.093 224.787 235.384L213.99 226.168C212.608 225.034 211.19 223.757 209.613 222.906L212.453 220.734Z" fill="#FEEE27"/>
<path d="M112.671 238.477L116.015 239.334C115.855 239.96 115.482 240.607 115.22 241.2L113.605 244.855L108.239 256.208L105.34 262.695C105.738 260.448 106.558 258.239 107.227 256.06L110.117 246.614C110.966 243.984 111.974 241.339 112.628 238.655L112.671 238.477Z" fill="#FEEE27"/>
<path d="M213.934 58.0805L234.719 43.7666C233.627 44.9441 232.179 45.8107 230.975 46.8819L224.847 52.7057L219.054 58.3923C218.261 59.2226 217.329 60.0853 216.665 61.0199C215.713 60.5263 214.652 58.9357 213.934 58.0805Z" fill="#FEEE27"/>
<path d="M68.5123 51.7314C70.7202 52.5837 72.732 53.7546 74.7845 54.9165C76.154 55.6918 77.5999 56.4271 78.8904 57.3234C77.9597 58.5848 76.9921 60.2287 75.8997 61.3196C75.3057 60.5792 74.3088 59.9738 73.5635 59.3693L65.793 53.299C66.8171 52.9123 67.6424 52.3827 68.5123 51.7314Z" fill="#FEEE27"/>
<path d="M237.005 209.031C237.683 208.984 238.2 209.063 238.831 209.322C240.012 209.807 240.951 210.685 241.389 211.902C241.72 212.821 241.553 213.754 241.142 214.61C240.529 215.888 239.464 216.444 238.212 216.914C237.372 216.976 236.532 216.842 235.761 216.494C234.88 216.097 234.189 215.298 233.854 214.402C233.476 213.387 233.454 212.163 233.957 211.188C234.602 209.938 235.741 209.429 237.005 209.031Z" fill="#01005C"/>
<path d="M237.228 210.594C237.625 210.473 238.121 210.45 238.53 210.532C239.036 210.634 239.525 211.181 239.802 211.587C240.135 212.074 240.127 212.802 239.975 213.354C239.747 214.183 239.217 214.562 238.515 214.991C238.027 215.019 237.39 215.1 236.911 214.982C236.492 214.879 236.209 214.548 236.02 214.182C235.683 213.528 235.652 212.512 235.907 211.824C236.148 211.174 236.64 210.895 237.228 210.594Z" fill="#FEFEFE"/>
<path d="M92.7351 43.624L78.3281 22.6162C79.1549 23.292 79.8759 24.1852 80.6236 24.9539L85.2156 29.6684L94.9057 39.5155C93.9807 40.7831 93.9249 42.5798 92.7351 43.624Z" fill="#FEEE27"/>
<path d="M84.3529 51.3074C82.8509 48.9218 80.4591 46.6689 78.5276 44.6206L66.9375 32.4971C67.9068 33.0321 68.771 33.7986 69.6619 34.4552L76.0464 39.3923C79.8579 42.3192 83.8658 45.0112 87.5179 48.1376L84.3529 51.3074Z" fill="#FEEE27"/>
<path d="M165.258 241.566C165.377 241.426 165.454 241.234 165.616 241.148C165.687 241.11 166.242 241.07 166.342 241.056L168.74 240.698L171.286 260.244L171.774 264.213C171.867 264.882 172.084 265.563 171.952 266.235L171.871 265.946L167.915 252.508C166.89 248.899 165.816 245.283 165.258 241.566Z" fill="#FEEE27"/>
<path d="M205.711 49.1392L225.935 31.167C225.187 32.6366 223.523 34.0801 222.446 35.3559L212.777 47.2697C211.541 48.8813 209.929 50.6492 209.123 52.528L205.711 49.1392Z" fill="#FEEE27"/>
<path d="M128.161 243.162L120.979 266.11C120.881 266.445 120.963 266.303 120.808 266.509C120.74 266.203 120.872 265.748 120.909 265.423L121.551 261.292L123.757 246.194C124.038 244.484 124.151 242.639 124.654 240.983C125.378 241.076 126.151 241.121 126.859 241.302L128.161 243.162Z" fill="#FEEE27"/>
<path d="M196.656 41.9685C199.214 38.3231 202.375 35.1029 205.3 31.7522L214.298 21.3975C212.978 24.0215 211.193 26.4886 209.601 28.9586L203.372 38.7901C202.215 40.5993 200.774 42.4721 199.861 44.3988L196.656 41.9685Z" fill="#FEEE27"/>
<path d="M186.199 35.6688L190.596 29.1618L197.948 18.1942C199.021 16.6188 200.103 14.4504 201.469 13.1504L193.363 30.3932L191.13 34.9553C190.701 35.8225 190.178 36.7157 189.877 37.6327L186.199 35.6688Z" fill="#FEEE27"/>
<path d="M176.352 239.197C177.582 239.034 178.978 238.515 180.185 238.182L187.757 262.97C186.65 261.174 185.839 259.064 184.879 257.167L180.273 248.071L176.352 239.197Z" fill="#FEEE27"/>
<path d="M124.755 28.9112L121.195 3.25977C122.005 4.42021 122.432 6.53681 122.88 7.90185L128.859 28.0041L124.755 28.9112Z" fill="#FEEE27"/>
<path d="M102.352 37.9747L91.918 14.5986C92.8942 15.6764 93.7015 16.9791 94.5177 18.1803L98.5041 24.1446L106.358 35.7332L102.352 37.9747Z" fill="#FEEE27"/>
<path d="M163.812 28.0073L166.805 18.5092L169.728 9.52582L171.275 4.67316C171.47 4.07646 171.636 3.25421 171.956 2.72461C171.949 4.54016 171.554 6.40365 171.304 8.20213L169.807 18.5374C169.273 22.0154 168.997 25.7133 168.171 29.1261L163.812 28.0073Z" fill="#FEEE27"/>
<path d="M113.42 32.557C112.945 31.6248 112.727 30.3506 112.446 29.3384L110.624 22.9275L105.277 6.10254C105.998 7.0542 106.486 8.13227 107.037 9.18518L109.647 14.3344L117.87 30.8924L113.42 32.557Z" fill="#FEEE27"/>
<path d="M40.9428 53.9355C41.5964 55.4405 42.0248 56.9685 42.8027 58.4237C43.1918 59.1516 44.0075 59.3532 44.7249 59.674L48.5612 61.338C47.0937 61.834 45.3497 62.2243 44.0302 63.055C42.4513 64.0492 41.5491 67.3732 41.1489 69.131C40.5264 68.0379 40.1547 66.7918 39.7075 65.6191C39.3798 64.76 38.9475 63.8305 38.1992 63.2548C37.6807 62.8561 36.9438 62.6365 36.3346 62.3918L33.1953 61.0456L37.8721 59.3957C38.1498 59.269 38.624 59.0958 38.8241 58.8739C39.1362 58.5279 39.381 57.8156 39.5691 57.3788L40.9428 53.9355Z" fill="#01005C"/>
<path d="M40.882 57.5547C41.2489 58.1834 41.5667 58.9059 42.0283 59.4703C42.7236 60.3204 43.8385 60.8578 44.8 61.3488C43.7615 61.8406 42.5672 62.4358 41.8914 63.4012C41.493 63.9698 41.2292 64.7133 40.9521 65.3504C40.1882 63.2098 38.9083 62.2911 37.0469 61.1493C37.9332 60.7685 39.052 60.345 39.6766 59.5838C40.1583 58.9964 40.5177 58.2221 40.882 57.5547Z" fill="#FEFEFE"/>
<path d="M175.035 31.1405L187.184 6.94727L179.562 32.7017L175.035 31.1405Z" fill="#FEEE27"/>
<path d="M248.473 77.0244C248.673 77.3764 248.893 77.7251 249.056 78.0959C247.251 79.138 245.722 80.6289 243.973 81.7683C239.932 84.4014 235.653 86.6767 231.389 88.9224C231.205 88.4401 230.656 87.384 230.621 86.9065C230.609 86.7342 230.946 86.1028 231.021 85.9213L232.222 82.8293C234.451 82.3288 236.685 81.3022 238.819 80.4728L248.473 77.0244Z" fill="#FEEE27"/>
<path d="M56.888 210.095C57.8753 210.045 58.8312 210.039 59.7208 210.545C60.9891 211.265 61.9438 212.366 62.3029 213.796C62.6312 215.102 62.4275 216.569 61.7134 217.709C60.7824 219.197 59.5588 219.841 57.9187 220.253C56.6831 220.287 55.5095 220.188 54.4434 219.498C53.2913 218.753 52.5101 217.454 52.2738 216.114C52.0482 214.834 52.2546 213.464 53.0152 212.391C53.9665 211.05 55.3295 210.412 56.888 210.095Z" fill="#01005C"/>
<path d="M60.2543 212.552C60.8525 213.465 61.3195 214.394 61.0706 215.519C60.8052 216.72 60.0979 217.771 59.0277 218.392C58.2566 218.84 57.3292 218.958 56.4707 218.714C55.4436 218.423 54.4805 217.702 54.0046 216.735C53.6265 215.968 53.5253 215.109 53.5738 214.265L53.8353 214.889C54.0612 215.348 54.5303 215.967 55.0491 216.118C55.8159 216.341 57.5362 216.437 58.2039 216.025C59.5051 215.222 59.9302 213.976 60.2543 212.552Z" fill="#FE8000"/>
<path d="M53.5742 214.265L53.6269 214.13L53.7201 213.907C53.9073 213.438 54.0864 213.075 54.4192 212.685C55.1684 211.806 56.0473 211.309 57.2095 211.282C58.4784 211.252 59.3603 211.697 60.2547 212.551C59.9306 213.975 59.5055 215.221 58.2043 216.024C57.5366 216.437 55.8163 216.341 55.0495 216.118C54.5307 215.967 54.0616 215.348 53.8357 214.889L53.5742 214.265Z" fill="#FEEE27"/>
<path d="M56.5957 211.792C56.7084 211.767 56.8192 211.736 56.9369 211.741C57.3171 211.757 57.6325 211.866 57.8745 212.177C58.1273 212.501 58.0509 212.77 58.0072 213.14C57.6166 213.536 57.2931 213.754 56.78 213.968L56.5913 213.989C56.0278 214.023 55.7253 213.89 55.3158 213.541C55.2226 213.177 55.1645 213.045 55.3667 212.691C55.63 212.23 56.1177 211.961 56.5957 211.792Z" fill="#FEFEFE"/>
<path d="M248.471 77.0239C247.068 75.2775 245.596 74.7284 243.512 74.1219L240.871 73.4952C242.284 73.1103 243.601 72.6127 244.955 72.0583C246.52 71.4169 247.826 71.088 248.695 69.5295L251.035 64.0059C251.572 65.8121 252.613 69.9069 254.385 70.8835C255.184 71.3229 259.617 72.6804 259.832 73.0234L255.163 75.3266C254.917 75.4512 254.228 75.713 254.055 75.9006C253.828 76.1483 253.588 76.8334 253.434 77.1545C252.561 78.9688 251.974 80.9096 251.086 82.7081C250.543 81.7912 250.158 80.755 249.741 79.7743C249.518 79.2498 249.189 78.6465 249.054 78.0953C248.891 77.7245 248.671 77.3758 248.471 77.0239Z" fill="#01005C"/>
<path d="M250.973 67.2812L252.352 70.4481C253.151 71.9111 255.237 72.5967 256.742 73.0769C253.018 74.9829 252.495 75.8336 251.106 79.7313L250.24 77.8364C248.914 75.1857 247.52 74.2904 244.789 73.3821L244.973 73.3186C246.103 72.9232 247.54 72.4161 248.432 71.616C249.617 70.5526 250.295 68.7071 250.973 67.2812Z" fill="#FEFEFE"/>
<path d="M85.6715 238.682C85.625 240.686 85.3941 242.434 83.8889 243.918C82.904 244.888 81.2301 245.661 79.8177 245.573C78.113 245.468 76.3418 244.51 75.2661 243.2C74.2677 241.985 73.8858 240.6 74.0871 239.043C74.2938 237.443 75.0966 236.082 76.4113 235.152C77.7383 234.214 79.5305 233.835 81.1184 234.196C83.1786 234.665 84.3604 236.076 85.4208 237.774L85.6715 238.682Z" fill="#01005C"/>
<path d="M75.6523 238.385L75.8512 237.928C76.4378 236.521 77.0297 235.99 78.413 235.344C78.8851 235.509 79.3113 235.628 79.8068 235.697C78.8138 235.894 78.0397 236.243 77.4592 237.113L77.3451 237.305C76.7559 237.527 76.3892 237.631 76.1445 238.269C76.0274 238.573 76.0109 238.918 75.9833 239.241C75.9058 238.952 75.7641 238.663 75.6523 238.385Z" fill="#F41C68"/>
<path d="M78.4102 235.344C79.8342 235.104 81.124 235.056 82.3543 235.97C82.9495 236.412 83.4228 237.022 83.7996 237.654L83.3314 238.254C83.2236 238.03 82.9336 237.516 82.7161 237.382C82.3201 237.138 82.1167 237.278 81.7399 236.884C81.6725 236.68 81.6006 236.468 81.4757 236.291C81.0911 235.745 80.4045 235.746 79.8039 235.697C79.3085 235.628 78.8822 235.509 78.4102 235.344Z" fill="#F10346"/>
<path d="M83.7991 237.653C84.3305 238.713 84.488 239.799 84.136 240.95C83.8314 241.948 83.1032 242.912 82.1524 243.374C80.9387 243.964 79.136 243.977 77.8929 243.484C76.8259 243.061 75.9791 242.349 75.5669 241.254C75.4779 241.018 75.4267 240.775 75.3369 240.538C75.0828 239.868 75.4471 239.041 75.649 238.385C75.7607 238.663 75.9024 238.951 75.98 239.24L76.1055 239.632C76.4527 240.515 77.259 241.147 78.1316 241.465C79.148 241.834 80.3977 241.799 81.3553 241.283C82.6087 240.607 82.9253 239.517 83.3309 238.254L83.7991 237.653Z" fill="#C30031"/>
<path d="M79.8039 235.697C80.4045 235.745 81.091 235.745 81.4757 236.291C81.6006 236.468 81.6725 236.679 81.7399 236.883C82.1167 237.277 82.3201 237.138 82.7161 237.382C82.9336 237.516 83.2235 238.03 83.3314 238.254C82.9258 239.518 82.6091 240.607 81.3558 241.283C80.3982 241.8 79.1485 241.835 78.1321 241.465C77.2595 241.148 76.4532 240.515 76.106 239.633L75.9805 239.241C76.008 238.918 76.0245 238.574 76.1416 238.269C76.3864 237.631 76.753 237.528 77.3422 237.305L77.4563 237.114C78.0369 236.243 78.8109 235.894 79.8039 235.697Z" fill="#FE367F"/>
<path d="M79.8054 235.697C80.406 235.745 81.0926 235.745 81.4772 236.291C81.6021 236.468 81.674 236.679 81.7414 236.883C81.624 237.398 81.5877 237.604 81.1201 237.93C80.5893 238.299 78.9176 238.492 78.2846 238.372C78.0177 238.322 77.797 238.154 77.5801 238.003C77.4255 237.726 77.3773 237.631 77.3438 237.305L77.4579 237.114C78.0384 236.243 78.8124 235.894 79.8054 235.697Z" fill="#FEFEFE"/>
<path d="M239.516 42.6686C240.683 42.5919 241.955 42.7794 242.97 43.3824C244.426 44.2475 245.48 45.6515 245.868 47.3002C246.199 48.709 245.939 50.3798 245.165 51.6128C244.188 53.1683 242.755 53.9034 241.009 54.3081C239.377 54.3357 237.945 54.285 236.538 53.3322C235.222 52.441 234.321 51.0769 234.061 49.5001C233.802 47.9298 234.101 46.3078 235.09 45.0362C236.223 43.5792 237.733 42.9361 239.516 42.6686Z" fill="#01005C"/>
<path d="M235.73 46.7699C236.01 46.1447 236.278 45.5639 236.754 45.0598C237.796 43.9566 239.081 43.7903 240.525 43.7334C241.922 43.9008 243.062 44.7312 243.898 45.8437C244.615 46.799 244.861 48.0987 244.638 49.2651C244.387 50.5765 243.609 51.6792 242.492 52.4041C241.454 53.0784 240.272 53.271 239.064 52.9891C237.763 52.6854 236.641 51.8745 235.97 50.7128C235.284 49.5272 235.223 48.3617 235.624 47.0686L235.73 46.7699Z" fill="#FEA600"/>
<path d="M235.73 46.7699C236.01 46.1447 236.278 45.5639 236.754 45.0598C237.796 43.9566 239.082 43.7903 240.525 43.7334C241.218 44.331 241.675 44.8255 242.123 45.6301C241.033 45.6394 239.677 45.5202 238.631 45.7847C237.604 46.0441 236.798 46.7019 235.73 46.7699Z" fill="#FEFEFE"/>
<path d="M248.753 186.301C250.074 186.274 251.099 186.412 252.277 187.081C253.677 187.878 254.728 189.21 255.106 190.789C255.538 192.598 255.122 194.519 254.13 196.074C252.992 197.857 251.405 198.729 249.384 199.165C247.84 199.12 246.345 198.825 245.006 198.019C243.649 197.203 242.847 195.845 242.525 194.319C242.181 192.695 242.579 190.937 243.489 189.566C244.746 187.673 246.554 186.71 248.753 186.301Z" fill="#01005C"/>
<path d="M244.367 190.781C244.524 191.432 244.618 192.121 245.09 192.621L245.254 192.797C246.082 193.655 247.169 194.105 248.363 194.13C250.607 194.177 252.095 193.052 253.858 191.858C253.98 192.641 253.927 193.449 253.635 194.194C253.089 195.585 251.941 196.68 250.586 197.266C249.403 197.779 248.011 197.768 246.82 197.287C245.672 196.822 244.766 195.912 244.291 194.763C243.695 193.319 243.812 192.197 244.367 190.781Z" fill="#C30031"/>
<path d="M244.367 190.781C245.102 189.329 245.979 188.389 247.563 187.897C248.8 187.512 250.494 187.675 251.623 188.299C252.825 188.963 253.409 189.991 253.732 191.29L253.857 191.859C252.095 193.052 250.607 194.177 248.363 194.13C247.169 194.105 246.081 193.655 245.254 192.797L245.09 192.622C244.618 192.121 244.524 191.432 244.367 190.781Z" fill="#FE367F"/>
<path d="M248.468 188.428C249.221 188.368 250.013 188.555 250.663 188.953C251.082 189.209 251.279 189.446 251.415 189.926C251.226 190.427 251.02 190.46 250.572 190.733L250.379 190.755C249.606 190.832 248.575 190.863 247.967 190.291C247.56 189.909 247.547 189.72 247.531 189.177C247.853 188.7 247.967 188.665 248.468 188.428Z" fill="#FEFEFE"/>
<path d="M65.7952 53.2997L65.1041 53.4821C63.3844 53.8431 61.6917 53.4678 60.2284 52.5104C58.7157 51.521 57.6179 49.9861 57.241 48.2155C56.8579 46.4149 57.12 44.5446 58.1807 43.0034C59.1147 41.6464 60.8368 40.3734 62.4768 40.0735C64.2244 39.7539 65.7886 40.1475 67.2396 41.1465C68.9542 42.3267 70.0499 44.254 70.3773 46.293C70.7188 48.4207 69.7405 50.1095 68.5145 51.7322C67.6446 52.3834 66.8193 52.913 65.7952 53.2997Z" fill="#01005C"/>
<path d="M68.1656 44.0605C68.9771 45.2393 69.232 46.5693 68.9543 47.9813C68.6967 49.2906 67.9718 50.4601 66.8509 51.2047C65.6755 51.986 64.335 52.3571 62.9382 52.0495C61.4375 51.7191 59.979 50.7342 59.1457 49.4377C58.4384 48.3375 58.1922 47.1072 58.4627 45.8255C58.6574 45.9917 58.8973 46.1553 58.9998 46.3985C59.5294 47.6554 59.9988 48.6541 61.1349 49.4782C62.1058 50.1821 63.3315 50.4679 64.5117 50.2117C65.8088 49.9302 66.8111 49.0887 67.4865 47.9687C68.0509 47.0324 68.3945 45.703 68.0692 44.6345C67.9961 44.3945 68.0847 44.2969 68.1656 44.0605Z" fill="#8F003B"/>
<path d="M61.7569 41.5806C62.4755 40.9973 63.4849 41.0369 64.3725 41.1378C65.8352 41.3044 66.8264 42.0529 67.6669 43.2128L68.1639 44.0608C68.083 44.2972 67.9943 44.3948 68.0674 44.6347C68.3927 45.7032 68.0491 47.0326 67.4848 47.969C66.8093 49.089 65.807 49.9304 64.51 50.212C63.3298 50.4681 62.104 50.1823 61.1332 49.4784C59.997 48.6544 59.5276 47.6557 58.998 46.3988C58.8956 46.1555 58.6556 45.992 58.4609 45.8257C58.9627 44.3538 59.252 43.3386 60.5473 42.324L61.7569 41.5806Z" fill="#F41C68"/>
<path d="M59.8744 44.3452L60.3007 44.2158C60.7563 44.4093 60.8189 44.4944 61.1229 44.8919C61.0717 45.3223 60.9411 45.4167 60.6736 45.7474L60.2243 45.9134C59.807 45.7357 59.7507 45.7085 59.4922 45.3394C59.4973 44.8655 59.6114 44.7158 59.8744 44.3452Z" fill="#FEFEFE"/>
<path d="M61.7565 41.58C62.9487 41.3388 64.7652 41.1333 65.8175 41.8864C66.2057 42.1641 66.2593 42.3294 66.4289 42.7725C66.3758 43.2116 66.3102 43.3739 66.0188 43.7073C65.0665 44.16 63.7279 44.0392 62.6764 44.1486C62.2352 44.1944 61.628 44.3409 61.2012 44.2223C60.9385 44.1492 60.6746 43.9122 60.4679 43.746C60.2944 43.1762 60.4197 42.8971 60.547 42.3234L61.7565 41.58Z" fill="#FEFEFE"/>
<path d="M42.3172 192.166C43.2548 192.763 44.1079 193.415 44.7978 194.293C46.3084 196.218 46.8098 198.484 46.4989 200.881C46.235 202.915 45.0449 204.877 43.4223 206.119C41.9865 207.218 39.9583 207.843 38.1547 207.58L37.9091 207.541C36.5246 207.341 35.3015 206.958 34.1486 206.132C32.3855 204.87 31.2568 203.053 30.9524 200.906L30.9168 200.634C30.8425 200.099 30.7817 199.583 30.8002 199.042C30.8757 196.853 31.7573 194.788 33.403 193.323C35.0847 191.825 37.212 191.175 39.4377 191.367C40.0682 191.421 40.7168 191.623 41.329 191.783L42.3172 192.166Z" fill="#01005C"/>
<path d="M44.2414 196.139C44.5739 196.832 44.7821 197.399 44.9166 198.163L44.9561 198.374C45.1272 199.35 45.0568 200.44 44.7653 201.383L44.694 201.62C44.2177 203.14 43.0022 204.469 41.5949 205.204C40.0525 206.009 38.5341 206.251 36.8585 205.684C35.2181 205.129 33.6925 203.884 32.9302 202.315C32.3638 201.148 32.1148 199.826 32.4216 198.549C32.6076 198.859 32.796 199.164 32.9344 199.499C33.3313 200.458 33.9298 201.183 34.7775 201.794C36.0563 202.715 37.9254 203.207 39.4831 202.956C41.0165 202.709 42.2848 201.918 43.1801 200.641C44.0152 199.45 44.2007 198.465 43.9604 197.058C43.8966 196.685 44.0808 196.473 44.2414 196.139Z" fill="#C30031"/>
<path d="M32.418 198.549L32.4689 198.013C32.7951 196.285 33.6275 194.754 35.1283 193.77C36.605 192.802 38.2606 192.51 39.9776 192.916C41.9514 193.381 43.2253 194.436 44.2378 196.139C44.0772 196.473 43.893 196.685 43.9568 197.058C44.1971 198.465 44.0116 199.45 43.1765 200.641C42.2812 201.918 41.0129 202.709 39.4795 202.956C37.9218 203.207 36.0527 202.715 34.7739 201.794C33.9262 201.183 33.3277 200.458 32.9308 199.499C32.7924 199.164 32.604 198.859 32.418 198.549Z" fill="#F10346"/>
<path d="M34.8402 195.106C35.486 194.454 36.0539 193.988 36.975 193.805C38.24 193.553 39.4825 193.811 40.5381 194.544C41.1253 195.02 41.5341 195.528 41.8774 196.204C41.6336 197.377 41.411 198.435 40.3428 199.16C39.5377 199.706 38.2676 200.016 37.3096 199.85C36.3523 199.684 35.01 198.587 34.5089 197.771C34.1803 197.235 34.011 196.463 34.1695 195.846C34.2279 195.618 34.3414 195.428 34.4639 195.23L34.8402 195.106Z" fill="#FE367F"/>
<path d="M34.8438 195.106C35.4896 194.454 36.0575 193.988 36.9786 193.805C38.2436 193.553 39.4861 193.811 40.5417 194.544C40.1335 195.406 39.7416 196.058 38.7903 196.387C37.9863 196.665 36.3598 196.911 35.5848 196.476C35.0753 196.189 34.9534 195.628 34.8438 195.106Z" fill="#FEFEFE"/>
<path d="M41.6445 150.447C39.793 152.687 37.76 154.312 35.0015 155.282C31.7047 156.441 27.7117 156.142 24.579 154.603C21.2289 152.958 18.8427 149.931 17.6871 146.42C16.5041 142.826 16.8726 138.595 18.6082 135.237C20.303 131.958 23.2517 129.573 26.7642 128.495C30.2036 127.439 34.1567 127.845 37.3098 129.554C40.4802 131.272 42.8352 134.383 43.8845 137.804C44.2182 138.892 44.3869 139.972 44.5531 141.097L44.5852 142.083C44.3443 144.262 43.9678 146.323 42.952 148.291L41.6445 150.447Z" fill="#01005C"/>
<path d="M42.564 138.606C43.4093 142.055 43.0442 145.463 41.1684 148.527C39.4259 151.373 36.4484 153.544 33.1846 154.288C31.5197 154.668 29.8809 154.576 28.2301 154.202C25.0348 153.478 22.1636 151.471 20.4577 148.672C18.8147 145.975 18.197 142.835 18.7207 139.718L19.8793 141.888L20.0033 142.072C21.2186 143.901 23.112 145.344 25.0495 146.336C27.9449 147.82 31.3142 147.944 34.3795 146.888C38.2646 145.549 40.8365 142.173 42.564 138.606Z" fill="#0482F5"/>
<path d="M18.7227 139.718C19.0108 138.237 19.4053 136.859 20.1554 135.538C21.8122 132.621 24.7429 130.48 27.9772 129.654L28.2405 129.589C31.0316 128.881 34.1619 129.551 36.6434 130.936C39.6853 132.633 41.6191 135.28 42.566 138.607C40.8385 142.173 38.2666 145.55 34.3815 146.888C31.3162 147.944 27.9469 147.82 25.0515 146.336C23.114 145.344 21.2209 143.901 20.0053 142.073L19.8816 141.889L18.7227 139.718Z" fill="#3AF1FC"/>
<path d="M29.1355 130.733C30.0452 130.716 30.857 130.741 31.6738 131.184C32.1735 131.456 32.7687 131.97 32.8882 132.555C32.9939 133.072 32.9074 133.55 32.6114 133.988C31.9455 134.971 31.0705 135.255 29.9574 135.474C29.1402 135.497 28.2389 135.387 27.5125 134.993C26.8927 134.658 26.3194 134.18 26.1469 133.467C26.0456 133.05 26.0813 132.516 26.3218 132.164C26.9563 131.236 28.0978 130.94 29.1355 130.733Z" fill="#FEFEFE"/>
<path d="M139.26 15.2614L146.543 5.66602L153.625 15.6643L156.404 19.4155C157.157 20.788 158.18 22.0425 159.099 23.3078L162.256 27.7723L163.811 28.0077L168.169 29.1265L175.035 31.1407L179.562 32.7019C181.792 33.4292 184.136 34.5567 186.199 35.6689L189.877 37.6328L194.41 40.4782C195.124 40.9437 195.89 41.6203 196.655 41.9684L199.861 44.3986L204.283 48.0031C204.691 48.3254 205.251 48.9236 205.713 49.1396L209.125 52.5283L213.932 58.0807C214.65 58.9359 215.712 60.5265 216.664 61.0202C217.82 61.4273 219.433 61.341 220.674 61.4518C224.285 61.7748 227.978 62.1995 231.601 62.2621L234.214 62.4416C236.118 62.5395 238.083 62.4463 239.96 62.7737L236.677 71.274L235.864 73.3085L232.221 82.8293L231.02 85.9212C230.945 86.1028 230.608 86.7342 230.62 86.9064C230.655 87.3839 231.204 88.4401 231.388 88.9224L233.059 93.8257C235.137 92.407 237.335 91.0971 239.655 90.1101C242.625 88.8466 245.726 88.0265 248.779 87.0053C254.985 84.9291 261.065 81.7854 265.948 77.3844C268.21 75.3457 270.23 73.0611 272.349 70.8804C271.737 74.0313 271.079 77.0924 270.059 80.1433C269.005 83.2963 267.499 86.3598 265.933 89.2899C263.294 94.2256 260.421 98.7143 256.464 102.715C254.757 104.44 252.868 105.846 251.001 107.377L249.265 108.45C244.309 111.062 238.563 112.854 234.307 116.577C233.899 116.934 233.176 117.537 233.011 118.048C232.943 118.262 232.987 118.528 233.013 118.746L233.511 120.676L244.081 119.371C246.534 119.047 248.99 118.652 251.47 118.617L252.747 116.195C253.854 114.417 254.611 111.829 255.207 109.811C255.439 109.026 255.525 107.92 255.977 107.25C256.335 108.32 256.382 109.498 256.529 110.614C256.768 112.438 257.032 114.235 257.445 116.029C257.579 116.63 257.696 117.233 257.909 117.813C259.024 121.871 261.32 126.333 265.111 128.509L265.341 128.638C267.405 129.817 269.437 130.875 271.672 131.698C274.8 132.851 278.095 133.535 281.347 134.237C281.556 134.282 282.351 134.394 282.441 134.538C279.485 135.116 276.519 135.919 273.62 136.735C269.481 137.9 265.386 139.154 261.825 141.664C259.452 143.337 257.384 145.649 255.767 148.043L255.333 148.758L254.585 150.164C253.878 151.208 253.36 152.403 252.905 153.576C256.049 153.876 258.498 155.055 260.545 157.503C262.494 159.834 263.677 162.99 263.335 166.037C262.999 169.043 261.447 171.72 259.081 173.584L257.584 174.633L256.05 175.374C253.056 176.25 250.864 176.083 247.913 175.1C245.707 174.021 243.951 172.414 242.554 170.411L241.935 173.656C240.876 178.518 239.428 183.16 237.476 187.738C236.597 189.801 235.504 191.798 234.683 193.878L233.365 196.531C232.198 198.565 231.007 200.626 229.647 202.537C227.552 205.484 225.166 208.269 222.862 211.055L220.721 213.317C220.227 213.796 219.607 214.26 219.216 214.823L212.454 220.734L209.614 222.906C208.987 223.563 208.6 224.496 208.206 225.309C207.338 227.098 206.49 229.009 205.867 230.896L204.406 234.04C203.946 234.783 203.53 235.488 202.877 236.08L193.045 236.161L188.992 236.237C187.966 236.259 186.951 236.234 185.96 236.533L180.184 238.182C178.977 238.515 177.581 239.034 176.351 239.197L168.739 240.698L166.341 241.056C166.241 241.07 165.686 241.11 165.615 241.148C165.453 241.234 165.376 241.427 165.256 241.566L158.902 250.035C158.312 250.826 157.101 252.121 156.821 253.014L154.855 256.055L145.979 267.856L138.102 257.043L136.278 254.534L128.163 243.162L126.86 241.302C126.153 241.122 125.38 241.076 124.655 240.984L116.016 239.334L112.672 238.476C109.642 237.634 106.403 236.575 103.293 236.153L99.9811 236.212L94.9898 236.124L91.0328 231.584L90.023 230.508C89.4188 229.656 88.5292 228.87 87.8198 228.093L83.5465 223.351C83.188 222.863 82.7266 222.468 82.286 222.055C81.426 221.207 80.1155 220.539 79.1111 219.84L73.2196 215.566L72.4714 214.98C70.0043 212.82 67.5414 210.63 65.2951 208.238C62.8888 205.675 60.6641 202.832 58.5856 199.997L58.0377 199.169L51.7166 188.02L51.1146 186.654L47.582 176.574L47.1764 174.907C46.5309 171.475 45.7943 168.142 45.6128 164.637L45.4966 162.493L46.1927 150.004L46.6366 147.87L48.0127 142.075L48.3947 141.005C49.4197 137.692 50.978 134.561 52.6548 131.532L53.1077 130.866L56.4573 125.598L49.6441 121.008L46.5462 118.894L38.2418 111.646L49.1483 110.973L49.296 110.95L53.1413 110.741L56.7236 110.606C53.0709 108.196 49.6126 105.79 46.3658 102.836C43.7175 100.426 41.441 97.8318 39.1731 95.0721C37.7206 93.3045 36.2474 91.5743 34.9474 89.6874C33.3874 87.4232 32.0457 85.0118 30.7292 82.6007C27.1984 76.1347 24.3081 69.1655 22.7031 61.9611C24.1826 63.1191 25.5144 64.666 26.945 65.9142C30.3554 68.889 34.026 71.49 37.8851 73.8525C43.5441 77.317 49.7933 79.7317 55.4894 83.1316C58.1365 84.7117 60.5021 86.6219 62.8963 88.5527L63.6713 86.6653C63.9882 85.7158 61.2845 82.7874 60.7618 81.8375L60.665 81.6575C60.6273 81.1081 60.2825 80.5566 60.0345 80.0753C59.4881 79.0146 58.9465 77.95 58.3118 76.939C57.7879 75.6402 57.0923 74.3896 56.5136 73.1117C54.8808 69.5073 53.2321 65.7449 52.2558 61.9039C53.4813 61.7208 54.7975 61.5156 56.0328 61.4674L68.8864 61.4728L73.7157 61.4965C74.3037 61.495 75.1424 61.5944 75.6987 61.3979L75.9015 61.32C76.9939 60.2291 77.9614 58.5852 78.8921 57.3238L84.3529 51.3071L87.5179 48.1373C89.3119 46.769 90.7895 44.7602 92.7348 43.624C93.9246 42.5798 93.9803 40.7831 94.9053 39.5154C95.2255 39.862 95.5874 40.1517 95.9498 40.4515C95.7968 40.6702 95.7701 40.8092 95.7608 41.0692C95.7474 41.4406 95.6934 41.2857 95.9474 41.5577C98.2105 40.8574 100.067 39.0646 102.189 38.0509L102.352 37.9752L106.359 35.7336L113.422 32.5575L117.871 30.893L124.754 28.9109L128.858 28.0038L130.84 27.6809C131.338 26.6256 132.076 25.6608 132.751 24.7121C134.071 22.8597 135.49 21.0421 136.681 19.1052L139.26 15.2614Z" fill="#01005C"/>
<path d="M243.09 148.339C243.798 148.394 244.53 148.491 245.239 148.46L245.791 150.003L243.174 149.986L243.09 148.339Z" fill="#FEEE27"/>
<path d="M100.809 56.777L101.029 56.7617L101.082 56.8609C99.73 58.1181 98.3566 59.2492 97.221 60.7262L97.0021 60.8703L96.8945 60.746L97.2669 59.7761C98.0184 58.0156 99.1363 57.4612 100.809 56.777Z" fill="#D0071E"/>
<path d="M243.091 148.339L242.836 144.196C243.729 145.556 244.633 146.944 245.241 148.46C244.531 148.491 243.8 148.394 243.091 148.339Z" fill="#07E2CA"/>
<path d="M144.563 106.381L144.773 106.42L145 105.902C145.47 106.218 145.365 106.837 145.795 107.265C145.314 108.498 144.685 109.674 144.087 110.852C143.834 111.351 143.611 111.982 143.15 112.315C142.855 112.162 142.526 112.06 142.215 111.944C143.329 110.425 143.735 108.106 144.563 106.381Z" fill="#FEBD1E"/>
<path d="M59.25 129.78L60.7855 127.805L65.5021 129.659L63.8145 131.394L63.299 131.671C61.9549 131.226 60.4212 130.572 59.25 129.78Z" fill="#F75205"/>
<path d="M140.526 117.811L141.352 117.866C141.46 118.269 141.545 118.694 141.477 119.111C141.294 120.226 139.187 123.91 140.356 124.552C140.596 124.683 140.931 124.72 141.201 124.696C141.257 124.987 141.307 125.262 141.415 125.539L138.234 128.277C138.58 124.874 139.55 121.097 140.526 117.811Z" fill="#FEA600"/>
<path d="M144.562 106.382C144.923 105.304 145.306 103.677 145.987 102.813L149.679 112.014C148.956 112.073 147.957 112.037 147.272 112.222L146.117 107.406L145.794 107.265C145.364 106.838 145.47 106.218 144.999 105.903L144.772 106.42L144.562 106.382Z" fill="#FFDD0C"/>
<path d="M243.176 149.986L245.793 150.003L247.095 154.802C245.481 155.818 244.353 156.919 243.203 158.441L243.176 149.986Z" fill="#20B9AB"/>
<path d="M136.992 22.6265L146.408 9.59082L147.992 11.9456C145.061 12.4862 141.463 20.0843 138.752 22.0017C138.269 22.3434 137.561 22.4866 136.992 22.6265Z" fill="#FEFEFE"/>
<path d="M57.1521 66.1987L56.8789 65.4639C57.0071 65.203 57.0502 65.0972 57.2902 64.9271C58.5453 64.0356 65.9878 64.4026 67.6105 64.6201L73.5044 64.957L72.6803 66.2846L71.6975 66.3224L57.1521 66.1987Z" fill="#FEEE27"/>
<path d="M220.429 66.9265C219.701 66.1983 219.046 64.726 218.547 63.7891L232.95 64.5942C232.491 65.4788 231.964 65.9185 231.011 66.2394C230.454 66.4275 229.898 66.526 229.319 66.6099C226.421 67.0296 223.354 67.0517 220.429 66.9265Z" fill="#FEEE27"/>
<path d="M262.436 84.3281C262.262 84.8766 261.554 85.328 261.124 85.6893C259.184 87.3158 257.07 88.5862 254.83 89.7499C251.237 91.6167 247.372 92.8829 243.729 94.6301C241.193 95.8466 238.694 97.5627 236.401 99.1878C234.272 100.697 232.306 102.469 230.601 104.445C229.937 105.214 228.863 107.092 228.033 107.514C227.904 107.375 227.858 107.271 227.781 107.101C231.176 101.215 237.143 95.9535 243.403 93.2909C247.304 91.6314 251.422 90.4787 255.263 88.671C257.813 87.4704 260.118 85.9148 262.436 84.3281Z" fill="#FEFEFE"/>
<path d="M66.201 92.2595C65.8928 91.9606 65.672 91.6158 65.4258 91.2659C66.1797 88.2025 67.2728 85.2091 68.3724 82.2553C70.4195 76.7568 72.7599 71.4359 75.7832 66.397C77.931 62.8174 80.4702 59.4469 83.1012 56.21L84.7633 56.3825L84.6007 56.6356C83.9728 57.5945 83.1509 58.4838 82.4326 59.381C80.8575 61.3484 79.2669 63.3176 77.8815 65.4258C73.7175 71.7627 70.5576 78.9081 68.0885 86.0577L66.201 92.2595Z" fill="#FE367F"/>
<path d="M216.362 94.9082C216.487 95.0319 216.585 95.1922 216.738 95.2793C217.221 95.5552 218.71 95.5489 219.282 95.5912L226.01 95.9467C227.516 95.9779 229.087 95.8886 230.582 96.0387C227.993 98.1349 226.134 100.772 224.743 103.774C223.947 102.689 222.871 101.723 221.928 100.759L216.203 95.1422L216.362 94.9082Z" fill="#D0071E"/>
<path d="M84.7615 56.3818L86.528 56.7844C79.2367 64.431 73.932 73.6381 70.3384 83.5376L68.4377 89.1127C68.066 90.2768 67.7143 92.1238 67.0116 93.0913L66.1992 92.2589L68.0867 86.0571C70.5558 78.9075 73.7157 71.7621 77.8798 65.4252C79.2652 63.3169 80.8558 61.3477 82.4308 59.3803C83.1491 58.4832 83.971 57.5938 84.5989 56.635L84.7615 56.3818Z" fill="#FEFEFE"/>
<path d="M57.1484 66.1982L71.6938 66.322L72.6767 66.2842L71.2442 68.783L67.4091 68.8501L61.9873 68.9082L61.8088 69.1329L62.0176 69.7266L62.2114 70.2871C62.4744 72.1961 62.7766 74.3037 61.7144 76.0608L57.1484 66.1982Z" fill="#FFDD0C"/>
<path d="M63.8125 131.394L65.5001 129.659L66.9119 130.19L92.3944 140.141L90.7187 141.789L90.4764 141.874L88.1753 140.788C87.7607 140.421 87.019 140.26 86.4915 140.059L82.766 138.633L65.3213 132.307L65.2051 132.402C64.7878 131.997 64.299 131.705 63.8125 131.394Z" fill="#F75205"/>
<path d="M63.8125 131.394L65.5001 129.659L66.9119 130.19C66.4632 130.979 65.773 131.549 65.3213 132.307L65.2051 132.402C64.7878 131.997 64.299 131.705 63.8125 131.394Z" fill="#FFDD0C"/>
<path d="M138.846 130.841L146.02 124.718L149.79 129.068C147.849 131.036 145.9 133.387 143.734 135.081C141.857 134.97 139.878 135.203 138.004 135.362L138.846 130.841Z" fill="#C30031"/>
<path d="M67.4134 68.8503L71.2485 68.7832L65.3112 83.047L65.2516 82.8928C64.5072 81.0347 63.3899 79.3084 62.4571 77.5387C62.2558 77.1564 61.7556 76.4429 61.7188 76.061C62.7809 74.3039 62.4787 72.1962 62.2157 70.2872L62.0219 69.7268L61.8131 69.1331L61.9916 68.9084L67.4134 68.8503Z" fill="#F75205"/>
<path d="M62.0213 69.7271L61.8125 69.1334L61.991 68.9087L67.4128 68.8506C67.1414 71.2287 65.9058 73.8836 65.1408 76.1769C64.5543 75.2492 63.9995 74.2379 63.6349 73.2003L62.2151 70.2875L62.0213 69.7271Z" fill="#D0071E"/>
<path d="M62.0195 69.7268C62.8972 69.5437 64.0834 69.7468 64.8182 70.295C65.0216 70.4466 65.1133 70.5628 65.231 70.7806C65.0761 71.5249 64.6846 72.5503 64.1203 73.0673L63.6332 73.2L62.2133 70.2872L62.0195 69.7268Z" fill="#3A0C2A"/>
<path d="M261.499 162.817C262.053 165.151 261.645 167.772 260.355 169.802C258.981 171.964 256.32 173.792 253.803 174.239C251.264 174.689 248.212 173.673 246.186 172.143C244.686 171.01 243.274 168.971 242.974 167.066C242.858 166.326 242.936 165.568 242.994 164.825C244.527 166.846 246.363 168.328 248.771 169.198C251.181 170.069 253.821 170.07 256.151 168.948C259.049 167.554 260.433 165.828 261.499 162.817Z" fill="#0482F5"/>
<path d="M48.7422 114.262L58.3996 113.614C59.528 113.551 61.1141 113.209 62.1065 113.79L69.2773 117.688L104.532 138.587L112.108 143.381C113.471 144.231 115.056 145.02 116.317 146.013C115.473 145.786 114.699 145.219 113.964 144.767L110.75 142.859L104.087 139.159L60.6764 114.986C59.1595 115.097 57.5222 114.967 55.9951 114.95C53.9249 114.927 51.6229 115.05 49.5917 114.638L49.397 114.595L48.7422 114.262Z" fill="#FEFEFE"/>
<path d="M92.3944 140.142L124.107 153.779L121.732 155.744C119.117 154.068 115.89 152.897 113.051 151.622L97.8932 144.921L93.74 143.16C92.7727 142.77 91.5485 142.419 90.7188 141.789L92.3944 140.142Z" fill="#C30031"/>
<path d="M156.029 43.8193C164.339 45.1889 172.752 47.8327 179.942 52.3091C179.375 52.5427 178.842 52.5047 178.238 52.5089C176.747 52.5194 174.556 52.2111 173.192 52.7536L171.848 53.2709C165.681 50.3033 159.541 48.5956 152.805 47.5017L153.003 47.3363C154.361 46.317 155.258 45.3446 156.029 43.8193Z" fill="#3AF1FC"/>
<path d="M32.5039 75.2021L45.8676 82.9239C48.8598 84.533 52.2159 86.0257 54.9933 87.9682C58.4459 90.3829 61.5935 93.2882 64.7187 96.1054L74.2934 104.694L95.8946 124.331L104.106 131.835C103.964 131.833 103.96 131.848 103.829 131.785C103.272 131.516 102.682 130.85 102.212 130.439L98.27 126.953L78.0195 109.176L60.909 95.5992L49.8558 87.3539C47.5537 85.7729 32.9353 76.5504 32.5039 75.2021Z" fill="#FEFEFE"/>
<path d="M233.512 120.675L244.082 119.371C246.534 119.046 248.99 118.652 251.47 118.617C250.797 119.86 250.117 121.127 249.212 122.22C246.965 124.938 243.562 126.884 240.208 127.873C238.552 128.361 236.732 128.661 235.014 128.813C234.634 126.131 234.268 123.281 233.512 120.675Z" fill="#20B9AB"/>
<path d="M116.317 146.012C116.703 146.08 117.229 146.496 117.579 146.706C119.071 147.601 120.484 148.521 121.839 149.612C119.762 148.819 117.82 147.573 115.773 146.673L104.492 141.993L96.5659 138.549L88.5808 135.682L72.8283 129.358L63.8356 125.796C62.3573 125.175 60.8104 124.595 59.4041 123.826C57.7623 122.928 56.2603 121.718 54.7641 120.602L49.4597 116.759C48.3876 115.97 47.3838 115.133 46.2695 114.397L48.7429 114.262L49.3977 114.595C50.1448 115.641 51.5904 116.358 52.6307 117.103L56.816 120.239C57.7329 120.946 58.8328 122.16 59.8378 122.651C60.9824 123.21 62.4109 123.527 63.6178 123.983L72.0162 127.346L94.4771 136.456C97.1775 137.488 99.8471 138.621 102.608 139.482C103.275 139.69 103.512 139.46 104.088 139.159L110.75 142.858L113.965 144.767C114.7 145.218 115.474 145.786 116.317 146.012Z" fill="url(#paint0_linear_2778_20333)"/>
<path d="M92.0995 62.6807L92.4976 65.193C92.5144 65.3221 92.612 65.7573 92.5809 65.884C92.4724 66.3259 91.6226 67.2712 91.3084 67.7098C85.3534 76.024 80.9887 84.8741 79.5449 95.0997L78.8925 100.77C78.8194 101.645 78.9452 103.084 78.6465 103.868L74.2773 99.9901C74.8144 98.5589 75.0708 96.8811 75.457 95.3954L77.4439 88.6948C79.5251 82.0191 82.7147 75.2209 86.7556 69.5028L92.0995 62.6807Z" fill="#C30031"/>
<path d="M232.951 64.5938L237.111 64.7948L236.254 66.2895L229.279 83.9493L221.643 68.874L220.43 66.926C223.354 67.0512 226.422 67.0291 229.32 66.6094C229.899 66.5255 230.455 66.427 231.012 66.2389C231.964 65.918 232.492 65.4783 232.951 64.5938Z" fill="#F75205"/>
<path d="M232.951 64.5938L237.111 64.7948L236.254 66.2895C233.659 67.1884 231.195 67.5059 228.489 67.8993L221.643 68.874L220.43 66.926C223.354 67.0512 226.422 67.0291 229.32 66.6094C229.899 66.5255 230.455 66.427 231.012 66.2389C231.964 65.918 232.492 65.4783 232.951 64.5938Z" fill="#FEBD1E"/>
<path d="M115.941 235.705L173.459 235.905L169.391 236.849C164.188 237.69 159.077 239.131 153.833 239.76C149.72 240.253 145.546 240.43 141.412 240.119C135.476 239.672 129.715 238.415 123.893 237.253C121.287 236.733 118.483 236.449 115.941 235.705Z" fill="#F41C68"/>
<path d="M84.8945 109.744C84.0012 109.042 83.2428 108.136 82.4688 107.306L115.327 107.318C115.624 106.765 115.538 105.462 115.603 104.798C115.698 103.841 115.874 102.931 116.081 101.994C117.796 94.2303 122.717 86.8822 129.454 82.6031C135.4 78.8268 142.786 77.359 149.685 78.9226L149.506 78.9666C148.359 79.235 147.189 79.2437 146.02 79.3468L141.703 79.9264C133.712 81.2725 126.658 86.1066 122.321 92.9474C119.117 98.0013 117.785 103.481 117.107 109.359L111.365 109.392C110.435 109.394 109.336 109.28 108.443 109.537L93.7751 109.679L87.6081 109.63C86.9035 109.622 85.5083 109.434 84.8945 109.744Z" fill="#172584"/>
<path d="M59.0577 178.109L61.4289 183.25C64.2839 188.794 67.9498 194.131 72.4564 198.451C74.7177 200.619 77.1012 202.724 79.633 204.569C80.1284 204.93 83.4235 207.078 83.5304 207.308C83.5478 207.345 83.3255 208.144 83.3045 208.23C82.6425 210.953 82.2358 213.661 81.9464 216.449L77.7584 213.483C77.5949 213.355 76.953 212.924 76.8847 212.765L77.1501 212.331C77.0854 211.879 76.5441 211.448 76.2349 211.123L73.382 208.045L71.0965 205.249C68.8083 202.3 67.0218 199.135 65.3036 195.83C64.0997 193.514 62.9012 191.158 61.9678 188.718C61.2201 186.764 60.6792 184.699 60.0759 182.695C59.6655 181.331 58.8771 179.522 59.0577 178.109Z" fill="#F75205"/>
<path d="M147.994 11.9453L154.253 20.5738C155.827 22.7865 157.565 24.9154 158.753 27.3687L154.876 27.079C149.579 26.4212 144.181 26.4083 138.858 26.8352L133.531 27.5427L136.994 22.6263C137.563 22.4864 138.272 22.3432 138.754 22.0014C141.465 20.084 145.063 12.486 147.994 11.9453Z" fill="#FFDD0C"/>
<path d="M138.855 26.8357L146.937 15.1582C148.335 16.8974 149.529 18.8001 150.801 20.6333C152.164 22.599 153.977 24.8614 154.873 27.0796C149.576 26.4218 144.179 26.4089 138.855 26.8357Z" fill="#F75205"/>
<path d="M145.794 107.265L146.117 107.406L147.273 112.222C147.957 112.037 148.956 112.073 149.679 112.013L149.818 112.031L159.423 112.445L157.674 113.732C155.699 115.325 153.383 117.615 150.801 117.971C151.079 118.162 151.448 118.386 151.635 118.671C151.96 119.168 152.079 120.127 152.215 120.707L153.267 125.43L152.152 126.483C151.942 126.727 151.814 126.855 151.513 126.977C150.562 126.184 149.703 125.237 148.83 124.359C147.857 123.381 146.849 122.429 146.019 121.323C144.744 122.957 143.011 124.233 141.414 125.539C141.306 125.262 141.256 124.987 141.2 124.696C140.93 124.72 140.595 124.684 140.355 124.552C139.186 123.91 141.292 120.226 141.475 119.111C141.544 118.694 141.458 118.269 141.351 117.866L140.525 117.811L140.332 117.756L140.055 117.667C139.087 117.365 138.228 116.659 137.411 116.07L133.264 112.924L132.34 112.208C135.576 111.782 138.965 112.432 142.214 111.944C142.525 112.06 142.854 112.162 143.149 112.315C143.611 111.982 143.833 111.351 144.086 110.852C144.684 109.674 145.314 108.498 145.794 107.265Z" fill="#FEEE27"/>
<path d="M141.199 124.696L146.281 119.382L146.571 119.618C146.531 120.006 146.487 120.153 146.343 120.505L146.305 120.721C146.252 120.987 146.174 121.106 146.019 121.323C144.744 122.957 143.011 124.233 141.413 125.539C141.305 125.262 141.255 124.987 141.199 124.696Z" fill="#FE8000"/>
<path d="M146.572 119.618C148.046 121.008 149.341 122.826 150.573 124.438C151.083 125.105 151.556 125.896 152.153 126.483C151.942 126.728 151.815 126.856 151.513 126.977C150.562 126.184 149.703 125.238 148.83 124.359C147.858 123.381 146.849 122.429 146.02 121.323C146.175 121.107 146.253 120.987 146.306 120.721L146.344 120.505C146.488 120.153 146.532 120.006 146.572 119.618Z" fill="#FE9201"/>
<path d="M150.804 117.971C150.163 117.772 149.673 117.246 149.199 116.796L154.841 114.506C155.897 114.128 156.51 113.758 157.676 113.732C155.701 115.325 153.385 117.615 150.804 117.971Z" fill="#FE9201"/>
<path d="M133.266 112.924C134.275 112.738 135.355 113.356 136.274 113.746C138.535 114.707 140.741 115.761 142.777 117.148L142.972 117.288L141.352 117.866L140.526 117.811L140.334 117.756L140.056 117.667C139.089 117.365 138.23 116.659 137.412 116.07L133.266 112.924Z" fill="#FE9201"/>
<path d="M145.796 107.265L146.119 107.406L147.275 112.222C147.351 112.773 147.493 112.996 147.171 113.466C146.586 113.752 146.186 113.983 145.533 113.76C144.69 113.471 144.044 112.999 143.128 112.885L142.977 112.645L143.151 112.315C143.613 111.982 143.835 111.351 144.088 110.852C144.687 109.674 145.316 108.498 145.796 107.265Z" fill="#FEFEFE"/>
<path d="M242.996 164.826C243.098 163.049 243.563 161.335 244.368 159.748C245.491 157.537 247.298 156.137 249.634 155.385C251.847 154.673 254.391 154.844 256.457 155.924C259.218 157.367 260.587 159.97 261.501 162.818C260.435 165.829 259.051 167.554 256.153 168.949C253.823 170.071 251.183 170.069 248.773 169.199C246.365 168.329 244.529 166.847 242.996 164.826Z" fill="#3AF1FC"/>
<path d="M257.06 160.539L257.135 160.534L258.151 160.438C258.525 160.464 258.923 160.69 259.117 161.019C259.337 161.392 259.381 161.816 259.21 162.217C259.028 162.646 258.738 162.771 258.344 162.966L258.107 163.01C257.583 163.093 256.996 162.934 256.586 162.597C256.144 162.233 256.097 161.945 256.07 161.394C256.306 160.964 256.657 160.787 257.06 160.539Z" fill="#FEFEFE"/>
<path d="M252.279 156.33C252.992 156.304 253.795 156.253 254.485 156.444C255.579 156.747 256.399 157.504 256.942 158.473C256.968 158.975 256.983 159.253 256.67 159.671C256.117 160.412 255.42 160.569 254.555 160.665C253.331 160.666 252.034 160.664 250.887 160.18C250.295 159.93 249.793 159.483 249.591 158.862C249.47 158.488 249.511 158.055 249.718 157.715C250.243 156.854 251.358 156.523 252.279 156.33Z" fill="#FEFEFE"/>
<path d="M49.3945 114.595L49.5892 114.638C51.6205 115.05 53.9225 114.927 55.9927 114.95C57.5197 114.966 59.1571 115.096 60.674 114.986L104.085 139.158C103.509 139.46 103.271 139.69 102.605 139.482C99.8439 138.621 97.1744 137.488 94.474 136.456L72.013 127.346L63.6146 123.983C62.4078 123.527 60.9792 123.21 59.8346 122.651C58.8297 122.16 57.7297 120.946 56.8128 120.238L52.6275 117.103C51.5872 116.358 50.1416 115.641 49.3945 114.595Z" fill="#F41C68"/>
<path d="M108.443 109.537L117.325 109.539L122.104 115.244L123.661 116.838C123.822 116.999 124.171 117.256 124.261 117.435C124.297 117.505 124.239 117.954 124.234 118.061L123.804 118.09L115.031 118.054L99.3375 118.048L94.9578 118.018C94.5963 118.015 93.7785 118.101 93.4664 117.958C92.92 117.709 92.0672 116.675 91.5948 116.225L84.8945 109.743C85.5083 109.433 86.9036 109.621 87.6081 109.63L93.7752 109.678L108.443 109.537Z" fill="#086999"/>
<path d="M255.345 119.377C255.816 121.55 256.323 123.71 257.293 125.726C259.41 130.125 263.41 133.162 267.936 134.741C266.864 135.336 265.162 135.5 263.952 135.921C260.665 137.065 257.611 138.923 255.34 141.598C253.553 143.703 252.301 146.144 251.113 148.618L250.423 145.907C249.738 144.211 248.962 142.509 247.875 141.028C245.678 138.036 242.145 135.675 238.645 134.492C237.798 134.206 235.643 133.82 235.113 133.087C235.445 132.658 236.028 132.767 236.558 132.721C240.439 132.384 244.017 131.843 247.46 129.899C251.614 127.552 254.085 123.905 255.345 119.377Z" fill="#FEEE27"/>
<path d="M161.086 240.099C161.273 240.137 161.178 240.097 161.355 240.249L146.115 261.592L139.107 251.962L130.531 240.074C133.551 240.658 136.561 241.235 139.627 241.527C146.688 242.199 154.182 241.733 161.086 240.099Z" fill="#C30031"/>
<path d="M262.438 84.3284L266.196 81.208L263.042 86.6786C257.791 94.8745 251.162 101.885 242.461 106.413C238.642 108.401 234.071 110.012 230.78 112.812C229.967 111.011 229.222 109.106 228.035 107.515C228.865 107.092 229.939 105.215 230.603 104.445C232.308 102.469 234.274 100.697 236.403 99.188C238.696 97.563 241.195 95.8469 243.731 94.6304C247.374 92.8831 251.239 91.617 254.832 89.7502C257.072 88.5864 259.186 87.3161 261.125 85.6895C261.556 85.3283 262.263 84.8769 262.438 84.3284Z" fill="#A80885"/>
<path d="M207.966 191.79C208.76 193.131 209.307 194.678 209.938 196.106L213.357 203.486L209.839 212.145L205.059 223.55L202.878 228.908C202.459 229.94 202.084 231.072 201.484 232.011C201.135 231.744 200.926 231.319 200.695 230.952C199.743 229.389 194.553 221.51 194.453 220.519C194.768 220.406 195.072 220.353 195.4 220.295C196.609 219.418 201.086 208.179 202.031 206.054L205.666 198.069L207.966 191.79Z" fill="#172584"/>
<path d="M239.575 140.977L240.645 142.053C241.222 142.712 241.145 144.437 241.195 145.353C241.411 149.278 241.451 153.304 241.165 157.224C240.236 169.979 236.852 182.861 230.748 194.116C229.031 197.284 227.138 200.419 224.871 203.23C221.356 207.59 217.076 211.372 212.844 215.019L212.556 215.138C212.523 214.502 213.093 213.536 213.346 212.916L216.037 206.383C216.261 205.851 216.813 204.824 216.815 204.281C216.817 203.912 216.566 203.354 216.451 203.003L215.636 200.568C217.323 199.426 218.952 197.731 220.361 196.251C229.894 186.233 236.204 173.59 238.494 159.956C239.551 153.655 239.743 147.348 239.575 140.977Z" fill="#FE8000"/>
<path d="M86.5281 56.7852C88.3266 57.2737 90.0055 57.9369 91.0012 59.6228C91.5308 60.5193 91.9553 61.6495 92.0982 62.6814L86.7543 69.5036C82.7134 75.2217 79.5238 82.0199 77.4425 88.6956L75.4557 95.3962C75.0695 96.8819 74.8131 98.5597 74.276 99.9909L67.0117 93.092C67.7145 92.1245 68.0661 90.2775 68.4379 89.1135L70.3385 83.5383C73.9322 73.6389 79.2368 64.4317 86.5281 56.7852Z" fill="#FE367F"/>
<path d="M235.386 138.515L238.609 140.471C238.952 145.821 238.506 151.39 237.65 156.675C237.05 160.384 236.296 164.201 235.199 167.801C232.803 175.666 228.967 182.947 223.913 189.418C221.694 192.259 219.206 194.864 216.577 197.327C216.198 197.681 215.31 198.703 214.834 198.762L214.423 198.04L210.892 190.418C210.742 190.089 209.976 188.687 210.009 188.493C210.013 188.47 210.408 188.125 210.436 188.098C217.649 181.435 224.403 173.84 228.792 164.966C230.876 160.753 232.546 156.188 233.572 151.593C234.532 147.295 234.965 142.893 235.386 138.515Z" fill="#D0071E"/>
<path d="M91.9512 71.3597C92.3832 70.5518 92.9277 69.8135 93.4358 69.0526C93.5775 68.8405 93.862 68.5149 93.8956 68.2696C93.9705 67.7241 93.7338 66.7991 93.6583 66.2258C93.3019 63.5191 92.8642 59.2377 90.7707 57.24C89.0576 55.6054 85.3615 55.3834 83.1356 55.39C84.2867 54.725 85.4436 54.0133 86.6537 53.4627C88.0943 52.8079 89.4836 52.6147 90.7626 51.5785C92.6977 50.0113 93.2492 47.3663 93.7928 45.0706C94.1951 43.3722 94.5791 41.745 94.7517 40.002C95.0222 41.3409 94.979 42.6913 95.0923 44.0458C95.2202 45.5732 95.5326 47.0985 95.94 48.5744C97.2253 53.2299 101.275 52.5299 104.73 54.4991C104.267 55.1683 101.512 55.413 100.589 55.6569C99.6741 55.8986 98.5931 56.2742 97.8505 56.8629C95.7926 58.4951 94.9913 63.3861 94.6732 65.8999C94.5905 66.5541 94.2559 68.1725 94.6211 68.6458L95.2061 68.7039C95.5119 67.7121 95.7057 66.8057 96.2186 65.8816C97.8448 62.9508 100.702 60.505 103.164 58.2743C103.737 57.7558 104.267 57.1013 104.865 56.634C106.811 55.1129 109.207 53.7554 111.328 52.5017C118.471 48.2805 126.571 45.2084 134.784 43.9152C141.863 42.8009 148.941 42.91 156.03 43.8191C155.259 45.3444 154.362 46.3167 153.004 47.3361L152.806 47.5014C136.522 45.7865 119.452 50.384 106.655 60.7345C98.6488 67.2104 92.2313 76.8405 88.9584 86.5752C87.9954 89.4398 87.511 92.3067 86.7646 95.2115L86.3039 98.9441C86.2508 99.4881 86.1193 100.113 86.3362 100.629L86.5106 100.71C86.971 100.906 87.8286 100.807 88.3393 100.81L92.7315 100.821C91.194 100.938 89.7256 100.936 88.1862 100.909C87.4595 100.896 86.6981 100.964 85.9863 100.808C85.9381 100.423 85.8381 100.321 86.0612 99.9862L86.0199 99.7523C85.9768 99.4437 86.0199 99.3084 86.0612 99.0127L86.1742 98.0392L86.1736 97.6641C85.6661 97.5015 85.1269 97.606 84.6704 97.4619C84.5305 97.4179 84.4308 97.2873 84.2939 97.2352L83.7706 97.1645C83.2802 97.0992 82.8117 96.9584 82.3406 96.8134L81.8499 104.18C84.4919 104.182 87.3415 104.41 89.9553 104.143L90.9226 104.138L92.003 104.226L87.7764 104.293C87.0408 104.302 86.2335 104.226 85.5265 104.448L81.6055 104.469C81.7025 102.048 81.7825 99.6265 82.077 97.2199C82.1914 96.2841 82.2675 95.2291 82.573 94.3353C82.6395 92.7842 83.0963 91.0454 83.4857 89.5413C84.8876 84.1246 87.1935 78.6546 90.1974 73.9271C90.733 73.0842 91.2638 72.0816 91.9512 71.3597Z" fill="url(#paint1_linear_2778_20333)"/>
<path d="M104.103 131.835C104.523 131.928 109.298 136.493 110.024 137.135V137.279L109.8 137.325L106.73 134.584C106.566 134.454 106.451 134.451 106.252 134.468C106.016 134.488 105.842 134.532 105.606 134.451C105.147 134.294 104.609 133.799 104.184 133.53L95.854 127.912L91.0439 124.958L63.9241 109.136C60.4503 106.936 56.9545 104.717 53.7332 102.154C48.247 97.7898 43.501 92.8341 39.2468 87.2832C37.5724 85.0983 36.0932 82.8134 34.6841 80.4506C33.8097 78.9846 32.8647 77.4182 32.2482 75.827C32.1497 75.5718 32.067 75.355 31.9181 75.1246L31.7695 74.8996L31.9927 74.7822L32.5013 75.2025C32.9327 76.5507 47.5512 85.7732 49.8532 87.3542L60.9065 95.5995L78.0169 109.176L98.2675 126.954L102.21 130.44C102.679 130.85 103.27 131.516 103.826 131.785C103.957 131.849 103.962 131.833 104.103 131.835Z" fill="#A80885"/>
<path d="M108.445 109.537C109.339 109.279 110.438 109.393 111.368 109.391L117.11 109.358C117.787 103.48 119.119 98.0006 122.323 92.9467C126.66 86.1059 133.714 81.2718 141.705 79.9257L146.023 79.346C147.192 79.243 148.361 79.2343 149.509 78.9659L149.687 78.9219C155.955 80.5337 160.885 83.5858 164.237 89.2586C166.544 93.1617 166.815 97.1268 166.781 101.541C165.99 100.412 165.285 99.2431 164.407 98.1744C160.693 93.6524 155.233 90.3292 149.477 89.3075C144.476 88.4199 139.497 89.6478 135.374 92.5606L133.599 93.9379C127.996 98.5131 125.243 106.259 124.6 113.264L124.41 116.498C124.4 116.969 124.522 117.69 124.236 118.061C124.241 117.954 124.299 117.505 124.263 117.435C124.173 117.256 123.824 116.998 123.663 116.837L122.106 115.244L117.327 109.539L108.445 109.537Z" fill="#033A7B"/>
<path d="M90.7179 141.789C91.5477 142.419 92.7719 142.77 93.7392 143.159L97.8924 144.921L113.05 151.622C115.889 152.897 119.116 154.068 121.732 155.744C114.257 162.836 106.295 169.554 99.7163 177.526C96.5064 176.409 93.7107 174.628 91.2355 172.302C87.2585 168.565 84.7291 163.373 84.5775 157.889C84.4068 151.715 86.1969 146.371 90.4756 141.875L90.7179 141.789Z" fill="#F10346"/>
<path d="M99.0371 149.509C99.6905 150.831 100.359 152.515 101.676 153.314C102.363 153.731 103.234 153.99 103.987 154.272C102.976 155.03 100.806 156.235 100.38 157.361C100.063 158.196 99.5551 159.017 99.1408 159.811C98.6091 158.799 98.0708 157.508 97.2974 156.657C96.4964 155.775 95.1694 155.076 94.1797 154.411C95.0211 154.036 96.3032 153.645 97.0257 153.11C97.1907 152.988 97.4112 152.54 97.5226 152.353L99.0371 149.509Z" fill="#FEFEFE"/>
<path d="M211.865 102.191L212.506 102.738L212.518 102.879C212.677 104.194 213.766 105.588 214.223 106.891C215.209 109.706 215.999 112.642 216.558 115.571C219.828 132.71 214.407 150.244 204.132 164.049C200.079 169.495 195.504 174.466 190.511 179.059L186.717 182.338C185.791 183.096 184.742 183.85 183.957 184.752L168.695 184.79L191.155 163.231C198.17 155.191 204.552 145.895 208.201 135.807C211.218 127.469 212.491 118.862 212.442 110.018C212.428 107.405 212.042 104.797 211.865 102.191Z" fill="#C30031"/>
<path d="M207.301 95.2686C207.412 95.5046 207.394 95.4288 207.442 95.652L207.484 95.8676C208.551 101.077 209.208 106.322 209.295 111.639C209.492 123.723 205.383 136.241 199.207 146.553C194.518 154.383 188.409 161.602 182.08 168.138C177.032 173.351 171.547 178.085 165.88 182.606C165.034 183.281 163.762 184.555 162.777 184.92C162.581 184.992 162.025 184.934 161.805 184.939L159.265 184.984L143.087 185.177L141.199 185.2L156.604 171.587L176.961 152.987C182.005 148.143 187.031 143.177 191.448 137.744C199.483 127.859 205.117 116.598 206.853 103.907C207.239 101.091 207.595 98.1107 207.301 95.2686Z" fill="#172584"/>
<path d="M86.1992 220.585L193.03 220.677C193.844 221.606 194.469 223.076 195.131 224.148L199.982 231.954L199.815 232.167L96.8466 232.09L86.1992 220.585Z" fill="#0030EC"/>
<path d="M128.127 149.673L126.933 150.67C124.975 148.48 122.791 146.489 120.677 144.453L107.319 131.75L100.723 124.998C99.4214 123.635 98.1136 122.058 96.6155 120.917L96.4766 120.814L126.621 120.9C127.22 115.512 127.325 110.164 129.206 105.004C131.057 99.924 134.813 95.4401 139.786 93.2141C144.086 91.2895 148.974 91.4531 153.327 93.1377C157.637 94.8062 161.28 98.1261 164.104 101.714C164.725 102.502 165.476 103.341 165.885 104.255L165.744 105.09C165.238 106.684 164.772 108.327 164.138 109.875C162.755 113.251 160.837 116.321 158.622 119.212C157.528 120.64 156.03 121.943 155.099 123.464L153.882 119.168C156.183 117.68 158.388 116.115 160.467 114.326C161.104 113.777 161.874 113.221 162.307 112.492C162.299 112.019 162.324 111.723 161.924 111.403L161.066 110.908L151.224 110.02C150.779 109.307 150.568 108.276 150.287 107.477C149.641 105.634 148.895 103.845 148.05 102.083C147.692 101.338 147.315 100.41 146.765 99.7874C146.388 99.3587 146.078 99.2683 145.523 99.2281C145.399 99.3024 145.258 99.3548 145.149 99.451C144.644 99.8973 144.196 101.51 143.951 102.145L140.928 109.823L133.126 110.205C132.264 110.244 130.6 110.11 129.995 110.742C129.683 111.068 129.58 111.526 129.588 111.968C129.606 112.879 130.622 113.712 131.262 114.253C133.308 115.981 135.504 117.678 137.811 119.037L137.221 121.196L135.49 128.53C135.318 129.413 134.934 130.627 135.141 131.514C135.459 131.943 135.67 132.087 136.163 132.286C137.189 132.056 138.014 131.449 138.849 130.841L138.007 135.361C139.881 135.202 141.86 134.969 143.737 135.081L134.732 143.68C132.602 145.718 130.475 147.886 128.127 149.673Z" fill="#C30031"/>
<path d="M133.125 110.205C134.379 107.307 136.549 104.172 139.02 102.181C140.529 100.965 142.407 99.7922 144.257 99.1958C147.006 98.31 150.547 98.3789 153.379 98.718C156.912 99.1416 159.911 100.931 162.825 102.865C163.714 103.455 164.768 104.018 165.432 104.869C164.692 105.39 164.311 106.507 163.82 107.273C163.022 108.518 162.125 109.868 161.065 110.908L151.223 110.019C150.779 109.307 150.567 108.276 150.287 107.477C149.64 105.633 148.895 103.844 148.049 102.083C147.691 101.337 147.314 100.41 146.765 99.7871C146.387 99.3585 146.077 99.268 145.523 99.2279C145.398 99.3021 145.257 99.3546 145.148 99.4507C144.643 99.8971 144.196 101.51 143.95 102.144L140.927 109.823L133.125 110.205Z" fill="#FE367F"/>
<path d="M128.126 149.673L107.406 123.637L129.246 123.771L129.927 116.325C132.146 118.153 134.768 119.704 137.221 121.196L135.49 128.53C135.317 129.412 134.934 130.627 135.141 131.513C135.459 131.943 135.669 132.087 136.162 132.286C137.188 132.056 138.013 131.449 138.848 130.841L138.006 135.361C139.88 135.202 141.859 134.969 143.736 135.081L134.732 143.68C132.602 145.717 130.474 147.886 128.126 149.673Z" fill="#FE367F"/>
<path d="M211.505 99.4879L210.286 93.2139C214.475 96.221 218.352 99.5011 221.621 103.519C226.309 109.28 229.68 117.169 230.87 124.467C231.956 131.13 232.181 138.498 231.201 145.189C229.79 154.822 225.886 164.126 220.215 172.023C217.924 175.213 215.246 178.234 212.42 180.96C211.073 182.26 209.625 183.645 208.03 184.63L183.961 184.752C184.746 183.85 185.795 183.096 186.721 182.338L190.514 179.059C195.508 174.466 200.083 169.495 204.136 164.049C214.411 150.244 219.832 132.71 216.562 115.571C216.003 112.642 215.212 109.707 214.227 106.891C213.77 105.588 212.681 104.194 212.521 102.879L212.509 102.739L211.869 102.192L211.505 99.4879Z" fill="#FE367F"/>
<path d="M211.505 99.488L211.659 99.3125C219.037 103.99 224.417 113.232 226.244 121.629C229.314 135.747 227 150.412 219.09 162.602C214.721 169.336 208.959 175.24 202.344 179.782C201.14 180.608 199.926 181.526 198.619 182.176C198.177 182.098 197.968 181.965 197.677 181.605C197.414 181.279 197.398 181.069 197.439 180.671C197.955 180.007 198.723 179.57 199.42 179.116L202.213 177.2C203.922 175.941 205.598 174.62 207.164 173.187C219.884 161.543 227.229 144.911 224.992 127.559C224.05 120.252 221.577 112.7 216.864 106.932C215.808 105.64 214.653 104.32 213.321 103.305L212.509 102.739L211.869 102.192L211.505 99.488Z" fill="#FEFEFE"/>
<path d="M179.945 52.3086C189.516 58.3379 197.825 67.4318 202.081 77.984C203.153 80.6424 203.874 83.451 204.502 86.2434C207.747 100.651 203.524 116.621 195.764 128.905C191.551 135.573 186.108 141.468 180.62 147.092L154.853 170.992L136.504 187.23L159.413 187.412L165.025 187.424C165.711 187.425 166.671 187.307 167.327 187.465L206.753 187.741L195.052 214.434C194.59 216.048 193.744 217.714 193.11 219.28L85.1758 218.952C85.2914 215.349 86.0274 211.792 86.9518 208.32C87.6318 205.766 88.428 203.07 89.7307 200.755C89.7151 200.369 90.3325 199.309 90.5134 198.921C92.2783 195.131 94.4135 191.415 96.7431 187.943C97.7052 186.508 98.7006 184.969 99.856 183.686L99.9159 183.803C99.8521 184.066 99.8922 184.035 99.7691 184.205L98.8759 185.419L99.3842 185.529C100.289 185.663 100.879 186.208 101.772 186.218L101.933 186.217C102.054 186.358 102.153 186.483 102.243 186.646L102.313 186.78L102.615 186.405C102.944 185.953 103.283 185.544 103.662 185.134C103.665 184.894 103.791 184.85 103.962 184.684L104.261 184.385L104.337 184.16C104.586 183.965 104.822 183.818 104.943 183.517C105.046 183.263 104.961 183.366 105.201 183.148L105.422 182.961C105.666 182.741 105.861 182.556 106.148 182.393L106.41 182.246C103.088 186.219 99.847 190.38 97.347 194.932C95.8942 197.576 94.7864 200.313 93.6401 203.094C92.8678 205.257 92.1609 207.394 91.5867 209.62C91.1667 211.249 90.7536 212.867 90.8804 214.563L91.1095 214.937C92.4742 215.082 93.8965 214.99 95.2684 214.976L102.176 214.884L121.008 214.814L190.087 214.703C190.311 214.194 190.509 213.643 190.815 213.178C190.774 212.525 193.189 207.384 193.63 206.352L199.566 192.07C198.423 191.944 197.175 192.052 196.017 192.061L189.144 192.114L166.109 192.103C165.44 192.293 164.323 192.136 163.613 192.133L156.62 192.101L125.858 191.975L140.58 177.768L167.436 153.23C176.42 144.812 185.928 136.181 192.31 125.526C199.869 112.907 203.014 100.104 199.371 85.6404C196.629 74.7513 189.565 64.7131 180.378 58.2471C177.653 56.3285 174.697 54.9647 171.852 53.2704L173.195 52.7531C174.56 52.2106 176.75 52.5189 178.242 52.5084C178.845 52.5042 179.379 52.5422 179.945 52.3086Z" fill="url(#paint2_linear_2778_20333)"/>
<path d="M96.8169 46.3108L96.4102 44.9195C99.8876 41.8146 103.924 39.4515 108.079 37.3715C120.567 31.1199 135.393 27.4966 149.381 28.3042C167.324 29.34 185.199 35.5922 199.193 47.0004C203.021 50.1205 206.467 53.671 209.739 57.3611C214.019 62.1865 217.515 67.4687 220.716 73.0496C223.312 77.5749 225.675 82.1834 227.694 86.9977C228.876 89.815 230.086 92.6963 230.896 95.6426L230.817 95.9113L230.584 96.038C229.089 95.888 227.518 95.9772 226.012 95.9461L219.284 95.5905C218.712 95.5483 217.223 95.5546 216.74 95.2787C216.587 95.1915 216.489 95.0313 216.364 94.9075L216.205 95.1415C215.718 94.9636 214.965 94.1761 214.518 93.8223C213.58 93.0794 212.614 92.3773 211.606 91.733C211.065 91.3864 209.677 90.7642 209.359 90.2622C208.954 89.6214 208.749 88.4589 208.518 87.7151L206.977 83.1914C205.869 80.136 204.777 77.0285 203.36 74.0998C200.871 68.9545 197.242 63.663 193.232 59.6161C189.119 55.4662 184.228 51.5412 179.117 48.6886C169.106 43.1021 156.93 40.594 145.532 40.5347C133.533 40.4724 122.028 43.715 111.511 49.4309C109.374 50.5926 106.653 51.9696 104.938 53.71L104.8 53.8561C104.086 53.1869 103.393 52.7472 102.528 52.2928L98.9141 50.8798C97.9534 50.3928 97.6317 48.7441 97.3202 47.7666L96.8169 46.3108Z" fill="#FE367F"/>
<path d="M96.8164 46.3114C99.0363 45.1729 101.025 43.7359 103.151 42.4455C105.467 41.0388 107.905 39.7852 110.358 38.6308C128.476 30.1018 149.723 27.9444 168.908 34.1097C188.159 40.2962 205.524 53.9316 214.763 72.0503L217.357 78.0916C215.409 74.813 213.843 71.409 211.672 68.2419C200.446 51.8612 184.281 40.1135 164.954 35.2039C144.452 29.996 122.677 32.4239 104.383 43.3453L97.3196 47.7672L96.8164 46.3114Z" fill="#FEFEFE"/>
<path d="M102.527 52.2933C105.878 50.2543 109.203 48.1311 112.721 46.3892C118.708 43.4252 125.569 40.9471 132.117 39.6341C141.99 37.6547 152.634 38.1828 162.381 40.5966C167.406 41.8409 172.54 43.4704 177.232 45.6685C181.353 47.5994 185.286 50.0776 188.976 52.733C196.87 58.4148 203.386 65.1424 208.377 73.5237C211.21 78.2814 213.084 83.4447 214.643 88.7407C215.224 90.715 215.57 93.029 216.363 94.908L216.205 95.142C215.717 94.9641 214.964 94.1766 214.517 93.8228C213.58 93.0799 212.614 92.3778 211.606 91.7335C211.064 91.3869 209.676 90.7647 209.359 90.2627C208.954 89.6219 208.748 88.4594 208.517 87.7156L206.977 83.1919C205.868 80.1365 204.776 77.029 203.359 74.1003C200.87 68.955 197.242 63.6635 193.231 59.6166C189.118 55.4667 184.228 51.5417 179.116 48.6892C169.105 43.1026 156.93 40.5945 145.531 40.5352C133.532 40.4729 122.027 43.7155 111.51 49.4314C109.373 50.5931 106.652 51.9701 104.937 53.7105L104.799 53.8566C104.085 53.1875 103.392 52.7477 102.527 52.2933Z" fill="#C30031"/>
<path d="M59.2485 129.78C60.4197 130.572 61.9534 131.226 63.2974 131.672L63.813 131.394C64.2994 131.706 64.7883 131.998 65.2055 132.402L65.3218 132.307L82.7665 138.634L86.492 140.059C87.0195 140.261 87.7611 140.421 88.1757 140.788L90.4768 141.875C86.1981 146.371 84.408 151.715 84.5787 157.889C84.7303 163.373 87.2597 168.565 91.2368 172.302C93.7119 174.628 96.5076 176.409 99.7175 177.526L98.0649 179.463C92.544 186.591 88.1311 193.889 85.0721 202.4C81.8607 200.566 78.7211 198.643 75.7894 196.38C71.1596 192.806 66.9504 188.283 63.6605 183.448C61.2416 179.893 59.2613 176.064 57.4 172.194L57.2316 172.252C57.9877 174.057 58.5445 176.213 59.0576 178.109C58.877 179.522 59.6654 181.331 60.0758 182.695C60.6791 184.699 61.2201 186.764 61.9677 188.718C62.9011 191.158 64.0996 193.514 65.3035 195.83C67.0217 199.134 68.8082 202.3 71.0964 205.249L73.382 208.045L76.2349 211.123C76.544 211.448 77.0853 211.879 77.15 212.331L76.8846 212.765C67.4953 205.416 59.3853 195.467 54.7205 184.459C52.6731 179.627 51.2143 174.14 50.4316 168.95C49.8202 164.895 49.7313 160.788 49.9325 156.697C50.2549 150.142 51.3686 143.843 54.2074 137.867C55.5832 134.971 57.3445 132.348 59.2485 129.78Z" fill="url(#paint3_linear_2778_20333)"/>
<path d="M71.9249 136.568C72.512 136.615 73.1435 136.653 73.7075 136.833C74.7928 137.178 76.0137 137.912 76.4723 139.003C76.7021 139.55 76.6335 140.152 76.3714 140.674C75.7792 141.856 74.566 142.361 73.3804 142.721C72.2346 142.825 71.002 142.711 69.9949 142.108C69.3003 141.692 68.8603 141.065 68.6691 140.279C68.5125 139.636 68.653 138.888 69.0019 138.329C69.7044 137.202 70.6914 136.833 71.9249 136.568Z" fill="#FEFEFE"/>
<path d="M63.8151 131.394C64.3016 131.705 64.7905 131.997 65.2077 132.402C59.9827 138.712 56.7485 147.025 55.8487 155.137L55.2942 164.094C54.1248 159.502 53.7956 154.241 54.1709 149.5C54.7404 142.312 57.8221 136.37 63.2996 131.671L63.8151 131.394Z" fill="#FEFEFE"/>
<path d="M88.1774 140.788L90.4785 141.875C86.1998 146.371 84.4097 151.716 84.5804 157.89C84.732 163.373 87.2614 168.565 91.2385 172.303C93.7136 174.629 96.5093 176.409 99.7192 177.526L98.0666 179.463C94.9579 178.704 92.2938 177.356 89.8441 175.297C84.8965 171.138 81.6652 164.873 81.177 158.413C80.8568 154.175 81.735 149.712 84.0122 146.082C85.1981 144.192 86.7291 142.481 88.1774 140.788Z" fill="#FEFEFE"/>
<path d="M71.9304 170.945L69.7306 175.376L66.9909 169.625C66.8459 169.317 66.5173 168.351 66.2939 168.149C66.0174 167.9 65.2967 167.654 64.9381 167.473C63.311 166.648 61.4837 165.926 60.0273 164.827C61.4942 163.666 63.2936 162.748 64.9267 161.847C65.3152 161.632 66.4463 161.166 66.6809 160.883C66.9993 160.5 67.2716 159.697 67.5034 159.235C68.2226 157.802 68.9089 156.35 69.9004 155.081C70.7454 156.203 71.4215 157.495 72.0218 158.763C72.2459 159.236 72.6062 160.638 72.913 160.942C73.3674 161.391 74.647 161.878 75.2476 162.21C76.7786 163.056 78.2742 163.921 79.7025 164.934L76.6288 166.594C75.9291 168.617 74.2154 169.996 72.2851 170.83L71.9304 170.945Z" fill="#01005C"/>
<path d="M71.9297 170.946L72.1867 170.274C72.3871 169.797 72.7933 168.55 73.1021 168.204C73.2528 168.036 73.7192 167.863 73.9286 167.764L76.6281 166.595C75.9283 168.617 74.2146 169.996 72.2844 170.83L71.9297 170.946Z" fill="#F75205"/>
<path d="M69.8042 158.108C70.4689 159.315 70.9027 160.901 71.7078 161.982C72.0302 162.414 72.6337 162.692 73.0951 162.952L76.349 164.759L73.0318 166.346C72.7614 166.477 72.0553 166.726 71.8663 166.915C71.6563 167.126 71.432 167.662 71.2816 167.934C70.6496 169.078 70.1951 170.296 69.7266 171.513C68.9925 170.134 68.4374 167.745 67.2242 166.754C66.1956 165.914 64.4172 165.33 63.1992 164.73L66.0871 163.066C66.4679 162.867 67.2518 162.606 67.5477 162.331C67.8485 162.05 68.0815 161.488 68.272 161.125L69.8042 158.108Z" fill="#FEFEFE"/>
<path d="M86.7662 95.2113C87.5127 92.3066 87.9971 89.4396 88.9601 86.575C92.233 76.8404 98.6505 67.2102 106.657 60.7343C119.453 50.3838 136.523 45.7863 152.807 47.5012C159.544 48.5952 165.684 50.3029 171.851 53.2705C174.696 54.9647 177.651 56.3286 180.377 58.2472C189.564 64.7132 196.628 74.7513 199.37 85.6404C203.013 100.104 199.868 112.907 192.309 125.526C185.926 136.181 176.419 144.812 167.435 153.231L140.579 177.769L125.857 191.975L156.619 192.101L163.612 192.133C164.322 192.136 165.439 192.294 166.108 192.103L189.143 192.114L196.016 192.061C197.174 192.052 198.421 191.944 199.565 192.07L193.629 206.352C193.187 207.384 190.773 212.525 190.814 213.178C190.508 213.643 190.31 214.194 190.086 214.703L121.007 214.814L102.175 214.884L95.2674 214.976C93.8954 214.991 92.4732 215.082 91.1085 214.937L90.8793 214.563C90.7526 212.867 91.1657 211.249 91.5856 209.62C92.1599 207.394 92.8668 205.257 93.639 203.094C94.7854 200.313 95.8931 197.576 97.3459 194.932C99.8459 190.38 103.087 186.219 106.409 182.246L106.147 182.393C105.86 182.556 105.665 182.741 105.421 182.961L105.2 183.148C104.96 183.366 105.045 183.263 104.942 183.517C104.821 183.818 104.585 183.965 104.336 184.16L104.26 184.385L103.961 184.684C103.79 184.85 103.664 184.894 103.661 185.134C103.282 185.544 102.943 185.953 102.614 186.405L102.312 186.78L102.242 186.646C102.152 186.483 102.053 186.358 101.932 186.217L101.771 186.218C100.878 186.208 100.288 185.663 99.3831 185.529L98.8748 185.42L99.7681 184.205C99.8912 184.035 99.851 184.066 99.9148 183.803L99.8549 183.686C100.431 182.672 101.387 181.679 102.136 180.774C105.246 177.018 108.602 173.588 112.061 170.16L147.986 136.258C152.444 131.84 157.167 127.446 160.941 122.413C164.936 117.086 168.076 111.465 169.564 104.934L169.843 101.418L169.69 97.3518C169.407 95.0678 168.857 93.0647 168.084 90.8924C167.655 90.278 167.376 89.5474 167.009 88.8923C166.523 88.0254 165.931 87.2005 165.334 86.4085C161.04 80.7204 154.812 76.9221 147.759 75.8375C145.812 75.5379 143.849 75.6275 141.907 75.3609C139.842 75.726 137.733 75.9342 135.713 76.5168C128.909 78.4786 122.89 83.0676 118.844 88.8294C115.708 93.2957 113.244 98.943 112.814 104.429L85.5282 104.448C86.2351 104.226 87.0424 104.301 87.7781 104.292L92.0047 104.226L90.9242 104.138L89.957 104.143C87.3432 104.41 84.4936 104.182 81.8516 104.18L82.3422 96.8132C82.8134 96.9582 83.2819 97.099 83.7723 97.1643L84.2956 97.235C84.4325 97.2871 84.5322 97.4177 84.6721 97.4618C85.1286 97.6058 85.6678 97.5013 86.1752 97.664L86.1758 98.039L86.0629 99.0125C86.0216 99.3082 85.9784 99.4436 86.0216 99.7521L86.0629 99.986C85.8397 100.321 85.9398 100.423 85.988 100.808C86.6997 100.964 87.4612 100.895 88.1879 100.908C89.7272 100.936 91.1956 100.938 92.7332 100.821L88.3409 100.81C87.8302 100.807 86.9726 100.906 86.5122 100.71L86.3379 100.629C86.121 100.113 86.2525 99.4879 86.3055 98.9439L86.7662 95.2113Z" fill="#01005C"/>
<path d="M176.571 193.461L183.215 193.494L167.634 208.799L163.629 212.635C163.372 212.874 162.883 213.451 162.594 213.589C162.469 213.649 162.32 213.636 162.183 213.659L155.156 213.661C155.312 213.35 155.715 213.1 155.981 212.868L157.892 211.125L176.571 193.461Z" fill="#20B9AB"/>
<path d="M166.68 193.463L174.798 193.444C174.497 193.957 173.565 194.567 173.097 194.976L169.605 198.142L162.289 205.213L153.622 213.269C153.493 213.353 153.383 213.482 153.234 213.522C152.771 213.648 151.871 213.53 151.369 213.533L145.84 213.567L166.68 193.463Z" fill="#FFDD0C"/>
<path d="M195.002 193.368L197.821 193.349L192.194 206.517C191.261 208.786 190.437 211.345 189.16 213.427L178.548 213.522L175.824 213.533L195.002 193.368Z" fill="#20B9AB"/>
<path d="M184.979 193.437L193.322 193.432L174.498 213.544L172.518 213.554L163.945 213.609L184.979 193.437Z" fill="#07E2CA"/>
<path d="M86.3379 100.63L109.585 100.692C110.1 99.8286 110.224 98.1449 110.473 97.1411C112.594 88.6061 118.344 81.1521 125.853 76.658C133.795 71.9045 143.146 70.3403 152.15 72.6103C150.603 73.4412 148.348 73.7183 146.651 74.2557C145.098 74.7478 143.449 74.8479 141.907 75.3616C139.842 75.7268 137.733 75.9349 135.713 76.5176C128.909 78.4793 122.89 83.0684 118.844 88.8301C115.708 93.2964 113.244 98.9437 112.814 104.43L85.5282 104.449C86.2351 104.227 87.0424 104.302 87.7781 104.293L92.0047 104.226L90.9242 104.138L89.957 104.144C87.3432 104.41 84.4936 104.183 81.8516 104.18L82.3422 96.814C82.8134 96.9589 83.2819 97.0997 83.7723 97.165L84.2956 97.2357C84.4325 97.2878 84.5322 97.4184 84.6721 97.4625C85.1286 97.6066 85.6678 97.502 86.1752 97.6647L86.1758 98.0397L86.0629 99.0132C86.0216 99.3089 85.9784 99.4443 86.0216 99.7528L86.0629 99.9868C85.8397 100.322 85.9398 100.424 85.988 100.809C86.6997 100.965 87.4612 100.896 88.1879 100.909C89.7272 100.937 91.1956 100.939 92.7332 100.822L88.3409 100.811C87.8302 100.807 86.9726 100.907 86.5122 100.71L86.3379 100.63Z" fill="#3AF1FC"/>
<path d="M148.7 193.469L164.698 193.492L164.462 193.739L160.311 197.639L147.717 209.874L144.829 212.659C144.666 212.816 144.105 213.475 143.921 213.534C143.449 213.683 142.39 213.538 141.855 213.54L125.613 213.633L148.7 193.469Z" fill="#F41C68"/>
<path d="M175.68 101.319C176.027 101.41 176.057 101.418 176.253 101.739C177.9 104.442 178.5 108.207 178.135 111.3C176.676 119.502 173.015 126.566 167.688 132.953L162.97 138.141C160.103 141.432 157.358 144.832 154.06 147.713C153.291 147.56 152.679 147.484 151.888 147.588L151.692 147.613C150.363 147.795 149.052 148.523 148.266 149.622C147.471 150.735 147.228 152.084 147.485 153.423C147.584 153.94 147.8 154.428 147.994 154.913L147.35 155.761C146.078 157.417 144.367 158.904 142.823 160.308C134.869 167.539 124.96 173.559 114.359 175.803C118.335 171.25 123.087 167.226 127.539 163.145L147.202 144.649C155.31 136.886 164.056 129.091 169.866 119.36C173.205 113.767 175.335 107.857 175.68 101.319Z" fill="#FEF9BB"/>
<path d="M152.151 72.6104C159.314 74.2027 165.851 78.9116 169.786 85.0802C170.541 86.2646 171.4 87.6773 171.822 89.0246C173.48 92.0144 174.373 96.6421 174.269 100.041C174.269 102.54 174.152 105.104 173.368 107.5C172.313 111.794 170.449 116.097 168.051 119.818C162.66 128.182 155.317 134.981 148.215 141.849L121.528 166.752L110.612 177.748L106.41 182.247L106.147 182.393C105.86 182.557 105.665 182.741 105.421 182.962L105.2 183.149C104.96 183.367 105.045 183.264 104.942 183.518C104.821 183.819 104.586 183.966 104.336 184.16L104.261 184.386L103.961 184.685C103.79 184.851 103.664 184.895 103.661 185.135C103.282 185.545 102.943 185.954 102.615 186.406L102.312 186.781L102.243 186.647C102.152 186.483 102.053 186.359 101.932 186.218L101.771 186.219C100.878 186.209 100.288 185.664 99.3833 185.53L98.875 185.42L99.7682 184.206C99.8914 184.036 99.8512 184.067 99.915 183.804L99.8551 183.687C100.431 182.673 101.387 181.68 102.136 180.775C105.246 177.018 108.602 173.589 112.061 170.161L147.986 136.259C152.444 131.84 157.167 127.447 160.941 122.414C164.936 117.087 168.076 111.466 169.564 104.935L169.844 101.419L169.69 97.3526C169.407 95.0686 168.857 93.0655 168.084 90.8932C167.655 90.2788 167.377 89.5482 167.009 88.8931C166.523 88.0262 165.931 87.2013 165.334 86.4093C161.04 80.7212 154.812 76.9229 147.76 75.8383C145.813 75.5387 143.849 75.6283 141.907 75.3617C143.449 74.848 145.098 74.7479 146.651 74.2558C148.348 73.7184 150.603 73.4413 152.151 72.6104Z" fill="url(#paint4_linear_2778_20333)"/>
<path d="M171.85 54.7354C183.446 60.4929 192.668 70.1653 196.829 82.5381C200.657 93.9221 199.923 105.133 195.372 116.171C194.506 115.927 193.561 115.998 192.667 115.992L188.259 115.968L187.374 116.826C186.472 117.54 185.304 117.779 184.177 117.638C183.152 117.509 182.051 116.923 181.421 116.103C180.36 114.723 180.279 113.586 180.496 111.919C179.835 111.518 178.902 111.609 178.134 111.3C178.499 108.207 177.899 104.442 176.252 101.739C176.056 101.418 176.026 101.41 175.679 101.319C175.823 96.7172 174.898 92.2707 172.99 88.0824C169.404 80.2124 163.373 75.1228 155.336 72.1513C158.96 69.3715 162.27 66.4569 165.436 63.1631C167.844 60.6571 170.264 57.8488 171.85 54.7354Z" fill="#FEA600"/>
<path d="M180.496 111.919C181.113 110.527 181.772 109.546 183.264 108.962C184.336 108.542 185.502 108.522 186.559 108.994C187.703 109.504 188.434 110.385 188.881 111.538C189.328 112.691 189.206 114.015 188.698 115.127L188.258 115.969L187.374 116.827C186.472 117.541 185.303 117.78 184.177 117.639C183.151 117.51 182.051 116.924 181.42 116.104C180.36 114.724 180.279 113.587 180.496 111.919Z" fill="#01005C"/>
<path d="M184.385 109.882C184.967 109.862 185.546 109.888 186.079 110.153C186.951 110.585 187.483 111.307 187.77 112.22C188.05 113.107 187.887 113.988 187.424 114.808C186.931 115.681 186.16 116.068 185.229 116.327C184.627 116.324 183.991 116.357 183.431 116.105C182.701 115.778 182.17 115.242 181.906 114.481C181.583 113.553 181.589 112.545 182.032 111.655C182.537 110.641 183.359 110.239 184.385 109.882Z" fill="#F10346"/>
<path d="M180.711 74.8528C181.823 74.7869 182.912 75.0481 183.878 75.6073C185.219 76.3837 186.202 77.7413 186.53 79.2561C186.813 80.5609 186.46 82.091 185.737 83.2038C184.781 84.6743 183.496 85.3405 181.837 85.7009C180.601 85.7946 179.513 85.6445 178.429 85.0104C177.045 84.201 176.258 83.0532 175.882 81.506C175.561 80.185 175.781 78.7355 176.521 77.5894C177.52 76.0414 178.946 75.2299 180.711 74.8528Z" fill="#01005C"/>
<path d="M177.605 78.3722L177.808 78.0277C178.414 77.0479 179.233 76.3688 180.384 76.1373C181.473 75.9183 182.284 76.2251 183.198 76.8041C184.164 77.443 184.905 78.383 185.161 79.5357C185.405 80.6338 185.041 81.9515 184.387 82.8522C183.758 83.7191 182.868 84.3086 181.8 84.4554C180.665 84.6115 179.548 84.385 178.641 83.6673C177.732 82.9487 177.144 81.7706 177.053 80.6215C176.986 79.7702 177.264 79.1361 177.605 78.3722Z" fill="#0482F5"/>
<path d="M177.605 78.3722L177.808 78.0277C178.414 77.0479 179.233 76.3688 180.384 76.1373C181.473 75.9183 182.284 76.2251 183.198 76.8041C183.344 77.57 183.486 78.2758 183.033 78.9692C182.469 79.8301 181.166 80.1476 180.212 80.2854C179.66 80.3654 179.005 80.325 178.522 80.0107C177.944 79.6348 177.797 78.9878 177.605 78.3722Z" fill="#3AF1FC"/>
<path d="M155.337 72.1521L152.762 71.3649C143.823 69.0239 133.582 70.4827 125.633 75.1823C119.047 79.0758 113.55 85.2211 110.632 92.3188C109.696 94.5945 109.072 97.0013 108.466 99.3809L87.6836 99.3048C88.3486 92.2502 90.2621 85.8543 93.4238 79.5282C97.7571 70.8575 104.593 63.0216 112.839 57.8556C117.079 55.1996 121.798 53.2157 126.535 51.6367C135.052 48.797 144.228 47.5485 153.162 48.7749C159.611 49.6603 166.044 51.832 171.851 54.7362C170.265 57.8496 167.845 60.6579 165.437 63.1639C162.271 66.4577 158.961 69.3723 155.337 72.1521Z" fill="#FEEE27"/>
<path d="M107.88 76.5467C108.09 76.5233 108.317 76.4877 108.53 76.5144C108.981 76.5713 109.576 76.8936 109.814 77.2875C110.075 77.717 109.992 78.0259 109.857 78.4839C109.529 79.6027 108.569 81.3775 107.525 81.9386C107.143 82.0725 106.759 82.1773 106.358 82.0362C106.031 81.9209 105.769 81.6875 105.625 81.37C105.313 80.6799 105.55 79.742 105.81 79.0695C106.188 78.0918 106.905 76.9894 107.88 76.5467Z" fill="#FEFEFE"/>
<path d="M153.77 55.54C154.598 55.5996 155.34 55.6859 156.083 56.099C157.083 56.655 157.93 57.5949 158.225 58.7179C158.539 59.9104 158.425 61.3171 157.787 62.3901C157.062 63.6098 155.942 64.1284 154.61 64.4237C153.433 64.3854 152.529 64.3317 151.503 63.6736C150.5 63.0311 149.943 61.9548 149.738 60.8067C149.538 59.6891 149.738 58.3525 150.433 57.4317C151.316 56.2613 152.361 55.7803 153.77 55.54Z" fill="#01005C"/>
<path d="M153.55 56.7038C153.983 56.6882 154.468 56.6421 154.883 56.7897C155.756 57.0998 156.578 57.9154 156.969 58.7431C157.323 59.492 157.395 60.2723 157.087 61.0547C156.626 62.2295 155.734 62.8205 154.625 63.2854C153.995 63.3199 153.349 63.3037 152.75 63.0775C151.949 62.775 151.346 62.092 151.014 61.3198C150.686 60.5586 150.602 59.5012 150.956 58.7356C151.48 57.6018 152.42 57.0842 153.55 56.7038Z" fill="#F10346"/>
<path d="M117.194 63.4C111.719 67.6239 107.05 73.7661 103.758 79.7948L102.054 83.212C101.639 84.1212 101.278 85.1729 100.631 85.9478C99.9626 86.7506 98.9423 87.3158 97.8741 87.1879C97.2697 87.1154 96.8143 86.9342 96.4393 86.4361C95.9457 85.7809 95.8519 85.0587 95.9837 84.2604C96.2129 82.8738 96.8039 81.4121 97.3158 80.1075C100.291 72.5308 105.931 66.092 112.142 60.9446C113.483 59.833 114.829 58.6728 116.266 57.6867C118.576 56.1024 121.172 54.9806 123.757 53.9295C128.676 51.9288 133.696 50.4071 138.974 49.6996C141.083 49.4168 143.253 49.1499 145.372 49.4824L145.652 49.5241C146.609 49.6772 147.959 50.1825 148.499 51.0575C148.924 51.7464 149.028 52.3692 148.792 53.1495C148.401 54.4441 147.436 55.5444 146.53 56.5185C143.735 59.5263 140.156 62.1665 136.498 64.0261C133.987 65.3021 131.106 66.2816 128.305 66.648C127.511 66.7516 126.471 66.8717 125.693 66.6594L125.526 66.5989C124.531 67.647 123.464 68.4911 121.957 68.5555C120.671 68.6106 119.625 68.2664 118.679 67.3699C117.549 66.3005 117.268 64.8813 117.194 63.4Z" fill="#FEFEFE"/>
<path d="M117.195 63.3995C117.569 61.7988 118.143 60.6326 119.608 59.7373C120.722 59.0567 121.981 58.9633 123.226 59.3338C124.347 59.6675 125.379 60.6818 125.893 61.7191C126.473 62.8906 126.489 64.3985 126.031 65.6132L125.527 66.5984C124.532 67.6465 123.465 68.4907 121.958 68.5551C120.673 68.6102 119.627 68.266 118.68 67.3694C117.55 66.3001 117.27 64.8808 117.195 63.3995Z" fill="#01005C"/>
<path d="M120.83 60.3002C121.351 60.2382 121.956 60.2133 122.466 60.3472C123.427 60.5991 124.332 61.3336 124.771 62.226C125.193 63.0851 125.195 64.2087 124.881 65.1049C124.473 66.2726 123.652 66.7902 122.6 67.3129C121.924 67.3932 121.119 67.46 120.466 67.2371C119.655 66.9606 119.057 66.2959 118.684 65.5462C118.256 64.6841 118.223 63.5047 118.538 62.6001C118.941 61.4439 119.76 60.7986 120.83 60.3002Z" fill="#F10346"/>
<path d="M178.133 111.3C178.901 111.61 179.834 111.518 180.495 111.919C180.278 113.586 180.359 114.723 181.419 116.103C182.05 116.924 183.151 117.509 184.176 117.638C185.303 117.779 186.471 117.54 187.373 116.826L188.257 115.968L192.665 115.992C193.559 115.998 194.504 115.928 195.371 116.171C193.633 120.102 191.618 124.028 189.22 127.602C186.711 131.341 183.703 134.847 180.689 138.186C176.457 142.877 171.699 147.261 167.071 151.559C162.296 155.994 123.135 190.87 123.129 193.095C123.928 193.649 128.782 193.339 130.094 193.344L146.526 193.423L143.894 195.673L143.881 195.733L126.468 210.902L124.416 212.816C124.249 212.979 123.853 213.47 123.682 213.539C123.379 213.661 122.342 213.539 121.979 213.539L116.219 213.541L92.2656 213.694C93.4965 204.397 98.0604 195.077 103.757 187.705C104.815 186.335 105.882 184.887 107.133 183.689C107.161 183.124 113.385 176.816 114.357 175.802C124.958 173.559 134.867 167.539 142.82 160.308C144.365 158.904 146.076 157.417 147.348 155.761L147.992 154.913C147.797 154.428 147.582 153.939 147.483 153.423C147.226 152.083 147.469 150.735 148.264 149.622C149.05 148.523 150.361 147.795 151.689 147.613L151.886 147.588C152.677 147.484 153.288 147.56 154.058 147.712C157.356 144.832 160.101 141.432 162.967 138.141L167.686 132.953C173.013 126.566 176.673 119.502 178.133 111.3Z" fill="#FEBD1E"/>
<path d="M168.76 133.417C169.292 133.405 169.815 133.388 170.332 133.534C171.314 133.812 172.27 134.475 172.734 135.408C173.196 136.335 173.167 137.469 172.766 138.408C172.275 139.559 171.378 140.06 170.267 140.492C169.624 140.558 169.018 140.583 168.398 140.366C167.491 140.048 166.722 139.348 166.307 138.487C165.887 137.616 165.788 136.539 166.163 135.635C166.664 134.428 167.613 133.883 168.76 133.417Z" fill="#01005C"/>
<path d="M169.258 134.447L170.293 134.658C171.046 134.906 171.622 135.488 171.912 136.217C172.122 136.747 172.115 137.431 171.884 137.953C171.526 138.763 170.65 139.123 169.867 139.362C169.45 139.364 169.055 139.359 168.66 139.208C168.064 138.982 167.571 138.557 167.341 137.953C167.09 137.296 167.073 136.325 167.392 135.686C167.763 134.944 168.531 134.711 169.258 134.447Z" fill="#F10346"/>
<path d="M147.994 154.913C147.799 154.428 147.584 153.939 147.485 153.423C147.228 152.083 147.471 150.735 148.266 149.622C149.052 148.523 150.363 147.795 151.691 147.613L151.888 147.588C152.679 147.484 153.29 147.56 154.06 147.712C155.463 148.467 156.55 149.301 157.034 150.909C157.437 152.245 157.205 153.782 156.495 154.971C155.844 156.064 154.656 156.934 153.415 157.21C152.045 157.515 150.715 157.272 149.548 156.486C148.902 156.051 148.454 155.527 147.994 154.913Z" fill="#01005C"/>
<path d="M151.383 148.692C152.124 148.598 152.889 148.552 153.618 148.756C154.484 148.998 155.332 149.82 155.732 150.61C156.232 151.599 156.196 152.737 155.797 153.747C155.301 155.005 154.448 155.669 153.233 156.183C152.396 156.333 151.563 156.28 150.763 155.968C149.795 155.591 149.013 154.757 148.654 153.788C148.312 152.867 148.465 151.62 148.862 150.74C149.376 149.603 150.286 149.124 151.383 148.692Z" fill="#07E2CA"/>
<path d="M143.894 195.674L143.881 195.733L126.468 210.903L124.416 212.817C124.249 212.98 123.853 213.471 123.682 213.54C123.379 213.662 122.342 213.54 121.979 213.54L116.219 213.542L92.2656 213.695C93.4965 204.398 98.0604 195.077 103.757 187.705C104.815 186.335 105.882 184.888 107.133 183.689L107.09 183.827C106.838 184.571 106.266 185.058 105.784 185.659L105.185 186.408C102.979 189.317 100.942 192.08 99.0905 195.242C98.5858 196.105 97.7872 197.301 97.6512 198.279L97.9007 198.411L97.8234 198.904L98.0088 198.934C98.5942 199.103 99.8391 200.491 100.264 200.31L100.395 200.72L101.19 201.128C101.354 200.84 101.351 200.631 101.45 200.335L101.564 200.11C101.725 199.717 101.684 199.534 101.968 199.153C102.123 198.944 102.066 199.022 102.194 198.774C102.531 198.119 103.019 197.613 103.584 197.153C103.882 196.911 104.158 196.722 104.483 196.517L104.658 196.395C104.896 196.236 104.758 196.319 105.082 196.218L105.527 196.046C105.73 195.97 105.643 196.003 105.873 195.958C106.133 195.906 106.019 195.943 106.28 195.768L106.509 195.785C107.239 195.832 107.95 195.874 108.676 195.768C108.873 195.915 108.89 195.985 109.139 195.983C109.51 195.98 109.877 196.16 110.226 196.277C110.504 196.371 110.742 196.505 111.001 196.64C111.183 196.734 111.105 196.704 111.299 196.75C111.271 196.488 111.206 196.401 111.343 196.178C111.532 195.873 111.556 195.516 111.522 195.168C110.711 194.417 109.56 193.674 108.452 193.483L108.227 193.221C108.28 192.954 108.223 192.818 108.527 192.697L108.938 192.659C109.249 192.574 109.552 192.413 109.874 192.322C110.169 192.24 110.203 192.268 110.399 192.024L110.736 192.06L110.848 191.874L111.073 191.873C111.807 191.453 112.188 191.009 112.608 190.301L112.739 190.116C112.931 189.84 112.925 189.7 113.02 189.402L113.282 188.915C113.406 188.677 113.489 188.463 113.544 188.203L113.586 188.011C113.613 187.878 113.589 187.738 113.619 187.605L113.841 187.098L113.929 187.605L114.148 187.307C114.381 187.493 114.363 187.535 114.461 187.802L114.655 187.773C114.895 188.343 115.078 188.896 115.379 189.439L115.461 189.603C115.936 190.514 116.863 191.256 117.737 191.76L117.877 191.859C118.174 192.044 118.661 192.093 119.011 192.247C119.212 192.336 119.365 192.39 119.58 192.433C119.779 192.473 119.859 192.522 120.018 192.642L119.964 193.027C119.147 193.452 118.411 193.88 117.663 194.419L117.516 194.521C116.35 195.349 115.571 196.444 115.131 197.803C114.857 198.646 114.828 199.444 114.127 200.045C114.137 200.379 114.203 200.484 114.291 200.791L114.378 201.234L114.488 201.724C114.628 202.426 114.556 203.118 114.373 203.785C114.042 204.995 113.789 205.978 113.041 207.029L112.904 207.225C112.575 207.687 112.275 207.946 111.821 208.272L111.655 208.397C110.258 209.425 108.199 209.757 106.508 209.476L105.95 209.3C105.754 209.229 105.842 209.251 105.607 209.249C105.421 209.447 105.164 209.616 105.152 209.891C105.127 210.47 104.76 211.221 104.901 211.735L105.223 211.841C105.244 212.074 105.242 212.228 105.196 212.459C105.144 212.728 105.166 212.921 105.202 213.189C106.115 213.557 108.043 213.303 109.051 213.292L117.588 213.365L117.812 213.215C119.373 213.108 121.034 213.168 122.598 213.227C122.805 213.235 122.967 213.357 123.129 213.365C123.65 213.392 124.944 211.798 125.452 211.419C125.94 211.055 126.283 210.479 126.799 210.221C127.279 209.981 128.114 209.157 128.451 208.747C128.674 208.475 128.765 208.514 129.045 208.348L129.871 207.599C130.563 207.003 131.318 206.226 132.066 205.725C132.429 205.482 132.678 205.126 133.052 204.865C133.563 204.509 133.964 203.997 134.457 203.614C135.098 203.115 136.273 201.663 136.983 201.458C137.341 201.077 137.656 200.714 138.095 200.422C138.525 200.137 138.829 199.719 139.255 199.435C139.728 199.119 140.041 198.676 140.541 198.35L143.657 195.541L143.894 195.674Z" fill="#FE9201"/>
<path d="M113.93 187.604L114.148 187.307C114.382 187.493 114.363 187.534 114.462 187.802C114.569 188.348 114.817 188.894 115.074 189.386C116.176 191.496 117.64 192.103 119.797 192.793L118.589 193.476C117.38 194.22 116.117 195.137 115.418 196.404C114.836 197.458 114.583 198.696 114.302 199.855C114.058 198.91 113.855 197.939 113.403 197.067C112.307 194.957 110.512 193.861 108.324 193.136C109.364 192.78 110.688 192.46 111.616 191.865C112.92 191.028 113.524 189.207 113.89 187.767L113.93 187.604Z" fill="#FEFEFE"/>
<path d="M107.004 196.039C108.568 196.075 109.922 196.286 111.281 197.132C112.667 197.994 113.789 199.61 114.123 201.219C114.507 203.072 114.053 205.033 112.995 206.597C111.939 208.156 110.373 208.935 108.563 209.278C107.091 209.404 105.517 209.098 104.277 208.263C102.682 207.19 101.859 205.68 101.521 203.808C101.199 202.018 101.577 200.058 102.655 198.581C103.751 197.08 105.182 196.332 107.004 196.039Z" fill="#C30031"/>
<g filter="url(#filter0_f_2778_20333)">
<path d="M104.329 249.815L104.454 249.885C108.175 251.969 111.585 254.315 115.495 256.142C136.996 266.186 161.594 268.417 184.865 262.961C193.06 261.04 200.687 258.068 208.085 254.256L213.696 251.146C214.971 251.325 216.391 251.262 217.691 251.335L226.267 251.885C240.93 252.916 255.781 254.111 270.095 257.397C273.381 258.151 277.582 258.983 280.365 260.835C280.844 261.154 281.298 261.549 281.356 262.127C281.421 262.786 281.252 263.204 280.789 263.698C273.342 271.657 203.316 275.079 189.416 275.596L145.702 276.313L91.3033 274.493C72.9552 273.49 54.3486 272.245 36.2944 268.88C32.6296 268.197 28.9957 267.409 25.4889 266.175C24.0688 265.675 22.5434 265.153 21.4349 264.142C20.9723 263.721 20.7088 263.301 20.719 262.686C20.7296 262.035 21.1943 261.511 21.6755 261.087C23.1229 259.811 25.6178 259.093 27.4699 258.507C34.5453 256.268 42.1398 255.12 49.512 254.145L80.7113 251.03L98.235 250.018L104.329 249.815Z" fill="#FDE5D7"/>
</g>
<defs>
<filter id="filter0_f_2778_20333" x="0.718761" y="229.815" width="300.652" height="66.498" filterUnits="userSpaceOnUse" color-interpolation-filters="sRGB">
<feFlood flood-opacity="0" result="BackgroundImageFix"/>
<feBlend mode="normal" in="SourceGraphic" in2="BackgroundImageFix" result="shape"/>
<feGaussianBlur stdDeviation="9.99999" result="effect1_foregroundBlur_2778_20333"/>
</filter>
<linearGradient id="paint0_linear_2778_20333" x1="82.6827" y1="134.814" x2="84.9308" y2="130.209" gradientUnits="userSpaceOnUse">
<stop stop-color="#7F002D"/>
<stop offset="1" stop-color="#C50131"/>
</linearGradient>
<linearGradient id="paint1_linear_2778_20333" x1="123.013" y1="79.4141" x2="93.0275" y2="41.7461" gradientUnits="userSpaceOnUse">
<stop stop-color="#A6F1F5"/>
<stop offset="1" stop-color="#FFFFFE"/>
</linearGradient>
<linearGradient id="paint2_linear_2778_20333" x1="127.174" y1="132.633" x2="214.337" y2="181.131" gradientUnits="userSpaceOnUse">
<stop stop-color="#19A0DB"/>
<stop offset="1" stop-color="#00C6FD"/>
</linearGradient>
<linearGradient id="paint3_linear_2778_20333" x1="95.7854" y1="158.295" x2="52.2419" y2="178.681" gradientUnits="userSpaceOnUse">
<stop stop-color="#FF9C01"/>
<stop offset="1" stop-color="#FFCC02"/>
</linearGradient>
<linearGradient id="paint4_linear_2778_20333" x1="144.932" y1="145.238" x2="108.509" y2="109.249" gradientUnits="userSpaceOnUse">
<stop stop-color="#FBFBD4"/>
<stop offset="1" stop-color="#008CF7"/>
</linearGradient>
</defs>
</svg>
