<svg width="259" height="252" viewBox="0 0 259 252" fill="none" xmlns="http://www.w3.org/2000/svg">
<path d="M179.383 6.5053C181.051 6.8918 182.641 7.54141 184.272 8.05102C184.653 8.17027 185.752 8.3952 185.996 8.64336C184.307 9.24649 182.75 9.9636 181.119 10.6779C180.509 10.9449 179.673 11.1959 179.144 11.5818C178.831 11.8106 178.673 12.051 178.511 12.3813L176.412 17.2432C176.396 17.0011 176.384 17.0152 176.41 16.8033C176.53 15.8109 177.017 14.8611 177.377 13.9301C177.647 13.234 177.981 12.0485 178.474 11.472C178.615 11.3071 179.083 11.0913 179.28 10.977C180.299 10.3858 181.484 10.1631 182.415 9.46919L182.554 9.36185L183.069 9.19502L183.98 8.98919L184.073 8.75652L183.82 8.55593C183.02 7.96609 181.532 7.2177 180.511 7.33224L180.381 7.34996C179.917 7.16709 179.69 6.86192 179.383 6.5053Z" fill="#1D204E"/>
<path d="M175.918 1.36311L176.487 -2.00272e-05L178.593 4.60894C178.857 5.20155 179.247 5.88185 179.38 6.50462C179.686 6.86124 179.913 7.16641 180.378 7.34928L180.507 7.33156C181.529 7.21702 183.016 7.96541 183.816 8.55525L184.069 8.75584L183.976 8.98851L183.066 9.19434C182.827 8.98573 182.626 8.96277 182.315 8.90246L182.067 8.85626C181.418 8.7207 181.7 8.48775 181.415 8.06418C181.053 7.87328 180.777 7.79554 180.378 7.71475L180.045 7.93884C179.432 7.94327 179.013 7.65804 178.542 7.29257C177.687 6.62996 177.106 4.70908 176.714 3.74601C176.494 3.20348 176.167 2.62359 176.128 2.04094C176.107 1.72693 176.147 1.81214 176.011 1.52663L175.918 1.36311Z" fill="#831439"/>
<path d="M232.066 83.5351C232.467 83.5127 232.98 83.4568 233.37 83.5548C233.936 83.6967 234.517 84.2854 234.809 84.74C235.12 85.2242 235.109 85.7498 234.932 86.2791C234.665 87.072 234.039 87.4925 233.295 87.8699C232.921 87.9191 232.609 87.9366 232.237 87.8596C231.579 87.7232 231.024 87.3224 230.683 86.7713C230.386 86.2918 230.351 85.5963 230.499 85.067C230.719 84.2738 231.352 83.9114 232.066 83.5351Z" fill="#1D204E"/>
<path d="M158.081 8.45642C158.179 8.90545 158.26 9.43635 158.473 9.84941C158.961 10.7967 160.236 11.3904 161.242 11.7343L161.43 11.7968C159.533 12.7593 158.743 13.7869 158.023 15.6455C157.724 14.9801 157.419 14.1424 156.967 13.5583C156.329 12.7333 155.254 12.3076 154.312 11.8688C155.202 11.4411 156.278 11.0269 156.954 10.3134C157.447 9.79379 157.762 9.08113 158.081 8.45642Z" fill="#1D204E"/>
<path d="M169.23 9.44441C169.678 9.37801 170.16 9.65798 170.58 9.83034C171.207 10.0887 171.945 10.413 172.598 10.5906C173.037 10.7101 173.469 10.9945 173.837 11.2455L174.064 11.894C174.179 12.2716 174.383 12.5975 174.5 12.9752L174.718 13.5935L175.175 14.7052L175.372 14.8546C176.114 13.8945 176.38 11.723 176.703 10.5392C176.731 10.4373 176.919 9.6104 176.967 9.57637C177.106 9.47566 177.826 9.37192 178.041 9.30884C178.585 9.1492 179.123 8.90877 179.654 8.71207L180.021 8.77156L179.586 9.03217C180.436 9.34176 181.631 9.20592 182.561 9.36085L182.423 9.46819C181.491 10.1621 180.307 10.3848 179.287 10.976C179.09 11.0903 178.622 11.3061 178.481 11.471C177.988 12.0475 177.654 13.233 177.384 13.9291C177.024 14.8601 176.537 15.8099 176.417 16.8023C176.391 17.0142 176.403 17.0001 176.419 17.2422C176.344 17.4593 176.356 17.6309 176.138 17.7471L174.292 13.0919C174.074 12.5361 173.867 11.5789 173.318 11.3064C172.082 10.6922 170.435 10.3021 169.334 9.52822L169.23 9.44441Z" fill="#B91745"/>
<path d="M225.068 69.344L225.414 69.3243L226.344 71.5841C226.56 71.8882 229.071 72.2926 229.598 72.4188C228.892 73.0183 228.076 73.495 227.279 73.9786L227.842 76.8936L225.392 75.6339L225.146 75.5692C225.136 75.5672 224.677 75.4934 224.666 75.4953C224.567 75.5119 224.164 75.8198 224.073 75.8771L222.391 76.8543L223.133 74.0539L220.984 72.0868L223.817 71.8057C224.334 71.0598 224.684 70.1587 225.068 69.344Z" fill="#F5F011"/>
<path d="M24.3914 134.387L24.7968 135.414C25.7018 137.277 27.2111 138.097 29.1613 138.799L27.3254 139.625C25.5696 140.517 24.8452 141.68 24.2909 143.428L24.1743 143.111C23.2296 140.704 21.8742 139.96 19.4922 138.91L21.0588 138.26C22.8489 137.442 23.766 136.106 24.3914 134.387Z" fill="#E2134E"/>
<path d="M62.3568 86.4549C63.0989 87.5427 63.6637 88.768 64.6722 89.6691C65.4169 90.3351 66.4391 90.7946 67.3348 91.2613C64.7774 92.3406 63.8374 93.2492 62.6591 95.626C62.0904 95.3867 61.3616 93.7638 60.8772 93.232C59.9675 92.2333 58.9537 91.761 57.668 91.3501C59.1112 90.6234 60.557 89.9331 61.4051 88.5467C61.8008 87.8999 62.0684 87.1493 62.3568 86.4549Z" fill="#E2134E"/>
<path d="M175.918 1.3637L176.011 1.52721C176.147 1.81273 176.107 1.72751 176.128 2.04152C176.167 2.62418 176.494 3.20406 176.714 3.7466C177.106 4.70966 177.687 6.63055 178.542 7.29316C179.013 7.65863 179.432 7.94385 180.045 7.93942L180.378 7.71534C180.777 7.79612 181.053 7.87386 181.415 8.06476C181.7 8.48833 181.418 8.72128 182.067 8.85684L182.315 8.90305C182.625 8.96336 182.827 8.98632 183.066 9.19492L182.55 9.36175C181.62 9.20682 180.425 9.34267 179.575 9.03308L180.01 8.77247L179.643 8.71297C179.112 8.90968 178.574 9.15011 178.03 9.30975C177.815 9.37282 177.095 9.47657 176.956 9.57728C176.908 9.61131 176.72 10.4382 176.692 10.5401C176.369 11.7239 176.103 13.8954 175.361 14.8555L175.164 14.7061L174.707 13.5944L174.489 12.9761C174.372 12.5984 174.168 12.2725 174.053 11.8949L173.826 11.2464C173.458 10.9955 173.026 10.711 172.587 10.5915C171.934 10.4139 171.196 10.0896 170.569 9.83125C170.15 9.65888 169.667 9.37892 169.22 9.44532L167.691 8.9025C169.133 8.19757 173.014 7.06987 173.803 6.01994C174.257 5.41515 174.508 4.59761 174.786 3.90705L175.918 1.3637Z" fill="#EC0F53"/>
<path d="M25.1325 95.3509C25.6695 95.3537 25.8038 95.7485 26.0144 96.1768C27.1418 98.4665 28.4704 100.328 30.9206 101.513C31.7575 101.918 32.7116 102.189 33.5841 102.534C28.8952 104.559 27.4376 105.417 25.381 110.064C24.7178 108.998 24.1432 107.819 23.3973 106.81C21.7585 104.591 19.5433 103.696 17 102.664C18.0575 102.144 19.2302 101.884 20.2865 101.362C23.2108 99.917 23.4778 97.6962 25.1325 95.3509Z" fill="#E2134E"/>
<g filter="url(#filter0_f_2778_20204)">
<path d="M90.2177 209.205L90.3228 209.264C93.4348 211.006 96.2865 212.969 99.5563 214.497C117.538 222.897 138.11 224.763 157.572 220.199C164.425 218.592 170.804 216.107 176.992 212.919L181.683 210.318C182.75 210.468 183.938 210.415 185.025 210.476L192.197 210.936C204.46 211.798 216.881 212.798 228.852 215.546C231.599 216.176 235.113 216.873 237.44 218.422C237.841 218.688 238.221 219.019 238.269 219.502C238.324 220.053 238.182 220.403 237.795 220.816C231.567 227.472 173.003 230.334 161.378 230.766L124.819 231.366L79.3243 229.844C63.9794 229.005 48.4183 227.963 33.3192 225.149C30.2543 224.578 27.2151 223.92 24.2823 222.887C23.0947 222.469 21.8189 222.033 20.8919 221.187C20.505 220.835 20.2847 220.483 20.2932 219.969C20.302 219.425 20.6906 218.987 21.0931 218.632C22.3036 217.565 24.3901 216.965 25.9391 216.474C31.8564 214.602 38.2078 213.642 44.3733 212.826L70.466 210.221L85.1214 209.375L90.2177 209.205Z" fill="#FDE5D7"/>
</g>
<path d="M90.2247 209.209C87.8198 207.525 85.5876 205.695 83.4182 203.746C82.3904 202.823 81.3814 201.489 80.2213 200.768C78.9473 199.978 77.0961 199.501 75.6829 198.875C72.9916 197.684 70.4815 196.281 67.9925 194.755C56.0172 187.412 46.9974 176.812 42.1299 164.136C40.4982 159.887 39.3848 155.297 38.6875 150.832L38.028 145.521L43.787 143.845L44.2067 132.065L19.7383 127.426L40.987 115.238L41.4385 99.2958C41.5592 96.0724 41.5257 92.6647 42.0753 89.479L59.925 109.222L82.1234 103.038C81.3194 104.436 80.2316 105.664 79.2323 106.939L75.121 112.158L67.7176 121.592C71.8512 124.767 75.598 128.608 79.4156 132.127L81.3396 133.914C81.4662 134.033 81.7829 134.411 81.9368 134.477C82.5449 134.739 83.7152 134.799 84.4037 134.926L92.0835 136.364L108.746 139.74C110.739 140.094 112.782 140.567 114.806 140.695C117.365 143.874 119.468 147.241 122.567 150.024C123.74 147.16 123.972 144.321 123.682 141.282C123.442 138.768 122.52 136.466 121.502 134.155L106.582 133.466L101.071 133.291C100.194 133.261 99.2219 133.294 98.3568 133.173C98.0461 133.129 97.849 132.993 97.5902 132.841L82.9159 124.216L90.5781 99.1967C91.6273 95.77 92.4307 92.1601 93.8475 88.8488C96.953 88.3353 100.075 88.4102 103.209 88.2066C101.631 87.531 99.855 87.09 98.2041 86.5804L90.4015 84.1405L64.6949 75.9143C59.4092 74.2184 53.7709 72.7952 48.727 70.5385C49.7472 64.8968 51.3005 59.2538 53.6006 53.9468C58.4457 42.7678 66.8225 32.3725 77.3273 25.3924C91.8952 15.7123 110.412 11.4824 128.05 14.4003C133.585 15.3161 138.602 17.3573 143.851 19.1227L166.208 26.3986L173.777 28.8957C175.335 29.4161 176.939 30.0336 178.56 30.3559C179.829 30.6083 181.2 30.6467 182.492 30.777L189.495 31.4308L196.954 20.0619C197.85 23.1544 198.334 26.3283 198.875 29.4889C199.083 30.7031 199.147 32.2389 199.585 33.3812L213.16 37.0652C212.603 37.6305 211.034 38.0933 210.219 38.4339C207.127 39.727 203.959 41.1576 200.756 42.1849L201.358 46.6944C201.473 47.4915 202.648 48.4518 203.197 49.1022L205.091 51.577C210.604 59.399 213.515 68.7441 213.123 78.1306C212.986 81.4024 212.408 84.5575 211.737 87.7648C213.447 85.6754 214.756 83.201 216.321 80.9924C216.603 80.5932 217.073 79.717 217.512 79.5037L221.271 97.6848L239.001 103.081C237.302 104.029 235.495 104.755 233.702 105.525L222.377 110.302L225.075 122.129L226.065 126.616C226.196 127.291 226.421 128.087 226.384 128.773L213.799 114.637L205.099 119.661C214.292 131.942 217.625 148.229 215.008 162.997C211.854 180.805 200.942 197.616 185.206 208.025L181.69 210.321L176.999 212.922C170.811 216.11 164.432 218.596 157.579 220.203C138.117 224.766 117.545 222.9 99.5633 214.5C96.2935 212.972 93.4418 211.009 90.3299 209.267L90.2247 209.209Z" fill="#1D204E"/>
<path d="M201.059 117.753C201.246 118.033 201.214 118.042 201.525 118.191C202.203 118.514 202.336 118.739 203.163 118.701C202.149 118.909 201.005 119.315 199.983 119.364C199.569 119.113 199.548 118.918 199.359 118.499C199.965 118.303 200.498 118.038 201.059 117.753Z" fill="#531542"/>
<path d="M199.66 107.306L201.394 104.562L202.177 105.338C202.102 106.14 201.334 107.248 201.006 108.036L199.66 107.306Z" fill="#ACB4AE"/>
<path d="M184.153 44.3602L184.393 44.4272C184.915 44.5625 185.499 44.558 186.038 44.5849L185.866 44.7633L185.696 45.1897C184.823 46.0144 183.681 46.8438 183.02 47.8174L182.292 48.083C182.206 47.484 183.792 45.0143 184.153 44.3602Z" fill="#F5F011"/>
<path d="M190.004 32.992C190.873 32.0079 191.54 30.8443 192.235 29.7476L194.749 25.8173C195.229 25.0429 195.682 24.1023 196.293 23.4198L196.405 23.8533C196.226 24.3195 196.073 24.7594 195.974 25.2466C194.918 26.1241 194.376 27.5561 193.657 28.6791C193.23 29.3456 192.691 29.9678 192.286 30.6362C191.971 31.1575 191.954 31.9432 191.606 32.4113C191.398 32.6919 190.843 32.9074 190.523 33.0391L190.004 32.992Z" fill="#F5F011"/>
<path d="M61.5327 135.815L65.8409 137.48L64.4652 137.841L60.8867 138.748L61.5327 135.815Z" fill="#68A4B2"/>
<path d="M197.168 40.0841C197.619 40.2327 199.07 41.0674 199.231 41.468C199.434 41.9718 199.386 42.8112 199.426 43.367L199.757 46.9318C199.559 46.8552 199.654 46.8718 199.474 46.8654C199.411 46.9188 199.247 47.0903 199.166 47.0986C198.865 46.7658 198.666 45.7897 198.541 45.3457L197.168 40.0841Z" fill="#BA1D24"/>
<path d="M196.053 35.6628L196.193 35.5908C196.792 35.2851 197.579 34.8228 198.233 34.6634C199.268 34.4111 201.71 35.2857 202.733 35.5728C202.387 36.088 202.097 36.0376 201.499 36.2058L197.664 36.5016C196.853 36.3901 196.058 36.8339 195.387 36.3124C195.631 36.1082 195.84 35.8954 196.053 35.6628Z" fill="#F5F011"/>
<path d="M74.8349 109.734L75.0438 109.81C73.964 111.201 66.7553 120.45 65.9669 120.737L65.5706 120.463L64.5859 119.603L74.8349 109.734Z" fill="#CE1649"/>
<path d="M197.281 98.2365C198.287 98.4943 199.077 99.1971 199.935 99.7263C200.756 100.232 201.615 100.613 202.522 100.962L202.438 101.124C203.868 101.685 205.943 102.19 207.061 103.212L207.089 103.585C207.018 103.932 206.965 104.193 206.984 104.549C206.997 104.788 206.991 104.775 206.969 104.993L206.049 105.172L205.006 105.253L204.399 105.102L197.281 98.2365Z" fill="#F04333"/>
<path d="M193.603 41.2135C195.669 43.3051 197.064 46.0969 199.317 48.041C199.378 47.6897 199.28 47.4304 199.175 47.099C199.256 47.0907 199.419 46.9192 199.483 46.8658C199.663 46.8721 199.567 46.8555 199.765 46.9322L200.218 50.6826L196.112 46.9673C195.155 46.1168 194.189 45.1524 193.036 44.5407L192.898 44.4701L193.603 41.2135Z" fill="#E02624"/>
<path d="M196.405 23.8528C196.973 25.6954 197.142 27.6865 197.452 29.5805C197.67 30.9146 198.143 32.6335 197.964 33.967C197.602 34.3557 196.14 35.256 196.061 35.6633C195.848 35.8959 195.638 36.1087 195.394 36.3129L194.836 36.7002C195.846 34.7666 195.579 32.6415 195.68 30.5433L195.975 25.2461C196.073 24.7589 196.227 24.319 196.405 23.8528Z" fill="#E02624"/>
<path d="M194.381 38.1925L194.692 37.5979C194.934 37.6693 195.071 37.7933 195.268 37.9388L197.167 40.0854L198.54 45.347C198.666 45.7911 198.864 46.7671 199.166 47.1C199.271 47.4314 199.368 47.6906 199.307 48.042C197.055 46.0979 195.659 43.3061 193.594 41.2145L194.381 38.1925Z" fill="#F0461D"/>
<path d="M185.7 45.1906C187.746 43.4958 190.645 41.4645 193.306 40.7294L192.562 44.4577L183.023 47.8184C183.684 46.8448 184.826 46.0153 185.7 45.1906Z" fill="#E02624"/>
<path d="M199.665 107.307L201.011 108.037L198.068 116.181C196.925 114.882 195.518 113.451 193.698 113.078L193.527 113.046C194.322 112.45 195.182 111.913 195.933 111.27C197.342 110.061 198.512 108.731 199.665 107.307Z" fill="#55C4A0"/>
<path d="M201.066 117.754C204.141 116.086 206.924 114.16 209.718 112.112C210.387 111.621 211.483 110.993 211.906 110.311C211.934 111.646 211.995 112.538 212.669 113.746L207.756 116.849C206.786 117.438 205.731 118.17 204.639 118.536C204.183 118.688 203.65 118.687 203.171 118.702C202.344 118.739 202.211 118.515 201.533 118.191C201.222 118.043 201.254 118.034 201.066 117.754Z" fill="#961A1F"/>
<path d="M212.582 104.961C212.624 104.684 212.772 104.399 212.875 104.135L213.164 104.127C213.14 104.753 213.074 105.307 213.375 105.882C213.692 106.489 213.864 107.174 214.15 107.799C214.776 109.17 215.547 110.505 216.332 111.8C217.637 113.953 219.623 116.064 220.569 118.336C220.446 118.734 220.389 118.94 220.51 119.351C220.613 119.703 220.914 120.405 220.727 120.702L217.055 116.573C215.194 114.488 212.713 112.34 212.544 109.459C212.493 108.596 212.506 107.695 212.617 106.836C212.696 106.227 213.029 105.443 212.842 104.859L212.582 104.961Z" fill="#BA1D24"/>
<path d="M199.545 117.736C203.932 113.715 208.987 109.824 212.532 105.075C212.551 106.824 212.088 108.563 211.898 110.31C211.476 110.992 210.379 111.62 209.71 112.11C206.916 114.159 204.133 116.085 201.059 117.752C200.498 118.038 199.965 118.303 199.359 118.498C199.377 118.244 199.477 117.983 199.545 117.736Z" fill="#E02624"/>
<path d="M202.728 35.5724L206.319 36.4946L209.279 37.3262L203.129 39.8599C202.183 40.2525 201.15 40.8047 200.162 41.0529C199.816 41.1397 199.438 41.1334 199.102 41.0097C198 40.6049 196.191 37.8441 195.265 37.9382C195.068 37.7927 194.93 37.6687 194.688 37.5973L194.378 38.1919L194.191 38.1175L194.52 37.0993C196.041 37.5912 198.455 37.3647 200.078 37.2792C200.15 37.0755 200.135 37.1771 200.13 36.9762C199.902 37.0617 199.834 37.0459 199.588 36.9939C199.135 36.8979 198.683 36.8766 198.221 36.8473L198.368 36.7328L197.658 36.5012L201.493 36.2054C202.091 36.0372 202.381 36.0876 202.728 35.5724Z" fill="#E02624"/>
<path d="M202.726 35.5735L206.317 36.4957C205.688 36.6412 205.086 36.7831 204.439 36.8329L200.076 37.2803C200.148 37.0766 200.134 37.1782 200.128 36.9773C199.9 37.0628 199.832 37.047 199.586 36.995C199.133 36.899 198.681 36.8777 198.219 36.8484L198.367 36.7339L197.656 36.5023L201.492 36.2065C202.089 36.0383 202.379 36.0887 202.726 35.5735Z" fill="#FAB40A"/>
<path d="M132.829 211.065L132.904 211.053C133.437 211.654 134.255 212.075 134.941 212.519L138.651 214.873C139.533 215.379 141.601 216.205 141.871 217.142C137.808 217.489 133.535 217.359 129.472 217.044C126.943 216.848 124.312 216.62 121.848 216.05L123.981 215.562C125.725 215.245 127.562 214.636 129.154 213.898C130.322 213.358 132.394 212.282 132.829 211.065Z" fill="#EC0F53"/>
<path d="M58.0937 130.02L71.04 135.636L68.0452 136.604L61.0938 134.206C60.8007 134.128 60.5698 134.07 60.2637 134.083C59.6348 135.653 59.373 137.57 58.9882 139.227L53.0039 141.089C53.6801 139.965 54.1948 138.694 54.7561 137.512L58.0937 130.02Z" fill="#E2134E"/>
<path d="M212.48 103.701C213.392 103.622 213.392 103.645 214.134 104.158L214.248 104.408C213.913 104.442 213.488 104.232 213.168 104.126L212.878 104.134C212.775 104.398 212.627 104.683 212.586 104.96L212.546 105.075C209 109.824 203.945 113.715 199.559 117.736C200.006 115 201.151 111.791 202.467 109.314C202.754 108.24 203.488 106.93 204.024 105.932C204.307 105.405 204.436 105.418 205.009 105.252L206.053 105.172L206.973 104.992C208.822 104.775 210.746 104.334 212.48 103.701Z" fill="#F8DF05"/>
<path d="M205.006 105.252L206.049 105.171C206.423 105.771 206.973 105.875 207.607 106.193C206.16 107.726 204.329 109.13 203.067 110.772C202.783 111.141 202.645 111.188 202.195 111.292L202.342 111.05L202.374 110.922C202.477 110.538 202.733 110.022 202.929 109.667L202.463 109.313C202.75 108.239 203.484 106.929 204.02 105.932C204.304 105.405 204.432 105.417 205.006 105.252Z" fill="#F5F011"/>
<path d="M214.123 104.157L214.323 103.915L214.917 103.897C215.681 103.928 216.146 104.073 216.803 104.342L217.232 104.417L217.295 104.825C216.973 105.097 216.37 105.056 215.934 105.093L214.967 104.713L214.914 104.922C216.41 105.757 217.941 106.519 219.568 107.103C220.493 107.659 220.629 108.218 220.978 109.144L222.492 117.105L223.979 124.174C223.576 123.653 223.189 123.085 222.712 122.623C221.924 122.035 221.345 121.435 220.719 120.701C220.906 120.403 220.605 119.701 220.502 119.349C220.381 118.938 220.438 118.733 220.561 118.335C219.615 116.063 217.629 113.952 216.324 111.799C215.539 110.504 214.768 109.168 214.142 107.797C213.856 107.172 213.684 106.487 213.367 105.881C213.066 105.305 213.132 104.751 213.156 104.126C213.477 104.232 213.901 104.441 214.237 104.407L214.123 104.157Z" fill="#F0461D"/>
<path d="M220.568 118.336C220.818 118.904 221.069 119.721 221.509 120.179L221.593 120.042C221.172 118.819 220.465 117.849 220.46 116.509C221.291 118.597 222.284 120.4 222.718 122.624C221.93 122.036 221.351 121.436 220.725 120.701C220.913 120.404 220.611 119.702 220.508 119.35C220.387 118.939 220.445 118.734 220.568 118.336Z" fill="#961A1F"/>
<path d="M219.567 107.106C220.492 107.662 220.628 108.221 220.977 109.147L222.491 117.107C222.359 117.07 222.277 117.054 222.159 117C221.606 116.748 221.157 116.094 221.013 115.544C220.95 115.306 220.784 115.247 220.586 115.089C220.373 114.334 220.334 113.5 220.165 112.725C219.876 111.397 219.274 109.778 219.258 108.449C219.252 107.937 219.34 107.567 219.567 107.106Z" fill="#E02624"/>
<path d="M45.7695 95.6731L59.0436 110.38C58.4755 112.551 57.4929 114.67 56.641 116.756L55.6845 119.164L45.7695 95.6731Z" fill="#F0461D"/>
<path d="M55.4028 122.013C55.1731 122.716 54.6393 123.165 54.1397 123.706C52.7158 125.247 51.0791 126.538 49.3876 127.804C48.2723 128.639 46.8094 129.511 45.9451 130.572C44.3847 130.005 42.5644 129.773 40.9173 129.456L31.1201 127.7L26.5234 127.111L55.4028 122.013Z" fill="#F0461D"/>
<path d="M207.144 96.9411C208.702 97.2407 210.012 97.8519 211.242 98.8017C211.279 99.1923 211.32 99.2277 211.45 99.5719L211.503 100.056C212.094 100.788 212.798 101.458 213.258 102.269L213.637 102.302C214.483 102.259 215.131 101.533 215.753 101.062L217.716 99.6377C217.863 99.6402 218.245 99.3752 218.391 99.296L219.786 98.6224L221.849 99.3118L226.833 100.718C226.684 100.931 226.674 101.063 226.403 101.126C225.439 101.351 224.588 101.785 223.622 102.007L218.484 102.961C218.037 103.06 217.619 103.333 217.177 103.397C216.052 103.559 214.822 103.31 213.68 103.45L202.521 100.964C201.614 100.615 200.755 100.234 199.935 99.7285C199.076 99.1992 198.286 98.4965 197.281 98.2386C196.77 97.9113 196.294 97.4468 195.824 97.0636L205.6 96.9735L207.144 96.9411Z" fill="#F5F011"/>
<path d="M207.142 96.9387C208.7 97.2383 210.01 97.8495 211.239 98.7992C211.277 99.1899 211.318 99.2253 211.448 99.5695L211.501 100.054C212.092 100.786 212.795 101.456 213.256 102.267L213.635 102.299C213.59 102.681 213.631 102.881 213.356 103.174C211.393 101.176 208.82 99.3888 207.135 97.201L207.04 97.0737L205.598 96.971L207.142 96.9387Z" fill="#961A1F"/>
<path d="M226.841 100.716L233.152 102.651L235.324 103.176L235.347 103.312L235.037 103.451C234.127 104.023 233.079 104.404 232.092 104.843L226.805 107.203C225.382 107.814 223.689 108.746 222.178 109.08C221.839 109.155 221.45 109.146 221.11 109.085L220.992 109.146C220.644 108.219 220.508 107.66 219.582 107.104C217.956 106.52 216.424 105.758 214.929 104.923L214.981 104.714L215.949 105.094C216.385 105.057 216.988 105.098 217.309 104.826L217.247 104.418L216.817 104.343C216.16 104.074 215.695 103.929 214.932 103.898L214.337 103.917L214.138 104.158C213.396 103.645 213.396 103.622 212.483 103.701C210.75 104.335 208.826 104.776 206.976 104.993C206.998 104.775 207.004 104.788 206.991 104.548C206.972 104.193 207.025 103.932 207.096 103.585L207.068 103.212C205.949 102.19 203.875 101.685 202.445 101.124L202.529 100.962L213.688 103.447C214.829 103.308 216.06 103.557 217.184 103.395C217.627 103.331 218.044 103.058 218.491 102.959L223.63 102.005C224.596 101.783 225.447 101.349 226.41 101.124C226.682 101.061 226.691 100.928 226.841 100.716Z" fill="#E02624"/>
<path d="M207.089 103.585L207.379 103.642C207.493 103.545 207.579 103.405 207.723 103.352C207.896 103.288 208.446 103.33 208.655 103.323L211.744 103.235L211.963 103.372L212.208 103.419L212.476 103.701C210.742 104.335 208.818 104.776 206.969 104.992C206.99 104.775 206.996 104.787 206.984 104.548C206.965 104.193 207.018 103.932 207.089 103.585Z" fill="#F0461D"/>
<path d="M226.833 100.714L233.144 102.649C230.666 103.019 228.026 103.037 225.518 103.198C224.407 103.269 223.311 103.509 222.202 103.562L218.73 103.588C218.436 103.588 217.755 103.504 217.495 103.592C216.219 103.514 214.95 103.649 213.68 103.446C214.821 103.307 216.051 103.555 217.176 103.393C217.619 103.33 218.036 103.056 218.483 102.957L223.622 102.003C224.588 101.781 225.439 101.347 226.402 101.122C226.674 101.059 226.683 100.927 226.833 100.714Z" fill="#F8DF05"/>
<path d="M215.938 105.094C216.886 105.709 218.685 106.622 219.801 106.816C220.021 106.854 220.789 106.591 221.037 106.533C225.042 105.595 228.815 104.057 232.92 103.544C233.681 103.448 234.258 103.195 235.026 103.451C234.116 104.023 233.068 104.404 232.082 104.843L226.794 107.203C225.371 107.814 223.678 108.746 222.167 109.08C221.829 109.155 221.44 109.146 221.1 109.085L220.982 109.146C220.633 108.219 220.497 107.66 219.571 107.104C217.945 106.52 216.414 105.758 214.918 104.923L214.971 104.714L215.938 105.094Z" fill="#961A1F"/>
<path d="M91.1367 124.099C93.0972 124.231 95.1259 124.125 97.0946 124.127C103.692 124.136 110.597 124.244 116.565 127.26C118.132 128.051 119.528 129.082 120.898 130.141L100.46 129.447C97.6257 127.35 94.1788 125.93 91.1367 124.099Z" fill="#CE1649"/>
<path d="M103.512 143.267L112.122 144.985C113.327 146.747 114.533 148.501 115.926 150.139C117.619 152.128 119.527 153.929 121.425 155.743L116.793 159.366C115.922 158.144 114.337 156.981 113.229 155.923C112.068 154.814 111.008 153.614 109.955 152.414C108.464 150.717 107.012 148.938 105.808 147.046C105.048 145.851 104.425 144.535 103.599 143.387L103.512 143.267Z" fill="#EC0F53"/>
<path d="M92.6975 67.2765L119.803 85.5246L116.414 87.4834L91.207 70.706L92.6975 67.2765Z" fill="#EE1B6A"/>
<path d="M76.0994 106.417L76.4434 106.389L76.3858 106.494C75.9431 107.172 74.9526 107.893 74.3451 108.464L69.8498 112.736L64.8255 117.714C64.3405 118.197 63.5723 119.178 62.9695 119.491C62.5712 119.697 61.6547 119.772 61.1997 119.856L56.7778 120.704C56.4615 120.699 56.5035 120.758 56.2617 120.527C56.7961 117.177 58.5063 113.96 59.758 110.81L76.0994 106.417Z" fill="#F36617"/>
<path d="M42.0743 116.445C44.8218 117.063 47.4861 117.683 50.1754 118.514C51.7969 119.015 53.7093 119.534 54.8755 120.768L54.7286 120.998L36.3282 124.473L25.2227 126.271C25.8128 125.754 26.6186 125.395 27.2957 124.981L33.6175 121.329L42.0743 116.445Z" fill="#F5F011"/>
<path d="M190.001 32.9928L190.519 33.0398C190.84 32.9081 191.395 32.6926 191.603 32.412C191.951 31.9439 191.968 31.1582 192.283 30.637C192.688 29.9685 193.227 29.3463 193.654 28.6798C194.373 27.5569 194.915 26.1249 195.971 25.2473L195.676 30.5446C195.576 32.6428 195.842 34.7678 194.832 36.7014L195.391 36.3141C196.062 36.8356 196.857 36.3918 197.668 36.5033L198.378 36.7349L198.23 36.8495C198.693 36.8788 199.145 36.9001 199.598 36.9961C199.844 37.0481 199.912 37.0639 200.14 36.9784C200.145 37.1792 200.16 37.0777 200.088 37.2813C198.465 37.3668 196.051 37.5934 194.53 37.1015L194.201 38.1196L193.304 40.7302C190.644 41.4653 187.745 43.4966 185.698 45.1914L185.868 44.7651L186.04 44.5866C185.501 44.5598 184.917 44.5642 184.395 44.4289L184.155 44.362L186.144 40.4707C186.304 40.1445 186.58 39.3253 186.806 39.1153C187.17 38.777 188.157 38.5305 188.65 38.3564C188.243 38.3326 187.814 38.4369 187.414 38.3467C186.499 38.1409 182.375 33.7375 181.703 32.7706C181.254 32.5044 180.757 32.2599 180.375 31.9129L190.001 32.9928Z" fill="#F8DF05"/>
<path d="M181.695 32.7683L193.372 36.9393C191.676 37.266 190.269 37.9225 188.643 38.3541C188.236 38.3303 187.806 38.4346 187.406 38.3444C186.492 38.1386 182.368 33.7352 181.695 32.7683Z" fill="#E02624"/>
<mask id="mask0_2778_20204" style="mask-type:luminance" maskUnits="userSpaceOnUse" x="207" y="82" width="13" height="21">
<path d="M207.141 96.9411L216.88 82.6512L217.194 84.9287L219.465 95.9753C219.551 96.4586 219.998 98.0915 219.792 98.4418L219.628 98.5104L217.709 99.5003L217.712 99.6378L215.75 101.062C215.128 101.533 214.48 102.259 213.634 102.302L213.255 102.269C212.794 101.458 212.091 100.788 211.5 100.056L211.447 99.5719C211.317 99.2278 211.276 99.1923 211.238 98.8017C210.009 97.8519 208.699 97.2408 207.141 96.9411Z" fill="white"/>
</mask>
<g mask="url(#mask0_2778_20204)">
<path d="M207.141 96.9411L216.88 82.6512L217.194 84.9287L219.465 95.9753C219.551 96.4586 219.998 98.0915 219.792 98.4418L219.628 98.5104L217.709 99.5003L217.712 99.6378L215.75 101.062C215.128 101.533 214.48 102.259 213.634 102.302L213.255 102.269C212.794 101.458 212.091 100.788 211.5 100.056L211.447 99.5719C211.317 99.2278 211.276 99.1923 211.238 98.8017C210.009 97.8519 208.699 97.2408 207.141 96.9411Z" fill="url(#paint0_linear_2778_20204)"/>
</g>
<path d="M217.194 84.9258L219.465 95.9724C219.551 96.4557 219.998 98.0886 219.792 98.4388L219.628 98.5074L217.708 99.4973L217.712 99.6348L215.75 101.059C215.128 101.53 214.48 102.256 213.634 102.299L213.255 102.266C212.794 101.455 212.091 100.785 211.5 100.053L211.447 99.569C211.317 99.2248 211.276 99.1894 211.238 98.7988L213.643 100.817C213.906 98.3129 214.471 95.8351 214.931 93.3576C215.324 91.2439 215.622 88.9266 216.279 86.882C216.503 86.1876 216.996 85.6437 217.194 84.9258Z" fill="#E02624"/>
<path d="M43.0356 92.3759L49.0349 106.319L51.8905 112.979C52.698 114.85 53.5464 116.677 54.0378 118.65L53.7038 118.726L42.7812 115.599L43.0356 92.3759Z" fill="#F5F011"/>
<path d="M62.5471 120.491L63.2512 120.456L77.2538 133.978L74.3474 134.74C74.036 134.824 73.4562 135.036 73.1468 135.005C72.8073 134.97 72.2312 134.69 71.8943 134.575L58.0063 128.623C57.7093 127.914 57.6344 126.972 57.4793 126.213L56.4961 121.822C56.838 121.482 61.8045 120.634 62.5471 120.491Z" fill="#F0461D"/>
<path d="M55.4125 122.012L55.7145 122.19L56.809 126.978C56.9224 127.5 57.2344 128.469 57.1668 128.988C57.1098 129.425 56.7347 130.088 56.5582 130.501L54.4135 135.146C53.4644 137.157 52.658 139.446 51.466 141.323C51.1508 141.819 50.7152 141.854 50.1579 142.046L45.6914 143.369L45.9549 130.571C46.8191 129.51 48.282 128.638 49.3974 127.803C51.0888 126.537 52.7256 125.245 54.1494 123.705C54.6491 123.164 55.1828 122.715 55.4125 122.012Z" fill="#F36617"/>
<path d="M173.117 57.8088L182.06 61.082L182.134 61.1633C182.95 64.833 183.152 68.631 182.885 72.3663C182.782 73.814 182.507 75.2696 182.456 76.7148C181.535 76.2844 180.311 76.0758 179.312 75.8173L173.165 74.2196C173.46 72.9453 173.558 71.5454 173.673 70.244C174.049 66.0118 173.811 62.0105 173.117 57.8088Z" fill="#E2134E"/>
<path d="M178.455 163.011L170.621 161.34C172.815 154.814 173.569 147.695 172.72 140.896L181.098 143.027C181.213 144.738 181.389 146.479 181.381 148.193C181.357 153.122 180.299 158.411 178.455 163.011Z" fill="#B91745"/>
<path d="M181.1 143.028L188.924 144.988C189.443 151.796 189.751 158.441 188.105 165.165C186.998 164.805 185.732 164.624 184.586 164.378L178.457 163.012C180.3 158.412 181.359 153.123 181.383 148.194C181.391 146.48 181.214 144.739 181.1 143.028Z" fill="#CE1649"/>
<path d="M188.912 144.987L197.118 147.206C198.219 152.901 198.274 158.811 197.542 164.556C197.448 165.292 197.446 166.432 197.069 167.073L196.985 167.187L188.094 165.164C189.739 158.44 189.432 151.795 188.912 144.987Z" fill="#EE1B6A"/>
<path d="M59.0195 69.5807C62.1315 69.4725 65.2873 69.7528 68.392 69.958L83.6671 71.0711L88.272 71.3223C88.6045 71.3375 89.3941 71.2711 89.6452 71.3823C90.35 71.6944 91.1357 72.4209 91.7979 72.8591L99.3279 77.8869L112.471 86.4521C110.776 86.0911 109.12 85.4714 107.482 84.9297L99.1578 82.1838L79.1877 75.75L69.4936 72.8702L59.0195 69.5807Z" fill="#EC0F53"/>
<path d="M187.211 47.7515L192.61 45.9109C194.987 47.8619 197.574 49.9012 199.601 52.1759C202.957 55.9407 205.258 60.696 206.555 65.4353C206.945 66.8631 207.339 68.4022 207.468 69.8727L207.346 70.0107C205.263 69.5653 203.185 68.664 201.175 67.9695C199.096 67.251 196.907 66.6396 194.898 65.7689L194.861 65.5684C194.06 61.84 193.162 58.242 191.51 54.7475C190.349 52.2907 188.821 49.9659 187.211 47.7515Z" fill="#EC0F53"/>
<path d="M167.828 53.583C168.525 56.2564 169.191 58.9782 169.449 61.7265C170.346 71.3057 167.651 81.664 162.389 89.877C159.219 94.8241 154.828 100.147 149.065 102.51C147.393 101.795 146.039 101.491 144.215 101.322C153.098 97.2327 159.656 88.6453 162.804 79.9813C165.737 71.9066 165.993 63.171 164.171 54.8628L167.828 53.583Z" fill="#D098AC"/>
<path d="M165.962 137.612C165.421 134.532 164.773 131.472 163.711 128.51C160.712 120.141 155 112.286 147.357 107.108C145.055 105.548 142.729 104.358 140.051 103.493L142.158 102.55C142.35 102.463 142.738 102.231 142.931 102.198C143.73 102.063 145.24 102.437 145.999 102.697C148.169 103.441 150.248 104.725 152.108 105.992C158.121 110.087 162.739 115.328 165.845 121.676C170.328 130.838 172.062 141.491 170.053 151.454C169.516 150.728 169.643 148.839 169.517 147.916C169.388 146.972 169.164 146.01 168.944 145.08C168.447 142.974 167.753 141.121 166.84 139.151C166.59 138.611 166.278 138.119 165.962 137.612Z" fill="#D098AC"/>
<path d="M197.128 147.206L210.208 150.658C210.181 153.557 210.171 156.459 209.843 159.344C209.441 162.865 208.625 166.279 207.766 169.721C206.778 169.645 205.692 169.25 204.722 169.016L196.996 167.186L197.08 167.073C197.457 166.432 197.459 165.291 197.553 164.556C198.285 158.811 198.23 152.901 197.128 147.206Z" fill="#CE1649"/>
<path d="M127.688 201.473L134.52 198.993C136.832 200.55 139.046 202.235 141.471 203.636C146.843 206.742 153.063 209.021 159.036 210.873L163.721 212.172C164.023 212.266 164.229 212.401 164.399 212.657C158.274 214.749 151.996 216.222 145.509 216.867C144.366 216.98 143.035 217.198 141.892 217.144C141.622 216.206 139.554 215.38 138.673 214.875L134.962 212.52C134.276 212.076 133.458 211.656 132.926 211.054C132.984 210.882 133.02 210.717 133.035 210.535C133.113 209.598 132.775 208.719 132.359 207.882C131.204 205.562 129.403 203.448 127.688 201.473Z" fill="#CE1649"/>
<path d="M121.804 203.074L127.676 201.471C129.391 203.446 131.193 205.56 132.347 207.88C132.764 208.717 133.102 209.596 133.023 210.533C133.008 210.715 132.973 210.88 132.914 211.052L132.839 211.064C132.403 212.281 130.332 213.357 129.164 213.898C127.571 214.635 125.735 215.245 123.991 215.561L121.857 216.05C120.451 216.04 118.668 215.514 117.297 215.22C110.476 213.758 103.48 211.068 97.4374 207.718C95.2539 206.507 93.1918 205.107 91.1367 203.716L100.256 204.767C104.742 205.088 109.188 204.909 113.647 204.362L121.804 203.074Z" fill="#EE1B6A"/>
<path d="M121.812 203.074L127.684 201.47C129.399 203.445 131.201 205.559 132.356 207.879C132.772 208.716 133.11 209.596 133.031 210.533C133.016 210.714 132.981 210.879 132.922 211.052L132.847 211.063L121.812 203.074Z" fill="#E2134E"/>
<path d="M173.163 74.2204L179.309 75.8182C180.309 76.0766 181.533 76.2852 182.453 76.7157C180.896 86.2467 177.225 95.0565 170.696 102.569C169.416 104.041 167.873 105.438 166.434 106.777L154.785 103.936L155.231 103.651C165.067 97.0122 171.276 85.3108 173.163 74.2204Z" fill="#B91745"/>
<path d="M177.797 109.307C178.446 108.537 179.302 107.885 180.019 107.165C181.028 106.152 181.973 105.032 182.876 103.934C186.556 99.4593 189.407 94.3823 191.565 89.114C192.755 86.2107 193.799 83.2206 194.285 80.1346L202.717 82.533C204.166 82.981 205.699 83.4062 207.07 84.0306C206.29 88.0763 204.45 92.553 201.694 95.7719L191.502 95.7672L191.637 95.8602L197.55 100.633C196.407 102.391 195.312 104.229 193.933 105.834C191.792 108.327 189.199 110.045 186.287 111.644L177.797 109.307Z" fill="#B91745"/>
<path d="M145.661 193.452C147.835 194.652 150.507 195.435 152.893 196.172C160.285 198.455 167.912 200.173 175.601 201.29C176.849 201.47 178.166 201.594 179.429 201.64L183.197 201.653C183.652 201.653 184.093 201.575 184.485 201.828C178.417 206.228 171.716 210.35 164.395 212.658C164.225 212.402 164.019 212.267 163.717 212.173L159.032 210.874C153.059 209.022 146.839 206.743 141.467 203.638C139.042 202.236 136.828 200.551 134.516 198.995L145.661 193.452Z" fill="#B91745"/>
<path d="M188.663 143.631L172.616 139.467L172.398 137.053C172.021 134.526 171.314 132.067 170.595 129.613C168.192 121.41 163.915 113.97 157.245 108.153C155.732 106.835 154.057 105.696 152.418 104.524L172.275 109.721C172.959 111.157 174.296 112.515 175.289 113.792L178.387 118.101C183.604 125.836 186.772 134.695 188.663 143.631Z" fill="#5EC9D0"/>
<mask id="mask1_2778_20204" style="mask-type:luminance" maskUnits="userSpaceOnUse" x="71" y="137" width="100" height="64">
<path d="M165.974 137.61C166.289 138.118 166.601 138.61 166.851 139.15C167.765 141.12 168.458 142.973 168.956 145.079C169.176 146.008 169.399 146.97 169.528 147.914C169.655 148.837 169.528 150.727 170.064 151.453C169.77 153.312 169.24 155.168 168.707 156.979C165.288 168.598 157.176 179.742 146.85 186.923C132.415 196.961 113.316 202.191 95.4274 199.685C95.0441 199.631 92.1488 199.25 92.0081 199.071C90.3528 198.935 88.573 198.392 86.982 197.943C82.5975 196.705 78.423 195.076 74.4515 192.926C73.3229 192.315 72.1367 191.714 71.0859 190.99L71.2363 190.783C71.1955 190.524 71.14 190.334 71.224 190.08C71.3668 189.652 71.3538 189.269 71.2278 188.838C71.1673 188.631 71.1162 188.531 71.1685 188.311C71.209 188.142 71.949 187.769 72.1473 187.64C77.8367 190.91 83.6885 193.428 90.1604 195.004C96.4097 196.19 102.354 196.785 108.741 196.435C125.091 195.539 141.443 188.47 152.318 176.854C159.921 168.732 165.37 158.581 166.23 147.648C166.492 144.317 166.203 140.937 165.974 137.61Z" fill="white"/>
</mask>
<g mask="url(#mask1_2778_20204)">
<path d="M165.974 137.61C166.289 138.118 166.601 138.61 166.851 139.15C167.765 141.12 168.458 142.973 168.956 145.079C169.176 146.008 169.399 146.97 169.528 147.914C169.655 148.837 169.528 150.727 170.064 151.453C169.77 153.312 169.24 155.168 168.707 156.979C165.288 168.598 157.176 179.742 146.85 186.923C132.415 196.961 113.316 202.191 95.4274 199.685C95.0441 199.631 92.1488 199.25 92.0081 199.071C90.3528 198.935 88.573 198.392 86.982 197.943C82.5975 196.705 78.423 195.076 74.4515 192.926C73.3229 192.315 72.1367 191.714 71.0859 190.99L71.2363 190.783C71.1955 190.524 71.14 190.334 71.224 190.08C71.3668 189.652 71.3538 189.269 71.2278 188.838C71.1673 188.631 71.1162 188.531 71.1685 188.311C71.209 188.142 71.949 187.769 72.1473 187.64C77.8367 190.91 83.6885 193.428 90.1604 195.004C96.4097 196.19 102.354 196.785 108.741 196.435C125.091 195.539 141.443 188.47 152.318 176.854C159.921 168.732 165.37 158.581 166.23 147.648C166.492 144.317 166.203 140.937 165.974 137.61Z" fill="url(#paint1_linear_2778_20204)"/>
</g>
<path d="M115.292 160.145C113.46 161.124 111.375 161.686 109.314 162.047C102.974 163.159 96.484 161.536 91.2241 158.118C84.3218 153.633 80.2557 145.457 78.7461 137.879L97.2011 141.946C99.2567 142.37 101.529 142.629 103.504 143.267L103.591 143.387C104.416 144.534 105.04 145.85 105.8 147.045C107.004 148.938 108.455 150.716 109.946 152.414C111 153.613 112.06 154.813 113.221 155.922C114.329 156.98 115.914 158.143 116.785 159.365L115.292 160.145Z" fill="#E2134E"/>
<path d="M97.2032 141.945C99.2589 142.369 101.531 142.627 103.506 143.265L103.593 143.385C104.419 144.533 105.042 145.849 105.802 147.044C107.006 148.936 108.457 150.715 109.949 152.412C111.002 153.612 112.062 154.812 113.223 155.921C114.331 156.979 115.916 158.142 116.787 159.364L115.294 160.144L114.931 160.02C113.576 159.481 112.355 158.639 111.167 157.833C106.839 154.897 103.361 151.272 100.278 147.201C99.0773 145.616 97.8125 143.935 97.0234 142.127L97.2032 141.945Z" fill="#EE1B6A"/>
<path d="M63.5692 63.1699L60.4102 62.9796C61.1865 60.5413 61.9991 58.1264 63.0833 55.7897C65.6251 50.3101 69.1487 45.4632 73.2718 40.9442C83.2714 29.985 97.3671 23.8713 112.58 22.7879C111.864 23.7211 110.715 24.5054 109.796 25.2645L103.081 30.6866L83.3754 46.657L69.8966 57.6264C68.1126 59.1046 66.1888 60.4899 64.4836 62.0417C64.1038 62.3875 63.7768 62.7043 63.5692 63.1699Z" fill="#F8DF05"/>
<path d="M168.252 45.1742L165.446 40.6198C161.689 35.0027 157.351 29.8742 151.652 25.8994L172.786 32.9534L178.841 34.78C179.925 35.094 181.164 35.348 182.182 35.8161C183.508 36.4264 184.741 37.8675 185.773 38.8566C184.245 41.2199 183.054 43.6739 181.816 46.1749C181.208 47.4005 180.488 48.6267 180.033 49.909L187.217 47.7544C188.827 49.9688 190.355 52.2936 191.517 54.7504C193.169 58.2449 194.066 61.8429 194.867 65.5712C194.443 65.6938 193.944 65.4265 193.527 65.2838L189.785 63.9129L189.741 63.8175L187.295 63.1994L187.18 63.0116L182.126 61.1637L182.052 61.0824L173.109 57.8092C172.463 55.1582 171.741 52.5985 170.608 50.0892C169.903 48.5279 168.998 47.0005 168.354 45.429L168.252 45.1742Z" fill="#F03387"/>
<path d="M187.187 63.0115C186.467 60.1892 185.645 57.4406 184.34 54.8015C183.622 53.3482 182.755 52.0686 181.906 50.6916C181.717 50.3851 181.526 50.236 181.704 49.8957C182.074 49.7914 182.265 49.7524 182.644 49.8395C183.717 51.1094 184.557 52.6264 185.366 54.0586C187.14 57.1954 188.592 60.4366 189.748 63.8174L187.302 63.1993L187.187 63.0115Z" fill="#EC0F53"/>
<path d="M168.249 45.1739L168.224 44.9841C168.195 44.7901 168.154 44.6286 168.09 44.4438C168.244 44.4446 168.405 44.4061 168.553 44.4457C168.893 44.5362 169.446 45.0178 169.737 45.2237C171.51 46.4784 173.258 47.8025 174.821 49.2848C178.168 52.4582 180.857 56.7326 182.049 61.082L173.107 57.8088C172.46 55.1578 171.739 52.5981 170.605 50.0888C169.9 48.5276 168.995 47.0001 168.351 45.4287L168.249 45.1739Z" fill="#EE1B6A"/>
<path d="M112.577 22.7883C117.568 22.6273 122.276 22.7117 127.214 23.4824C126.29 24.6345 124.976 25.5591 123.831 26.5127L116.883 32.2062L85.3572 57.5004L79.7404 62.0446C79.006 62.6483 77.8945 63.3671 77.3657 64.1221L63.5664 63.1704C63.7741 62.7047 64.101 62.388 64.4809 62.0421C66.1861 60.4903 68.1099 59.1051 69.8938 57.6269L83.3726 46.6574L103.078 30.687L109.793 25.265C110.712 24.5058 111.861 23.7215 112.577 22.7883Z" fill="#FBF0B4"/>
<path d="M172.285 109.72L177.524 111.059L191.044 114.125C192.053 114.363 193.53 114.476 194.426 114.947C194.945 115.219 195.366 115.765 195.756 116.18L198.067 118.679L197.9 118.803C197.311 119.25 196.384 119.947 196.189 120.652C196.865 120.062 197.528 119.437 198.287 118.942C205.409 127.407 209.335 138.509 210.147 149.205L197.224 145.812L188.673 143.63C186.782 134.695 183.614 125.835 178.398 118.101L175.299 113.792C174.306 112.514 172.969 111.157 172.285 109.72Z" fill="#5EC9D0"/>
<path d="M172.285 109.72L177.524 111.059L177.653 111.26C178.204 112.081 179.331 112.798 180.061 113.507C181.231 114.646 182.359 115.955 183.372 117.222C189.936 125.423 195.139 135.698 197.224 145.812L188.673 143.63C186.782 134.695 183.614 125.835 178.398 118.101L175.299 113.792C174.306 112.514 172.969 111.157 172.285 109.72Z" fill="#82D5DD"/>
<path d="M92.6914 67.2782C95.3625 61.9972 99.4703 57.3333 105.48 55.2937C109.921 53.7864 114.46 53.8811 118.735 55.8058C122.377 57.4453 125.274 60.8165 126.617 64.3652C127.067 65.554 127.358 66.7794 127.517 68.031C128.169 73.1692 126.566 78.3182 123.193 82.3835C122.237 83.5352 121.073 84.6881 119.797 85.5264L92.6914 67.2782Z" fill="#B91745"/>
<path d="M182.119 61.1652L187.173 63.013L187.287 63.2009L189.733 63.8189L189.777 63.9144L193.519 65.2852C193.936 65.428 194.436 65.6953 194.86 65.5727L194.897 65.7733C196.906 66.6439 199.095 67.2554 201.174 67.9739C203.184 68.6683 205.262 69.5697 207.345 70.0151L207.467 69.877C208.309 74.393 207.998 79.568 207.065 84.0356C205.694 83.4111 204.161 82.9859 202.712 82.538L194.28 80.1396C193.795 83.2255 192.75 86.2157 191.561 89.119C189.402 94.3872 186.551 99.4642 182.871 103.939C181.968 105.037 181.023 106.157 180.014 107.17C179.298 107.89 178.441 108.542 177.792 109.312C177.232 109.069 176.424 108.963 175.819 108.823L171.507 107.847C170.947 107.792 170.335 107.602 169.781 107.484L166.422 106.778C167.86 105.439 169.404 104.042 170.683 102.57C177.212 95.0575 180.884 86.2478 182.441 76.7167C182.492 75.2714 182.767 73.8159 182.87 72.3681C183.137 68.6329 182.935 64.8348 182.119 61.1652Z" fill="#E2134E"/>
<path d="M189.785 63.9122L193.527 65.2831C193.944 65.4258 194.444 65.6931 194.868 65.5705L194.905 65.7711C195.249 68.7469 195.279 71.7592 194.995 74.74L194.288 80.1025C193.837 80.079 193.342 79.8483 192.911 79.7086L190.55 79.0128L190.412 78.8415C191.396 74.0151 190.709 68.7018 189.785 63.9122Z" fill="#EE1B6A"/>
<path d="M187.623 78.282C188.5 78.4071 189.569 78.6674 190.329 79.0971C189.748 81.4531 189.128 83.8413 188.238 86.1149C185.843 92.2344 182.112 98.1074 177.38 102.865C175.513 104.742 173.758 106.365 171.515 107.846C170.955 107.791 170.343 107.6 169.789 107.483C171.344 105.644 173.435 104.114 175.078 102.306C181.381 95.3665 185.614 87.2005 187.623 78.282Z" fill="#B91745"/>
<path d="M182.125 61.1631L187.179 63.0109L187.294 63.1988L189.74 63.8168L189.783 63.9123C190.708 68.7019 191.395 74.0152 190.41 78.8416L190.327 79.0967C189.568 78.667 188.498 78.4067 187.622 78.2816L187.6 78.1654C185.926 77.9103 184.077 77.1885 182.447 76.7146C182.498 75.2693 182.773 73.8138 182.876 72.366C183.143 68.6308 182.941 64.8327 182.125 61.1631Z" fill="#EE1B6A"/>
<path d="M187.293 63.1988L189.739 63.8168L189.783 63.9123C190.707 68.7019 191.394 74.0152 190.41 78.8416L190.327 79.0967C189.567 78.667 188.497 78.4067 187.621 78.2816L187.6 78.1654C187.851 77.352 187.892 76.3356 187.982 75.4837C188.421 71.3709 187.969 67.2649 187.293 63.1988Z" fill="#CE1649"/>
<path d="M182.441 76.7147C184.071 77.1886 185.92 77.9104 187.594 78.1655L187.615 78.2817C185.606 87.2002 181.373 95.3662 175.07 102.305C173.428 104.113 171.337 105.644 169.781 107.482L166.422 106.776C167.86 105.437 169.404 104.04 170.683 102.568C177.212 95.0555 180.884 86.2457 182.441 76.7147Z" fill="#EC0F53"/>
<path d="M162.739 130.157C166.385 141.759 165.198 154.827 159.042 165.494C151.481 178.595 138.299 188.392 123.126 192.596C107.977 196.793 91.1573 196.044 77.111 188.89L75.9219 188.238C78.0507 188.16 80.2018 188.357 82.3345 188.388C85.6395 188.435 88.9762 188.245 92.2498 187.804C99.5014 186.828 106.574 184.603 113.247 181.801C130.914 174.382 145.94 162.927 155.436 146.877C157.484 143.417 159.273 139.665 160.621 135.912L161.611 132.824C161.826 132.045 162.008 131.004 162.546 130.373L162.739 130.157Z" fill="#F0461D"/>
<path d="M145.445 167.283C145.53 167.309 145.639 167.298 145.7 167.359C145.741 167.399 145.846 167.983 145.869 168.078C146.046 168.821 146.175 169.734 146.563 170.398C147.046 171.222 148.237 171.841 149.039 172.41C148.288 172.957 147.445 173.258 146.678 173.756C145.879 174.274 145.412 175.004 145.242 175.891C145.123 176.518 145.092 177.047 144.545 177.446C144.149 177.239 143.837 176.785 143.55 176.454C143.088 175.975 142.65 175.505 142.016 175.228C141.33 174.928 139.804 175.015 139.012 174.974C139.514 174.1 140.465 173.125 140.693 172.164C140.897 171.306 140.384 169.83 140.191 168.945C141.159 168.918 142.61 169.026 143.511 168.666C144.264 168.366 144.867 167.812 145.445 167.283Z" fill="#E02624"/>
<path d="M145.652 193.452C149.333 191.128 152.98 188.552 156.176 185.651C162.881 179.565 167.67 172.295 171.343 164.285L206.754 172.311C205.302 176.302 203.474 180.392 201.188 184.029C198.213 188.764 194.332 193.197 190.193 197.066C188.459 198.687 186.499 200.537 184.476 201.828C184.084 201.575 183.643 201.652 183.188 201.652L179.419 201.639C178.157 201.594 176.84 201.47 175.592 201.289C167.903 200.173 160.276 198.455 152.884 196.171C150.498 195.434 147.826 194.651 145.652 193.452Z" fill="#831439"/>
<path d="M127.212 23.4825C139.216 25.6709 149.543 31.9227 156.381 41.4773C159.465 45.7866 161.449 50.3551 162.828 55.3771C159.525 56.8625 156.017 58.0856 152.616 59.3649L137.768 64.878C136.724 65.249 135.336 66.0488 134.273 66.1484C133.852 64.1678 133.341 62.305 132.471 60.4494C130.079 55.3516 125.49 51.2064 119.955 49.2142C113.742 46.9773 106.807 47.3517 100.778 49.9365C94.1013 52.7992 88.8499 58.3247 86.2831 64.7482L77.3633 64.1221C77.892 63.3671 79.0036 62.6484 79.738 62.0447L85.3548 57.5005L116.881 32.2063L123.829 26.5128C124.973 25.5592 126.288 24.6345 127.212 23.4825Z" fill="#F8DF05"/>
<path d="M148.417 45.1356C148.947 45.4945 149.371 46.9671 149.695 47.5564C150.089 48.2702 150.592 48.963 151.187 49.5412C152.429 50.7472 154.246 51.3315 155.736 52.219L151.885 54.1952C150.997 54.6838 150.293 55.1033 149.875 56.0257L148.636 58.6833C148.513 58.9774 148.443 59.1663 148.189 59.3838C147.663 58.1158 146.81 56.9649 145.984 55.8563C144.575 53.9651 142.822 52.8695 140.715 51.7863C141.866 51.2222 143.167 50.8335 144.255 50.1734C145.332 49.5207 146.12 48.5773 146.798 47.5722C147.344 46.7632 147.785 45.8887 148.417 45.1356Z" fill="#F36617"/>
<path d="M127.834 147.309C129.06 142.563 128.356 137.987 125.831 133.752C122.112 127.516 114.922 124.341 107.66 123.281C103.218 122.633 98.7474 122.704 94.2698 122.714L90.7295 122.692C90.412 122.687 89.7798 122.753 89.4955 122.617C89.2878 122.518 89.0801 122.206 88.9782 122.017C88.799 121.683 88.752 121.326 88.8245 120.96C89.0642 119.751 89.5707 118.542 89.9158 117.351L92.546 108.423C94.1003 103.254 95.3922 97.9127 97.2766 92.8432C103.689 92.421 110.712 92.4517 116.618 89.7753C121.868 87.396 126.318 82.7649 128.196 77.5548C129.977 72.6159 130.182 66.8212 127.702 62.0599C125.571 57.97 121.738 54.7168 117.161 53.2474C112.503 51.7518 106.842 52.0697 102.42 54.1286C98.4763 55.9642 94.58 59.5752 92.3716 63.1383C91.0532 65.2653 90.1097 67.6797 89.2754 70.0078L81.1856 69.4611L67.0721 68.632L59.4549 68.1251C57.7781 68.0103 55.9748 67.9752 54.3463 67.5704C54.385 66.2012 54.8298 64.6663 55.1949 63.3419C55.9504 60.5997 56.8657 57.9296 57.9823 55.2978C64.0576 40.9767 76.3831 28.9505 91.4345 22.8634C105.853 17.0325 122.999 15.9172 137.725 21.4823C150.942 26.4768 159.804 34.5783 165.371 46.9149L167.836 53.5838L164.178 54.8637C163.334 51.5169 162.095 48.2518 160.432 45.1858C154.928 35.0365 145.391 27.2305 133.826 23.7733C119.366 19.4508 102.314 20.95 88.908 27.5799C75.0956 34.4104 64.2162 46.8571 59.6326 60.8758C59.2936 61.9122 58.9296 63.0003 58.7995 64.0804L87.349 66.0883C89.0681 60.2024 93.7163 55.1417 99.3038 52.122C104.601 49.2591 110.986 48.1718 116.947 49.694C122.696 51.1622 127.305 54.3978 130.268 59.2936C133.462 64.5709 133.996 71.2456 132.243 77.0516C130.294 83.5103 125.655 89.0416 119.413 92.2766C113.455 95.3644 106.655 95.8599 100.016 96.4135L93.1006 119.069C104.584 119.145 116.754 119.25 125.409 127.54C129.86 131.802 132.421 137.275 132.352 143.28L131.831 148.008C130.647 153.882 126.406 159.399 121.219 162.739C118.888 164.241 116.342 165.383 113.641 166.163C112.678 166.441 111.595 166.762 110.588 166.836L110.353 166.884C102.535 168.431 94.0788 166.219 87.5356 162.103C82.7272 159.078 78.8459 154.666 76.4964 149.695C75.2941 147.151 74.5013 144.478 73.722 141.8L47.1141 149.655C49.1166 163.729 56.4962 176.549 68.5117 185.242L72.1384 187.641C71.9401 187.77 71.2001 188.143 71.1596 188.313C71.1073 188.532 71.1584 188.632 71.2189 188.839C71.345 189.27 71.3579 189.653 71.2151 190.082C71.1311 190.335 71.1866 190.525 71.2275 190.784L71.0771 190.991C69.4274 190.15 67.8135 188.974 66.3368 187.878C55.0195 179.479 47.5777 168.048 44.3012 154.843C43.6911 152.383 43.3644 149.902 43.0469 147.398L77.0925 137.136C78.7451 145.65 82.6091 153.809 90.1549 159.089C95.5778 162.885 102.563 164.39 109.224 163.486C111.859 162.832 114.314 162.241 116.715 160.972C122.486 157.922 126.095 153.255 127.834 147.309Z" fill="#FEFDFD"/>
<mask id="mask2_2778_20204" style="mask-type:luminance" maskUnits="userSpaceOnUse" x="48" y="55" width="116" height="134">
<path d="M134.261 66.1511C135.325 66.0515 136.713 65.2516 137.756 64.8806L152.604 59.3676C156.005 58.0883 159.514 56.8652 162.816 55.3798C165.247 66.8898 163.558 79.1481 156.504 89.0238C153.692 92.9609 149.469 97.468 144.913 99.6442C141.947 101.061 138.888 102.173 136.297 104.215C137.849 104.392 139.38 104.639 140.855 105.145C145.895 106.874 151.115 111.322 154.373 115.216C158.14 119.716 160.81 124.741 162.736 130.161L162.543 130.376C162.006 131.008 161.824 132.049 161.609 132.828L160.618 135.915C159.27 139.668 157.481 143.42 155.434 146.88C145.937 162.93 130.912 174.385 113.245 181.804C106.572 184.606 99.4991 186.831 92.2476 187.807C88.9741 188.247 85.6374 188.438 82.3324 188.39C80.1998 188.36 78.0487 188.163 75.9199 188.241L71.6499 185.694C62.2908 179.637 55.1914 170.907 51.4153 160.816C50.1836 157.525 49.3978 154.141 48.7266 150.716L72.7353 143.458C74.0628 149.249 77.0857 154.731 81.4209 159.018C87.2327 164.765 95.7459 168.584 104.218 168.746C111.758 168.891 119.606 166.46 125.128 161.496C130.3 156.846 133.581 150.822 133.729 144.028C133.866 137.696 131.764 131.923 127.065 127.313C122.027 122.372 115.495 119.547 108.349 118.542C103.919 117.918 99.4128 117.928 94.9454 117.843L101.015 97.5117L109.246 96.6004C117.227 95.4998 124.153 92.2922 129.008 86.0806C133.451 80.3975 135.416 73.1307 134.261 66.1511Z" fill="white"/>
</mask>
<g mask="url(#mask2_2778_20204)">
<path d="M134.261 66.1511C135.325 66.0515 136.713 65.2516 137.756 64.8806L152.604 59.3676C156.005 58.0883 159.514 56.8652 162.816 55.3798C165.247 66.8898 163.558 79.1481 156.504 89.0238C153.692 92.9609 149.469 97.468 144.913 99.6442C141.947 101.061 138.888 102.173 136.297 104.215C137.849 104.392 139.38 104.639 140.855 105.145C145.895 106.874 151.115 111.322 154.373 115.216C158.14 119.716 160.81 124.741 162.736 130.161L162.543 130.376C162.006 131.008 161.824 132.049 161.609 132.828L160.618 135.915C159.27 139.668 157.481 143.42 155.434 146.88C145.937 162.93 130.912 174.385 113.245 181.804C106.572 184.606 99.4991 186.831 92.2476 187.807C88.9741 188.247 85.6374 188.438 82.3324 188.39C80.1998 188.36 78.0487 188.163 75.9199 188.241L71.6499 185.694C62.2908 179.637 55.1914 170.907 51.4153 160.816C50.1836 157.525 49.3978 154.141 48.7266 150.716L72.7353 143.458C74.0628 149.249 77.0857 154.731 81.4209 159.018C87.2327 164.765 95.7459 168.584 104.218 168.746C111.758 168.891 119.606 166.46 125.128 161.496C130.3 156.846 133.581 150.822 133.729 144.028C133.866 137.696 131.764 131.923 127.065 127.313C122.027 122.372 115.495 119.547 108.349 118.542C103.919 117.918 99.4128 117.928 94.9454 117.843L101.015 97.5117L109.246 96.6004C117.227 95.4998 124.153 92.2922 129.008 86.0806C133.451 80.3975 135.416 73.1307 134.261 66.1511Z" fill="url(#paint2_linear_2778_20204)"/>
</g>
<path d="M143.412 141.139C143.593 141.263 143.72 141.371 143.869 141.532L144.011 141.692L144.548 141.614L144.68 141.761C144.51 142.016 144.418 142.234 144.329 142.522C144.57 142.731 144.678 142.824 144.821 143.108C144.599 143.061 144.408 143.043 144.18 143.043L143.934 143.629L143.761 143.602C143.626 143.465 143.52 143.344 143.417 143.182C143.223 142.876 142.953 143.16 142.637 142.937C142.874 142.786 142.97 142.698 143.093 142.453C142.897 142.26 142.792 142.142 142.657 141.9C142.896 141.77 142.799 141.785 143.058 141.779L143.232 141.78L143.412 141.139Z" fill="#E02624"/>
<path d="M147.489 133.807L147.641 133.873C148.071 134.655 148.475 134.86 149.332 135.175L149.539 135.249L148.751 136.052C148.561 136.339 148.671 136.728 148.723 137.043C148.762 137.283 148.781 137.148 148.605 137.413L147.829 136.97C147.207 136.783 147.097 136.843 146.523 137.046C146.414 137.027 146.269 137.067 146.197 136.988C146.155 136.943 146.172 136.154 146.127 136.007C146.054 135.764 145.828 135.551 145.656 135.366L145.555 135.259L145.58 135.051L146.302 134.832C146.847 134.666 147.03 134.391 147.36 133.974L147.489 133.807Z" fill="#F0461D"/>
<path d="M153.271 71.2809C153.645 71.65 153.879 72.3367 154.137 72.8026C154.595 73.0109 155.191 73.004 155.696 73.0463L155.762 73.2176L155.339 73.7001C154.79 74.4155 154.933 74.7957 155.104 75.6384L154.899 75.7922C154.478 75.5963 154.123 75.4245 153.65 75.3664L153.283 75.6763L152.765 76.1621L152.537 76.1347L152.38 75.18C152.135 74.9426 151.989 74.8051 151.641 74.7171C151.297 74.6299 151.358 74.6366 151.151 74.3934C151.302 74.1488 151.382 74.0014 151.419 73.7134C151.459 73.3949 151.247 73.2544 151.055 73.0084C151.236 72.7439 152.147 72.9193 152.549 72.6756C152.731 72.1535 152.856 71.6846 153.271 71.2809Z" fill="#F0461D"/>
<path d="M68.1772 158.52L69.3854 160.189C69.5003 160.339 69.7209 160.712 69.8593 160.792C70.2946 161.041 71.8521 161.113 72.4175 161.198L70.732 162.824L71.2452 165.501L68.748 164.342L66.1982 165.739C66.341 164.919 66.4212 164.174 66.3942 163.342C66.0384 162.6 65.0359 162.065 64.3711 161.532L67.0246 161.013L68.1772 158.52Z" fill="#F0461D"/>
<path d="M110.089 172.401L110.468 172.28C110.885 172.79 110.341 173.779 110.479 174.386C110.702 175.364 112.409 176.096 112.796 177.105C111.169 177.618 110.267 177.805 109.649 179.465C109.48 179.921 109.37 180.384 109.071 180.783C108.457 180.544 108.088 179.617 107.79 179.069L107.724 178.959C106.969 177.83 105.493 177.947 104.219 177.654L105.901 175.497C105.915 174.455 105.826 173.528 105.615 172.505L107.57 173.687C108.382 173.485 109.348 172.801 110.089 172.401Z" fill="#F0461D"/>
<path d="M140.52 82.8966C141.524 84.7005 141.853 86.0617 144.091 86.8139C144.554 86.9697 145.284 87.0397 145.66 87.31C145.254 87.9233 144.182 89.2062 144.129 89.9222C144.068 90.765 144.367 91.8976 144.432 92.7685L141.964 91.8771C141.228 92.4891 140.511 93.0859 139.882 93.7986L139.752 93.9482L138.725 91.6295C138.095 92.0462 137.421 92.3649 136.739 92.6969C136.315 91.5327 136.138 90.2238 135.564 89.1241C135.25 88.5226 134.726 87.9233 134.328 87.3565L137.494 86.4512C139.191 85.9156 139.782 84.2935 140.52 82.8966Z" fill="#F0461D"/>
<path d="M81.004 170.446C82.0533 171.274 82.8317 172.377 83.8199 173.285C85.0172 173.378 86.3647 173.083 87.5685 172.964C87.0846 174.157 86.7897 175.156 86.6807 176.437C87.0006 177.068 88.1583 177.703 88.767 178.129C88.3607 178.611 86.9005 179.13 86.2739 179.439L85.8861 183.371C85.5213 183.342 84.8495 182.756 84.5267 182.539L82.6878 180.944C81.8764 181.201 81.0712 181.815 80.3665 182.279C79.9065 181.031 79.7326 179.721 79.5308 178.42C78.5185 177.449 77.1652 176.777 75.9961 175.98C77.3315 175.225 78.8458 174.747 80.3145 174.275L81.004 170.446Z" fill="#F04333"/>
<path d="M136.478 117.81L136.551 117.704C137.559 116.266 139.004 114.95 140.215 113.652C140.896 114.348 141.448 115.09 141.968 115.899L143.505 118.385C143.622 118.561 143.937 119.08 144.122 119.184C144.393 119.336 144.951 119.428 145.273 119.515C146.362 119.809 147.448 120.04 148.565 120.217C148.015 121.085 146.008 123.767 146.264 124.708L147.525 128.375L143.614 128.008L139.803 131.337L136.894 127.64C135.448 127.639 133.948 127.716 132.524 127.456L133.946 124.203C134.103 123.847 134.463 123.214 134.462 122.837C134.462 122.656 134.224 122.219 134.136 122.027C133.566 120.775 132.514 119.643 132.059 118.361L132.17 118.162L136.478 117.81Z" fill="#F0461D"/>
<path d="M132.059 118.361L132.17 118.163L136.478 117.811C136.062 118.613 135.522 119.863 134.562 120.176C134.308 120.259 134.152 120.271 133.89 120.249C133.15 119.741 132.824 118.777 132.059 118.361Z" fill="#F36617"/>
<defs>
<filter id="filter0_f_2778_20204" x="0.29298" y="189.205" width="257.988" height="62.1611" filterUnits="userSpaceOnUse" color-interpolation-filters="sRGB">
<feFlood flood-opacity="0" result="BackgroundImageFix"/>
<feBlend mode="normal" in="SourceGraphic" in2="BackgroundImageFix" result="shape"/>
<feGaussianBlur stdDeviation="9.99999" result="effect1_foregroundBlur_2778_20204"/>
</filter>
<linearGradient id="paint0_linear_2778_20204" x1="217.058" y1="97.4007" x2="210.934" y2="87.0001" gradientUnits="userSpaceOnUse">
<stop stop-color="#FBC607"/>
<stop offset="1" stop-color="#F8ED09"/>
</linearGradient>
<linearGradient id="paint1_linear_2778_20204" x1="156.864" y1="181.92" x2="91.3543" y2="148.525" gradientUnits="userSpaceOnUse">
<stop stop-color="#C35599"/>
<stop offset="1" stop-color="#F4D3CF"/>
</linearGradient>
<linearGradient id="paint2_linear_2778_20204" x1="157.087" y1="143.976" x2="85.2384" y2="96.3765" gradientUnits="userSpaceOnUse">
<stop stop-color="#F68512"/>
<stop offset="1" stop-color="#F9D606"/>
</linearGradient>
</defs>
</svg>
