<svg width="94" height="94" viewBox="0 0 94 94" fill="none" xmlns="http://www.w3.org/2000/svg">
<rect x="3.5" y="3.5" width="87" height="87" rx="43.5" fill="#22C55E"/>
<rect x="3.5" y="3.5" width="87" height="87" rx="43.5" stroke="#DCFCE7" stroke-width="7"/>
<rect x="17" y="17" width="60" height="60" rx="30" fill="#22C55E"/>
<path d="M40.8735 54.875L62.061 33.6875C62.561 33.1875 63.1443 32.9375 63.811 32.9375C64.4777 32.9375 65.061 33.1875 65.561 33.6875C66.061 34.1875 66.311 34.7817 66.311 35.47C66.311 36.1583 66.061 36.7517 65.561 37.25L42.6235 60.25C42.1235 60.75 41.5402 61 40.8735 61C40.2068 61 39.6235 60.75 39.1235 60.25L28.3735 49.5C27.8735 49 27.6335 48.4067 27.6535 47.72C27.6735 47.0333 27.9343 46.4392 28.436 45.9375C28.9377 45.4358 29.5318 45.1858 30.2185 45.1875C30.9052 45.1892 31.4985 45.4392 31.9985 45.9375L40.8735 54.875Z" fill="white"/>
</svg>
