<svg width="45" height="46" viewBox="0 0 40 41" fill="none" xmlns="http://www.w3.org/2000/svg">
<path d="M11.668 35.5C10.7513 35.5 9.96686 35.1739 9.31464 34.5217C8.66242 33.8694 8.33575 33.0844 8.33464 32.1667V10.5C7.86242 10.5 7.46686 10.34 7.14797 10.02C6.82909 9.7 6.66909 9.30444 6.66797 8.83333C6.66686 8.36222 6.82686 7.96667 7.14797 7.64667C7.46909 7.32667 7.86464 7.16667 8.33464 7.16667H15.0013C15.0013 6.69444 15.1613 6.29889 15.4813 5.98C15.8013 5.66111 16.1969 5.50111 16.668 5.5H23.3346C23.8069 5.5 24.203 5.66 24.523 5.98C24.843 6.3 25.0024 6.69556 25.0013 7.16667H31.668C32.1402 7.16667 32.5363 7.32667 32.8563 7.64667C33.1763 7.96667 33.3358 8.36222 33.3346 8.83333C33.3335 9.30444 33.1735 9.70056 32.8546 10.0217C32.5358 10.3428 32.1402 10.5022 31.668 10.5V32.1667C31.668 33.0833 31.3419 33.8683 30.6896 34.5217C30.0374 35.175 29.2524 35.5011 28.3346 35.5H11.668ZM16.668 28.8333C17.1402 28.8333 17.5363 28.6733 17.8563 28.3533C18.1763 28.0333 18.3358 27.6378 18.3346 27.1667V15.5C18.3346 15.0278 18.1746 14.6322 17.8546 14.3133C17.5346 13.9944 17.1391 13.8344 16.668 13.8333C16.1969 13.8322 15.8013 13.9922 15.4813 14.3133C15.1613 14.6344 15.0013 15.03 15.0013 15.5V27.1667C15.0013 27.6389 15.1613 28.035 15.4813 28.355C15.8013 28.675 16.1969 28.8344 16.668 28.8333ZM23.3346 28.8333C23.8069 28.8333 24.203 28.6733 24.523 28.3533C24.843 28.0333 25.0024 27.6378 25.0013 27.1667V15.5C25.0013 15.0278 24.8413 14.6322 24.5213 14.3133C24.2013 13.9944 23.8058 13.8344 23.3346 13.8333C22.8635 13.8322 22.468 13.9922 22.148 14.3133C21.828 14.6344 21.668 15.03 21.668 15.5V27.1667C21.668 27.6389 21.828 28.035 22.148 28.355C22.468 28.675 22.8635 28.8344 23.3346 28.8333Z" fill="#EF4444"/>
</svg>
