<svg width="25" height="26" viewBox="0 0 30 31" fill="none" xmlns="http://www.w3.org/2000/svg">
<path d="M1.66667 30.5C1.19444 30.5 0.798889 30.34 0.48 30.02C0.161111 29.7 0.00111111 29.3044 0 28.8333V24.7917C0 24.3472 0.0833335 23.9233 0.25 23.52C0.416667 23.1167 0.652778 22.7628 0.958333 22.4583L22 1.45833C22.3333 1.15278 22.7017 0.916667 23.105 0.75C23.5083 0.583333 23.9317 0.5 24.375 0.5C24.8183 0.5 25.2489 0.583333 25.6667 0.75C26.0844 0.916667 26.4456 1.16667 26.75 1.5L29.0417 3.83333C29.375 4.13889 29.6178 4.5 29.77 4.91667C29.9222 5.33333 29.9989 5.75 30 6.16667C30 6.61111 29.9233 7.035 29.77 7.43833C29.6167 7.84167 29.3739 8.20944 29.0417 8.54167L8.04167 29.5417C7.73611 29.8472 7.38167 30.0833 6.97833 30.25C6.575 30.4167 6.15167 30.5 5.70833 30.5H1.66667ZM24.3333 8.5L26.6667 6.16667L24.3333 3.83333L22 6.16667L24.3333 8.5Z" fill="#71717A"/>
</svg>
