<svg width="94" height="94" viewBox="0 0 94 94" fill="none" xmlns="http://www.w3.org/2000/svg">
<rect x="3.5" y="3.5" width="87" height="87" rx="43.5" fill="#EF4444"/>
<rect x="3.5" y="3.5" width="87" height="87" rx="43.5" stroke="#FEE2E2" stroke-width="7"/>
<rect x="17" y="17" width="60" height="60" rx="30" fill="#EF4444"/>
<path d="M47 50.5L34.75 62.75C34.2917 63.2083 33.7083 63.4375 33 63.4375C32.2917 63.4375 31.7083 63.2083 31.25 62.75C30.7917 62.2917 30.5625 61.7083 30.5625 61C30.5625 60.2917 30.7917 59.7083 31.25 59.25L43.5 47L31.25 34.75C30.7917 34.2917 30.5625 33.7083 30.5625 33C30.5625 32.2917 30.7917 31.7083 31.25 31.25C31.7083 30.7917 32.2917 30.5625 33 30.5625C33.7083 30.5625 34.2917 30.7917 34.75 31.25L47 43.5L59.25 31.25C59.7083 30.7917 60.2917 30.5625 61 30.5625C61.7083 30.5625 62.2917 30.7917 62.75 31.25C63.2083 31.7083 63.4375 32.2917 63.4375 33C63.4375 33.7083 63.2083 34.2917 62.75 34.75L50.5 47L62.75 59.25C63.2083 59.7083 63.4375 60.2917 63.4375 61C63.4375 61.7083 63.2083 62.2917 62.75 62.75C62.2917 63.2083 61.7083 63.4375 61 63.4375C60.2917 63.4375 59.7083 63.2083 59.25 62.75L47 50.5Z" fill="white"/>
</svg>
