<svg width="94" height="94" viewBox="0 0 94 94" fill="none" xmlns="http://www.w3.org/2000/svg">
<rect x="3.5" y="3.5" width="87" height="87" rx="43.5" fill="#EF4444"/>
<rect x="3.5" y="3.5" width="87" height="87" rx="43.5" stroke="#FEE2E2" stroke-width="7"/>
<rect x="19" y="19" width="56" height="56" rx="28" fill="#EF4444"/>
<path d="M44.1417 57.4423L54.875 50.3257C55.225 50.0923 55.4 49.7618 55.4 49.334C55.4 48.9062 55.225 48.5756 54.875 48.3423L44.1417 41.2256C43.7528 40.9534 43.3538 40.9239 42.9447 41.137C42.5356 41.3501 42.3318 41.6915 42.3333 42.1613V56.5113C42.3333 56.978 42.5379 57.3186 42.947 57.5333C43.3561 57.748 43.7543 57.7161 44.1417 57.4423ZM42.3333 26.0007C41.6722 26.0007 41.1184 25.7767 40.672 25.3287C40.2256 24.8807 40.0016 24.3269 40 23.6673C39.9984 23.0078 40.2224 22.454 40.672 22.006C41.1216 21.558 41.6753 21.334 42.3333 21.334H51.6667C52.3278 21.334 52.8823 21.558 53.3303 22.006C53.7783 22.454 54.0016 23.0078 54 23.6673C53.9984 24.3269 53.7744 24.8814 53.328 25.331C52.8816 25.7805 52.3278 26.0038 51.6667 26.0007H42.3333ZM47 70.334C44.1222 70.334 41.4093 69.7802 38.8613 68.6726C36.3133 67.5651 34.0873 66.0578 32.1833 64.1507C30.2793 62.2435 28.7728 60.0168 27.6637 57.4703C26.5546 54.9239 26 52.2118 26 49.334C26 46.4562 26.5546 43.7433 27.6637 41.1953C28.7728 38.6473 30.2793 36.4213 32.1833 34.5173C34.0873 32.6133 36.3141 31.1068 38.8637 29.9977C41.4132 28.8885 44.1253 28.334 47 28.334C49.4111 28.334 51.725 28.7229 53.9417 29.5007C56.1583 30.2784 58.2389 31.4062 60.1833 32.884L61.8167 31.2507C62.2444 30.8229 62.7889 30.609 63.45 30.609C64.1111 30.609 64.6556 30.8229 65.0833 31.2507C65.5111 31.6784 65.725 32.2229 65.725 32.884C65.725 33.5451 65.5111 34.0895 65.0833 34.5173L63.45 36.1507C64.9278 38.0951 66.0556 40.1756 66.8333 42.3923C67.6111 44.609 68 46.9229 68 49.334C68 52.2118 67.4454 54.9247 66.3363 57.4727C65.2272 60.0207 63.7207 62.2467 61.8167 64.1507C59.9127 66.0546 57.6859 67.562 55.1363 68.6726C52.5868 69.7833 49.8747 70.3371 47 70.334Z" fill="white"/>
</svg>
