<svg width="41" height="40" viewBox="0 0 41 40" fill="none" xmlns="http://www.w3.org/2000/svg">
<path d="M18.4583 27.4587L26.125 22.3753C26.375 22.2087 26.5 21.9725 26.5 21.667C26.5 21.3614 26.375 21.1253 26.125 20.9587L18.4583 15.8753C18.1806 15.6809 17.8956 15.6598 17.6033 15.812C17.3111 15.9642 17.1656 16.2081 17.1667 16.5437V26.7937C17.1667 27.127 17.3128 27.3703 17.605 27.5237C17.8972 27.677 18.1817 27.6542 18.4583 27.4587ZM17.1667 5.00033C16.6944 5.00033 16.2989 4.84033 15.98 4.52033C15.6611 4.20033 15.5011 3.80477 15.5 3.33366C15.4989 2.86255 15.6589 2.46699 15.98 2.14699C16.3011 1.82699 16.6967 1.66699 17.1667 1.66699H23.8333C24.3056 1.66699 24.7017 1.82699 25.0217 2.14699C25.3417 2.46699 25.5011 2.86255 25.5 3.33366C25.4989 3.80477 25.3389 4.20088 25.02 4.52199C24.7011 4.8431 24.3056 5.00255 23.8333 5.00033H17.1667ZM20.5 36.667C18.4444 36.667 16.5067 36.2714 14.6867 35.4803C12.8667 34.6892 11.2767 33.6125 9.91667 32.2503C8.55667 30.8881 7.48056 29.2975 6.68833 27.4787C5.89611 25.6598 5.5 23.7225 5.5 21.667C5.5 19.6114 5.89611 17.6737 6.68833 15.8537C7.48056 14.0337 8.55667 12.4437 9.91667 11.0837C11.2767 9.72366 12.8672 8.64755 14.6883 7.85533C16.5094 7.0631 18.4467 6.66699 20.5 6.66699C22.2222 6.66699 23.875 6.94477 25.4583 7.50033C27.0417 8.05588 28.5278 8.86144 29.9167 9.91699L31.0833 8.75033C31.3889 8.44477 31.7778 8.29199 32.25 8.29199C32.7222 8.29199 33.1111 8.44477 33.4167 8.75033C33.7222 9.05588 33.875 9.44477 33.875 9.91699C33.875 10.3892 33.7222 10.7781 33.4167 11.0837L32.25 12.2503C33.3056 13.6392 34.1111 15.1253 34.6667 16.7087C35.2222 18.292 35.5 19.9448 35.5 21.667C35.5 23.7225 35.1039 25.6603 34.3117 27.4803C33.5194 29.3003 32.4433 30.8903 31.0833 32.2503C29.7233 33.6103 28.1328 34.687 26.3117 35.4803C24.4906 36.2737 22.5533 36.6692 20.5 36.667Z" fill="#E93E3A"/>
</svg>
