<svg width="189" height="48" viewBox="0 0 189 48" fill="none" xmlns="http://www.w3.org/2000/svg">
<g clip-path="url(#clip0_351_3075)">
<path d="M59.3669 44.4236C58.093 46.6486 55.627 48.0646 53.148 48C50.6045 47.9312 48.3278 46.455 45.9908 45.3962C43.1632 44.1223 40.0946 43.4681 37.0174 43.4294C33.9403 43.4681 30.8717 44.1223 28.0441 45.3962C26.1031 46.2742 24.2051 47.4362 22.1608 47.8494C22.1522 47.8494 22.1479 47.8494 22.1393 47.8537C22.092 47.8623 22.0446 47.8709 21.9973 47.8795C21.9284 47.8924 21.8596 47.9053 21.7864 47.9182C21.6573 47.9398 21.5325 47.9527 21.4034 47.9656C21.3775 47.9656 21.356 47.9699 21.3302 47.9742C21.214 47.9828 21.1021 47.9914 20.9859 47.9957C20.9515 47.9957 20.917 48 20.8826 48C20.8525 48 20.8267 48 20.7965 48C20.7277 48 20.6545 48 20.5856 48C20.4737 48 20.3618 47.9914 20.25 47.9828C20.237 47.9828 20.2241 47.9828 20.2112 47.9828C20.1983 47.9828 20.1897 47.9828 20.1768 47.9785C17.9474 47.7891 15.8171 46.4421 14.6637 44.4279C14.0568 43.3649 13.7383 42.1383 13.6996 40.9031C13.4973 39.117 13.6264 37.2406 13.5705 35.4287C13.4758 32.2955 12.7614 29.1882 11.5176 26.3391C10.2265 23.5115 8.41458 20.9465 6.18092 18.8505C4.18827 16.9827 1.79968 15.3817 0.654879 12.8554C-0.403849 10.5098 -0.162838 7.57465 1.26171 5.45288C1.63614 4.902 2.08803 4.40707 2.59158 3.9896C4.02473 2.80176 5.89687 2.19062 7.72167 2.38429C10.1877 2.65113 12.4558 4.38985 13.4457 6.76984C14.4614 9.21008 14.1429 11.9946 14.2161 14.6587C14.3107 17.8779 15.0381 21.0627 16.3034 24.0022C19.8927 32.33 28.3109 37.9937 37.0174 37.912C40.0129 37.8818 42.9997 37.2492 45.7584 36.0183C48.2202 34.9165 50.6131 33.3327 53.2857 33.3112C55.7647 33.2854 58.2049 34.7573 59.4401 37.0082C59.7586 37.5935 59.9953 38.2347 60.1459 38.8889C60.5677 40.7482 60.3051 42.7838 59.3712 44.4322L59.3669 44.4236ZM37.0174 0C30.0195 0 24.3471 5.93491 24.3471 13.2599C24.3471 20.585 30.0195 26.5199 37.0174 26.5199C44.0154 26.5199 49.6877 20.585 49.6877 13.2599C49.6877 5.93491 44.0154 0 37.0174 0Z" fill="url(#paint0_linear_351_3075)"/>
<path d="M88.22 35.5566L80.5335 14.296C79.7846 12.2259 81.3168 10.0439 83.516 10.0439C84.876 10.0439 86.0854 10.9132 86.5244 12.2L92.0461 28.5372C92.158 28.8471 92.2828 29.2215 92.4248 29.6562C92.5669 30.0908 92.7046 30.5212 92.8466 30.943C92.9886 31.3648 93.1005 31.7435 93.1866 32.0835H93.4405C93.5524 31.7736 93.6729 31.4164 93.7977 31.0075C93.9225 30.5987 94.0517 30.1855 94.1765 29.7638C94.3013 29.342 94.4218 28.946 94.5337 28.5802L100.081 12.1183C100.499 10.8788 101.665 10.0396 102.973 10.0396C105.091 10.0396 106.563 12.1441 105.84 14.1324L98.0628 35.5566C97.3096 37.6268 95.3428 39.0083 93.1393 39.0083C90.9314 39.0083 88.9646 37.6268 88.2114 35.5523L88.22 35.5566Z" fill="black"/>
<path d="M120.718 39.5205C118.295 39.5205 116.242 39.1031 114.555 38.2767C112.863 37.4461 111.585 36.1636 110.712 34.4335C109.838 32.7034 109.403 30.5256 109.403 27.9089C109.403 25.2923 109.838 23.0457 110.712 21.3414C111.585 19.6371 112.863 18.3718 114.555 17.5412C116.242 16.7105 118.299 16.2974 120.718 16.2974C123.137 16.2974 125.271 16.7148 126.945 17.5412C128.62 18.3718 129.893 19.6371 130.767 21.3414C131.641 23.0457 132.075 25.232 132.075 27.9089C132.075 30.5859 131.641 32.7034 130.767 34.4335C129.893 36.1636 128.62 37.4461 126.945 38.2767C125.271 39.1074 123.192 39.5205 120.718 39.5205ZM120.718 34.9628C122.013 34.9628 123.046 34.7261 123.821 34.2441C124.596 33.7664 125.164 33.0347 125.529 32.0492C125.895 31.0636 126.08 29.8543 126.08 28.4168V27.4054C126.08 25.9679 125.895 24.7586 125.529 23.773C125.164 22.7875 124.591 22.0472 123.821 21.5566C123.046 21.0659 122.013 20.8163 120.718 20.8163C119.422 20.8163 118.433 21.0616 117.658 21.5566C116.883 22.0515 116.315 22.7875 115.949 23.773C115.583 24.7586 115.398 25.9679 115.398 27.4054V28.4168C115.398 29.8543 115.579 31.0636 115.949 32.0492C116.315 33.0347 116.883 33.7664 117.658 34.2441C118.433 34.7218 119.453 34.9628 120.718 34.9628Z" fill="black"/>
<path d="M136.384 36.0818V11.4169C136.384 9.79434 137.696 8.48169 139.319 8.48169C140.941 8.48169 142.254 9.79434 142.254 11.4169V36.0775C142.254 37.7 140.941 39.0127 139.319 39.0127C137.696 39.0127 136.384 37.7 136.384 36.0775V36.0818Z" fill="black"/>
<path d="M147.659 11.0166C147.659 9.61789 148.796 8.48169 150.194 8.48169H150.995C152.394 8.48169 153.53 9.61789 153.53 11.0166C153.53 12.4153 152.394 13.5515 150.995 13.5515H150.194C148.796 13.5515 147.659 12.4153 147.659 11.0166ZM147.659 36.0818V19.7404C147.659 18.1178 148.972 16.8052 150.595 16.8052C152.217 16.8052 153.53 18.1178 153.53 19.7404V36.0818C153.53 37.7043 152.217 39.017 150.595 39.017C148.972 39.017 147.659 37.7043 147.659 36.0818Z" fill="black"/>
<path d="M182.499 11.0166C182.499 9.61789 183.635 8.48169 185.033 8.48169H185.834C187.233 8.48169 188.369 9.61789 188.369 11.0166C188.369 12.4153 187.233 13.5515 185.834 13.5515H185.033C183.635 13.5515 182.499 12.4153 182.499 11.0166ZM182.499 36.0818V19.7404C182.499 18.1178 183.811 16.8052 185.434 16.8052C187.056 16.8052 188.369 18.1178 188.369 19.7404V36.0818C188.369 37.7043 187.056 39.017 185.434 39.017C183.811 39.017 182.499 37.7043 182.499 36.0818Z" fill="black"/>
<path d="M167.93 39.5204C166.381 39.5204 164.986 39.3526 163.751 39.0126C162.512 38.6769 161.457 38.2035 160.584 37.5967C159.71 36.9898 159.043 36.2668 158.578 35.4232C158.113 34.5797 157.881 33.62 157.881 32.5526V32.2169C157.881 32.105 157.894 32.019 157.924 31.963H163.583V32.2987C163.609 33.0045 163.837 33.5726 164.259 34.0073C164.681 34.442 165.236 34.7605 165.929 34.9584C166.618 35.1564 167.345 35.2554 168.102 35.2554C168.778 35.2554 169.432 35.1908 170.065 35.066C170.698 34.9412 171.231 34.7088 171.67 34.3688C172.105 34.0331 172.324 33.5941 172.324 33.0605C172.324 32.3848 172.049 31.864 171.502 31.4982C170.951 31.1324 170.237 30.8354 169.35 30.6116C168.464 30.3878 167.5 30.1339 166.458 29.8499C165.499 29.6261 164.543 29.3635 163.588 29.0666C162.632 28.7696 161.763 28.3823 160.993 27.9046C160.218 27.4268 159.594 26.7985 159.112 26.0238C158.634 25.2491 158.393 24.2722 158.393 23.0886C158.393 21.9051 158.647 20.9281 159.155 20.0674C159.663 19.2109 160.36 18.4965 161.246 17.937C162.133 17.3732 163.175 16.9601 164.371 16.6932C165.567 16.4264 166.854 16.293 168.236 16.293C169.531 16.293 170.741 16.4264 171.868 16.6932C172.996 16.9601 173.981 17.356 174.825 17.8768C175.668 18.3975 176.331 19.0474 176.809 19.8178C177.287 20.5924 177.528 21.4575 177.528 22.4129V22.9681C177.528 23.1532 177.377 23.2995 177.196 23.2995H172.208C172.023 23.2995 171.873 23.1489 171.873 22.9638C171.873 22.456 171.718 22.0299 171.408 21.677C171.098 21.3241 170.655 21.0529 170.078 20.855C169.501 20.657 168.804 20.558 167.986 20.558C167.422 20.558 166.91 20.601 166.445 20.6828C165.981 20.7689 165.58 20.8937 165.24 21.0616C164.905 21.2294 164.642 21.436 164.457 21.6727C164.272 21.9137 164.182 22.2021 164.182 22.5377C164.182 23.0155 164.384 23.4028 164.793 23.6998C165.202 23.9967 165.744 24.242 166.42 24.44C167.095 24.638 167.84 24.8489 168.658 25.0727C169.669 25.3524 170.732 25.6279 171.847 25.8947C172.957 26.1615 173.994 26.523 174.95 26.9706C175.905 27.4225 176.68 28.0638 177.274 28.8901C177.863 29.7207 178.16 30.8397 178.16 32.2471C178.16 33.6544 177.898 34.7389 177.377 35.6686C176.856 36.5982 176.133 37.3427 175.204 37.9065C174.274 38.4703 173.189 38.8792 171.95 39.1331C170.71 39.387 169.372 39.5118 167.939 39.5118L167.93 39.5204Z" fill="black"/>
</g>
<defs>
<linearGradient id="paint0_linear_351_3075" x1="57.37" y1="-4.49314" x2="13.9999" y2="46.5" gradientUnits="userSpaceOnUse">
<stop offset="0.09" stop-color="#FFF33B"/>
<stop offset="0.621393" stop-color="#EB563A"/>
<stop offset="1" stop-color="#E93E3A"/>
</linearGradient>
<clipPath id="clip0_351_3075">
<rect width="188.369" height="48.0021" fill="white"/>
</clipPath>
</defs>
</svg>
