<svg width="512" height="512" viewBox="0 0 512 512" fill="none" xmlns="http://www.w3.org/2000/svg">
<path d="M490.201 416.746C480.004 434.313 460.264 445.493 440.422 444.983C420.062 444.44 401.838 432.784 383.132 424.425C360.499 414.367 335.936 409.202 311.305 408.896C286.674 409.202 262.111 414.367 239.478 424.425C223.941 431.357 208.749 440.532 192.386 443.794C192.317 443.794 192.282 443.794 192.213 443.828C191.835 443.896 191.456 443.964 191.077 444.032C190.525 444.134 189.974 444.236 189.389 444.338C188.355 444.508 187.356 444.609 186.323 444.711C186.116 444.711 185.944 444.745 185.737 444.779C184.807 444.847 183.911 444.915 182.981 444.949C182.705 444.949 182.43 444.983 182.154 444.983C181.913 444.983 181.706 444.983 181.465 444.983C180.914 444.983 180.328 444.983 179.777 444.983C178.882 444.983 177.986 444.915 177.09 444.847C176.987 444.847 176.883 444.847 176.78 444.847C176.677 444.847 176.608 444.847 176.505 444.813C158.66 443.318 141.607 432.682 132.375 416.78C127.517 408.386 124.968 398.702 124.658 388.95C123.039 374.848 124.073 360.032 123.625 345.727C122.867 320.989 117.148 296.455 107.192 273.96C96.8575 251.635 82.3543 231.383 64.475 214.834C48.5249 200.087 29.4055 187.446 20.242 167.499C11.7674 148.98 13.6966 125.805 25.0993 109.053C28.0964 104.704 31.7136 100.796 35.7442 97.4998C47.2159 88.1212 62.2014 83.296 76.8079 84.8251C96.5474 86.9319 114.702 100.66 122.626 119.451C130.756 138.718 128.206 160.703 128.792 181.737C129.55 207.155 135.372 232.3 145.5 255.509C174.231 321.261 241.614 365.979 311.305 365.333C335.282 365.095 359.19 360.1 381.272 350.382C400.977 341.683 420.131 329.178 441.524 329.008C461.367 328.804 480.9 340.426 490.787 358.197C493.336 362.819 495.231 367.882 496.436 373.047C499.812 387.726 497.711 403.799 490.235 416.814L490.201 416.746ZM311.305 66C255.29 66 209.886 112.859 209.886 170.694C209.886 228.528 255.29 275.387 311.305 275.387C367.32 275.387 412.724 228.528 412.724 170.694C412.724 112.859 367.32 66 311.305 66Z" fill="url(#paint0_linear_360_3601)"/>
<defs>
<linearGradient id="paint0_linear_360_3601" x1="474.216" y1="30.5245" x2="132.573" y2="437.763" gradientUnits="userSpaceOnUse">
<stop offset="0.09" stop-color="#FFF33B"/>
<stop offset="0.621393" stop-color="#EB563A"/>
<stop offset="1" stop-color="#E93E3A"/>
</linearGradient>
</defs>
</svg>